<?xml version="1.0" encoding="UTF-8" standalone="no"?>
<svg xmlns:dc="http://purl.org/dc/elements/1.1/" xmlns:cc="http://creativecommons.org/ns#" xmlns:rdf="http://www.w3.org/1999/02/22-rdf-syntax-ns#" xmlns:svg="http://www.w3.org/2000/svg" xmlns="http://www.w3.org/2000/svg" xmlns:sodipodi="http://sodipodi.sourceforge.net/DTD/sodipodi-0.dtd" xmlns:inkscape="http://www.inkscape.org/namespaces/inkscape" width="477" height="477" id="svg56" sodipodi:version="0.32" inkscape:version="0.45.1+0.46pre1" sodipodi:docname="contour_elephant.svg" sodipodi:docbase="/var/www/html/svg_gallery/svg/animals" inkscape:output_extension="org.inkscape.output.svg.inkscape" version="1.0">
  <metadata id="metadata63"/>
  <defs id="defs61">
    <inkscape:perspective sodipodi:type="inkscape:persp3d" inkscape:vp_x="-50 : 600 : 1" inkscape:vp_y="0 : 1000 : 0" inkscape:vp_z="700 : 600 : 1" inkscape:persp3d-origin="300 : 400 : 1" id="perspective2408"/>
  </defs>
  <sodipodi:namedview inkscape:window-height="717" inkscape:window-width="778" inkscape:pageshadow="2" inkscape:pageopacity="0.0" guidetolerance="10.0" gridtolerance="10.0" objecttolerance="10.0" borderopacity="1.0" bordercolor="#666666" pagecolor="#ffffff" id="base" inkscape:zoom="1.0356394" inkscape:cx="238.5" inkscape:cy="238.5" inkscape:window-x="186" inkscape:window-y="26" inkscape:current-layer="svg56" showgrid="false"/>
  <path style="fill:#000000;stroke:none" d="M 70.516194,327.45344 C 75.412994,328.89744 87.440194,327.68244 83.317894,319.55844 C 81.030694,315.05044 70.269494,309.37544 65.516194,308.02944 C 58.353694,306.00044 46.319694,314.80644 55.516194,320.45344 L 53.516194,326.45344 C 45.814794,322.77344 43.619894,311.51144 44.246894,303.45344 C 44.687794,297.78644 49.804694,291.81044 51.831794,286.45344 C 57.369594,271.81844 61.918094,257.43544 66.225294,242.45344 C 67.946994,236.46444 68.456994,225.13044 73.663594,221.18144 C 78.542094,217.48044 86.034194,216.94144 91.512194,214.21544 C 95.550194,212.20544 98.188194,208.07044 102.53119,206.72744 C 111.85619,203.84444 121.04319,204.58744 125.51619,194.45344 C 134.96019,208.71044 142.84419,221.99544 144.41119,239.45344 C 145.52519,251.86444 137.05319,264.58944 134.19319,276.45344 C 132.19419,284.74644 132.81019,293.19344 130.63219,301.45344 C 127.91519,311.75344 122.61619,321.27344 120.03119,331.45344 C 118.47119,337.59444 119.86919,344.58144 117.95219,350.45244 C 114.52119,360.96144 94.934194,367.24144 97.263194,380.44844 C 98.339194,386.55144 105.45519,387.75144 110.51619,388.78744 C 122.26819,391.19244 134.91919,389.70844 146.51619,387.89244 C 150.37819,387.28744 155.06719,388.03444 158.08219,385.01944 C 165.36119,377.74144 156.76119,363.98844 159.11919,355.45344 C 160.80819,349.33644 166.59419,344.00644 169.61619,338.45344 C 176.18619,326.37744 181.74919,313.65644 185.51619,300.45344 L 186.51619,300.45344 C 186.75619,312.09144 189.56519,326.67744 194.03019,337.45344 C 196.84919,344.25744 204.10819,354.01944 203.91019,361.45344 C 203.57019,374.19344 184.26719,382.52644 193.52519,397.43444 C 202.83919,412.43144 224.85319,397.34344 236.51619,394.70444 C 242.91019,393.25744 251.48419,395.15144 254.62219,387.41044 C 258.95419,376.72644 250.16119,366.59844 248.68619,356.45344 C 246.99719,344.84344 249.17819,333.16244 247.05119,321.45344 C 245.49519,312.88444 238.52019,302.91344 238.75419,294.45344 C 238.91819,288.50044 243.14419,281.45144 244.51619,275.45344 L 282.51619,293.29844 L 298.51619,302.45344 C 298.58619,310.95344 298.35319,321.10944 299.84519,329.45344 C 300.55819,333.43844 304.30019,337.46444 303.15919,341.58344 C 300.93419,349.60944 281.28919,357.84444 285.71019,366.34844 C 288.14019,371.02244 294.84819,372.62344 299.51619,373.82344 C 311.33819,376.86344 342.31119,381.43044 351.00219,370.34544 C 354.83219,365.46044 354.51419,357.33244 354.51619,351.45344 C 354.52219,336.63544 356.08419,320.93644 352.51619,306.45344 C 365.38419,314.38844 368.31019,330.33444 374.76019,343.45344 C 376.99419,347.99744 381.64919,355.20344 380.12619,360.43844 C 377.77619,368.51244 353.68919,381.11944 364.83419,392.02044 C 367.92419,395.04344 373.54119,395.26844 377.51619,396.47844 C 389.01819,399.97844 423.93119,405.69044 429.36819,390.43844 C 434.44919,376.18444 433.15219,351.01344 429.61619,336.45344 C 427.53519,327.88444 422.70119,320.45144 421.85619,311.45344 C 421.07919,303.17444 426.81419,294.79544 427.42619,286.45344 C 428.27719,274.84044 424.68719,264.64244 424.33019,253.45344 C 424.10119,246.25544 426.51619,238.84344 426.51619,231.45344 C 437.50019,260.56844 426.00219,291.89444 433.99719,321.45344 C 435.16119,325.75644 435.61619,350.15944 444.23519,347.70144 C 447.46719,346.78044 448.42319,341.17644 447.77419,338.45344 C 444.94419,326.57144 439.81819,316.06644 439.79019,303.45344 C 439.77619,297.18144 442.64219,290.71744 443.34319,284.45344 C 447.48219,247.46144 453.26319,196.01744 421.51219,168.89244 C 407.35419,156.79744 392.01819,147.96324 376.51619,137.94884 C 364.38519,130.11214 351.97019,120.96294 337.51619,117.84384 C 326.91419,115.55604 315.29219,118.93714 304.51619,118.41334 C 281.02019,117.27114 257.94119,112.82384 234.51619,110.62324 C 223.85619,109.62174 213.29719,111.67704 202.51619,109.64944 C 179.35119,105.29274 162.21819,87.787541 139.51619,82.062241 C 132.32519,80.248881 119.86319,81.491541 112.51619,82.782141 C 105.57819,84.001041 101.90419,88.860941 96.501194,92.708041 C 80.810994,103.88104 60.234094,121.79754 51.546294,139.45264 C 46.213094,150.29064 45.641294,164.77434 42.219894,176.45344 C 37.232994,193.47644 27.759294,207.63944 24.955194,225.45344 C 22.018494,244.11044 26.517394,263.70844 26.516194,282.45344 C 26.515294,296.54544 18.632294,313.78344 23.649694,327.45344 C 30.663294,346.56244 67.895394,352.87644 70.516194,327.45344 z" id="path58"/>
  <metadata id="metadata65">
    <rdf:RDF>
      <cc:Work rdf:about="">
        <dc:title>Clipart by Nicu Buculei - contour_chipmunk</dc:title>
        <dc:rights>
          <cc:Agent>
            <dc:title>Nicu Buculei</dc:title>
          </cc:Agent>
        </dc:rights>
        <dc:type rdf:resource="http://purl.org/dc/dcmitype/StillImage"/>
        <cc:license rdf:resource="http://web.resource.org/cc/PublicDomain"/>
        <dc:format>image/svg+xml</dc:format>
      </cc:Work>
      <cc:License rdf:about="http://web.resource.org/cc/PublicDomain">
        <cc:permits rdf:resource="http://web.resource.org/cc/Reproduction"/>
        <cc:permits rdf:resource="http://web.resource.org/cc/Distribution"/>
        <cc:permits rdf:resource="http://web.resource.org/cc/DerivativeWorks"/>
      </cc:License>
    </rdf:RDF>
  </metadata>
</svg>