<?xml version="1.0" encoding="UTF-8" standalone="no"?>
<!-- Created with Inkscape (http://www.inkscape.org/) -->
<svg xmlns:dc="http://purl.org/dc/elements/1.1/" xmlns:cc="http://creativecommons.org/ns#" xmlns:rdf="http://www.w3.org/1999/02/22-rdf-syntax-ns#" xmlns:svg="http://www.w3.org/2000/svg" xmlns="http://www.w3.org/2000/svg" xmlns:xlink="http://www.w3.org/1999/xlink" xmlns:sodipodi="http://sodipodi.sourceforge.net/DTD/sodipodi-0.dtd" xmlns:inkscape="http://www.inkscape.org/namespaces/inkscape" width="273.21875" height="136.493" id="svg3636" sodipodi:version="0.32" inkscape:version="0.46" sodipodi:docname="key.svg" inkscape:output_extension="org.inkscape.output.svg.inkscape" version="1.0">
  <defs id="defs3638">
    <pattern inkscape:collect="always" xlink:href="#pattern6179" id="pattern6248" patternTransform="translate(201.25,133.46875)"/>
    <linearGradient inkscape:collect="always" id="linearGradient6216">
      <stop style="stop-color:#2e3436;stop-opacity:1;" offset="0" id="stop6218"/>
      <stop style="stop-color:#2e3436;stop-opacity:0;" offset="1" id="stop6220"/>
    </linearGradient>
    <linearGradient inkscape:collect="always" id="linearGradient6204">
      <stop style="stop-color:#ffffff;stop-opacity:1;" offset="0" id="stop6206"/>
      <stop style="stop-color:#ffffff;stop-opacity:0;" offset="1" id="stop6208"/>
    </linearGradient>
    <linearGradient inkscape:collect="always" id="linearGradient6196">
      <stop style="stop-color:#555753;stop-opacity:1;" offset="0" id="stop6198"/>
      <stop style="stop-color:#555753;stop-opacity:0;" offset="1" id="stop6200"/>
    </linearGradient>
    <pattern inkscape:collect="always" xlink:href="#pattern6179" id="pattern6184" patternTransform="translate(200.54289,132.40809)"/>
    <linearGradient id="linearGradient4522">
      <stop style="stop-color:#f4f3f2;stop-opacity:1;" offset="0" id="stop4524"/>
      <stop style="stop-color:#363637;stop-opacity:0.47019866;" offset="1" id="stop4526"/>
    </linearGradient>
    <inkscape:perspective sodipodi:type="inkscape:persp3d" inkscape:vp_x="0 : 526.18109 : 1" inkscape:vp_y="0 : 1000 : 0" inkscape:vp_z="744.09448 : 526.18109 : 1" inkscape:persp3d-origin="372.04724 : 350.78739 : 1" id="perspective3644"/>
    <inkscape:perspective id="perspective3962" inkscape:persp3d-origin="372.04724 : 350.78739 : 1" inkscape:vp_z="744.09448 : 526.18109 : 1" inkscape:vp_y="0 : 1000 : 0" inkscape:vp_x="0 : 526.18109 : 1" sodipodi:type="inkscape:persp3d"/>
    <linearGradient inkscape:collect="always" xlink:href="#linearGradient4522" id="linearGradient4528" x1="175.67038" y1="210.61842" x2="215.27693" y2="206.36842" gradientUnits="userSpaceOnUse" gradientTransform="translate(-10.303556,0.4545686)"/>
    <pattern patternUnits="userSpaceOnUse" width="10.704343" height="11.14545" patternTransform="translate(206.02899,128.08098)" id="pattern6141">
      <path transform="matrix(1.2476376,0,0,1.2476376,-253.13623,-155.88538)" d="M 211.07137,129.41106 A 3.8890872,4.0658641 0 1 1 203.29319,129.41106 A 3.8890872,4.0658641 0 1 1 211.07137,129.41106 z" sodipodi:ry="4.0658641" sodipodi:rx="3.8890872" sodipodi:cy="129.41106" sodipodi:cx="207.18228" id="path6139" style="opacity:1;fill:#babdb6;fill-opacity:1;fill-rule:nonzero;stroke:#f4f3f2;stroke-width:0.8015148;stroke-linecap:round;stroke-linejoin:bevel;stroke-miterlimit:4;stroke-dasharray:none;stroke-dashoffset:0;stroke-opacity:0" sodipodi:type="arc"/>
    </pattern>
    <pattern patternUnits="userSpaceOnUse" width="8.6875" height="8.15625" patternTransform="translate(201.25,133.46875)" id="pattern6179">
      <path id="path6174" d="M 1.9375,0.5 C 1.05936,1.24537 0.5,2.35256 0.5,3.59375 C 0.5,5.83625 2.32,7.65625 4.5625,7.65625 C 6.14439,7.65625 7.51664,6.727 8.1875,5.40625 C 7.47907,6.00757 6.56381,6.40625 5.5625,6.40625 C 3.32,6.40625 1.5,4.58625 1.5,2.34375 C 1.5,1.68314 1.65734,1.05155 1.9375,0.5 z" style="opacity:0.32394367;fill:#eeeeec;fill-opacity:1;fill-rule:nonzero;stroke:#f4f3f2;stroke-width:1;stroke-linecap:round;stroke-linejoin:bevel;stroke-miterlimit:4;stroke-dasharray:none;stroke-dashoffset:0;stroke-opacity:0"/>
    </pattern>
    <linearGradient inkscape:collect="always" xlink:href="#linearGradient6196" id="linearGradient6202" x1="327.93799" y1="184.74512" x2="327.42285" y2="197.11948" gradientUnits="userSpaceOnUse"/>
    <linearGradient inkscape:collect="always" xlink:href="#linearGradient6204" id="linearGradient6210" x1="278.15625" y1="206.1875" x2="278.03125" y2="190.1875" gradientUnits="userSpaceOnUse"/>
    <linearGradient inkscape:collect="always" xlink:href="#linearGradient6216" id="linearGradient6224" x1="254.20488" y1="169.00903" x2="247.84093" y2="176.61044" gradientUnits="userSpaceOnUse" gradientTransform="translate(0.3535534,0.1767767)"/>
    <linearGradient inkscape:collect="always" xlink:href="#linearGradient6216" id="linearGradient6228" gradientUnits="userSpaceOnUse" gradientTransform="matrix(-0.4845059,0.874788,-0.874788,-0.4845059,526.52273,105.92084)" x1="254.20488" y1="169.00903" x2="247.84093" y2="176.61044"/>
  </defs>
  <sodipodi:namedview id="base" pagecolor="#ffffff" bordercolor="#666666" borderopacity="1.0" inkscape:pageopacity="0.0" inkscape:pageshadow="2" inkscape:zoom="0.5" inkscape:cx="175.60014" inkscape:cy="753.42713" inkscape:document-units="px" inkscape:current-layer="layer1" showgrid="false" inkscape:window-width="1272" inkscape:window-height="944" inkscape:window-x="0" inkscape:window-y="0"/>
  <metadata id="metadata3641">
    <rdf:RDF>
      <cc:Work rdf:about="">
        <dc:format>image/svg+xml</dc:format>
        <dc:type rdf:resource="http://purl.org/dc/dcmitype/StillImage"/>
      </cc:Work>
    </rdf:RDF>
  </metadata>
  <g inkscape:label="Capa 1" inkscape:groupmode="layer" id="layer1" transform="translate(-102.52808,-133.46875)">
    <path style="opacity:1;fill:#928f81;fill-opacity:1;fill-rule:nonzero;stroke:none;stroke-width:1.27559054;stroke-linecap:round;stroke-linejoin:bevel;stroke-miterlimit:4;stroke-dasharray:none;stroke-dashoffset:0;stroke-opacity:1" d="M 165.62183,147.74299 C 131.88677,147.74299 104.52808,175.13293 104.52808,208.86799 C 104.52808,242.60305 131.88677,269.96174 165.62183,269.96174 C 189.74391,269.96174 208.4039,256.23413 220.52808,235.64924 C 220.52808,235.64924 256.88196,245.11939 258.05933,242.68049 L 264.6357,229.05763 L 270.44928,230.32742 L 283.33392,215.43477 L 295.45464,217.45508 L 297.93433,218.99299 L 302.62183,218.77424 L 308.56869,214.40939 L 318.6691,215.41955 L 327.57377,223.92891 L 340.8025,220.93985 L 366.15308,215.93049 L 375.74683,203.05549 L 367.15308,185.11799 L 253.37183,184.74299 C 253.37183,184.74299 254.45891,176.53694 252.99683,173.49299 C 252.20981,171.85448 248.64365,168.42985 245.17219,174.10785 C 240.85571,181.16801 221.15308,183.30549 221.15308,183.30549 C 211.46844,162.32908 190.22926,147.74298 165.62183,147.74299 z M 145.18433,190.18049 C 155.07691,190.18049 163.09058,198.49068 163.09058,208.74299 C 163.09058,218.9953 155.07691,227.33674 145.18433,227.33674 C 135.29174,227.33674 127.24683,218.9953 127.24683,208.74299 C 127.24683,198.49068 135.29175,190.18049 145.18433,190.18049 z" id="path6212" sodipodi:nodetypes="csscsccccccccccccccsscccsssc"/>
    <path sodipodi:nodetypes="csscsccccccccccccccscccsssc" id="path4516" d="M 163.62183,145.74299 C 129.88677,145.74299 102.52808,173.13293 102.52808,206.86799 C 102.52808,240.60305 129.88677,267.96174 163.62183,267.96174 C 187.74391,267.96174 206.4039,254.23413 218.52808,233.64924 C 218.52808,233.64924 254.86524,243.15402 256.05933,240.68049 L 262.6357,227.05763 L 268.44928,228.32742 L 281.33392,213.43477 L 293.45464,215.45508 L 295.93433,216.99299 L 300.62183,216.77424 L 306.56869,212.40939 L 316.6691,213.41955 L 325.57377,221.92891 L 338.8025,218.93985 L 364.15308,213.93049 L 373.74683,201.05549 L 365.15308,183.11799 L 251.37183,182.74299 C 251.37183,182.74299 252.45891,174.53694 250.99683,171.49299 C 249.4228,168.21596 219.15308,181.30549 219.15308,181.30549 C 209.46844,160.32908 188.22926,145.74298 163.62183,145.74299 z M 143.18433,188.18049 C 153.07691,188.18049 161.09058,196.49068 161.09058,206.74299 C 161.09058,216.9953 153.07691,225.33674 143.18433,225.33674 C 133.29174,225.33674 125.24683,216.9953 125.24683,206.74299 C 125.24683,196.49068 133.29175,188.18049 143.18433,188.18049 z" style="opacity:1;fill:#e2d7b9;fill-opacity:1;fill-rule:nonzero;stroke:none;stroke-width:1.27559054;stroke-linecap:round;stroke-linejoin:bevel;stroke-miterlimit:4;stroke-dasharray:none;stroke-dashoffset:0;stroke-opacity:1"/>
    <path style="opacity:1;fill:url(#pattern6184);fill-opacity:1;fill-rule:nonzero;stroke:url(#linearGradient4528);stroke-width:1.27559054;stroke-linecap:round;stroke-linejoin:bevel;stroke-miterlimit:4;stroke-dasharray:none;stroke-dashoffset:0;stroke-opacity:1" d="M 164.46058,153.27611 C 134.90755,153.27611 110.89808,177.28558 110.89808,206.83861 C 110.89808,236.39163 134.90755,260.36987 164.46058,260.36986 C 180.29693,260.36985 194.53077,253.46679 204.33558,242.52611 L 204.33558,171.11986 C 194.53078,160.17918 180.29694,153.27611 164.46058,153.27611 z M 142.99183,188.11986 C 152.88441,188.11986 160.89808,196.43005 160.89808,206.68236 C 160.89808,216.93467 152.88441,225.27611 142.99183,225.27611 C 133.09924,225.27611 125.05433,216.93467 125.05433,206.68236 C 125.05433,196.43005 133.09925,188.11986 142.99183,188.11986 z" id="path4519"/>
    <path style="opacity:0.32394367;fill:none;fill-opacity:1;fill-rule:nonzero;stroke:#f4f3f2;stroke-width:1.27559054;stroke-linecap:round;stroke-linejoin:bevel;stroke-miterlimit:4;stroke-dasharray:none;stroke-dashoffset:0;stroke-opacity:0" d="M 166.02632,154.69032 C 136.47329,154.69032 112.46382,178.69979 112.46382,208.25283 C 112.46382,237.80585 136.47329,261.78409 166.02632,261.78408 C 181.86267,261.78407 196.09651,254.88101 205.90132,243.94033 L 205.90132,172.53407 C 196.09652,161.59339 181.86268,154.69032 166.02632,154.69032 z M 144.55757,189.53407 C 154.45015,189.53407 162.46382,197.84426 162.46382,208.09658 C 162.46382,218.34889 154.45015,226.69033 144.55757,226.69033 C 134.66498,226.69033 126.62007,218.34889 126.62007,208.09658 C 126.62006,197.84426 134.66499,189.53407 144.55757,189.53407 z" id="path3972"/>
    <rect style="fill:url(#pattern6248);stroke:none" width="8.6875" height="8.15625" x="201.25" y="133.46875" id="rect6182"/>
    <path style="opacity:1;fill:url(#linearGradient6202);fill-opacity:1;fill-rule:nonzero;stroke:url(#linearGradient6210);stroke-width:1;stroke-linecap:round;stroke-linejoin:bevel;stroke-miterlimit:4;stroke-dasharray:none;stroke-dashoffset:0;stroke-opacity:1" d="M 250.65625,189.34375 L 250.65625,198.53125 L 372.53125,198.53125 L 368.125,189.34375 L 250.65625,189.34375 z" id="rect6191"/>
    <path style="opacity:0.83802819;fill:url(#linearGradient6224);fill-opacity:1;fill-rule:evenodd;stroke:none;stroke-width:1px;stroke-linecap:butt;stroke-linejoin:miter;stroke-opacity:1" d="M 230.16325,178.55498 C 230.16325,178.55498 243.84617,171.2144 249.96224,171.13036 C 250.64133,171.12075 251.25721,172.22952 251.37646,172.89813 C 251.61203,174.21893 251.37645,177.31755 251.37645,177.31755 L 230.16325,178.55498 z" id="path6214" sodipodi:nodetypes="csscc"/>
    <path sodipodi:nodetypes="csscc" id="path6226" d="M 259.13547,220.53032 C 259.13547,220.53032 260.17746,234.30653 257.28771,239.69752 C 256.96709,240.29623 254.44876,242.04779 253.80609,241.82816 C 252.53653,241.3943 247.94004,240.93692 247.94004,240.93692 L 259.13547,220.53032 z" style="opacity:0.83802819;fill:url(#linearGradient6228);fill-opacity:1;fill-rule:evenodd;stroke:none;stroke-width:1px;stroke-linecap:butt;stroke-linejoin:miter;stroke-opacity:1"/>
  </g>
</svg>