<?xml version="1.0" encoding="UTF-8" standalone="no"?>
<!-- Created with Inkscape (http://www.inkscape.org/) -->
<svg xmlns:dc="http://purl.org/dc/elements/1.1/" xmlns:cc="http://creativecommons.org/ns#" xmlns:rdf="http://www.w3.org/1999/02/22-rdf-syntax-ns#" xmlns:svg="http://www.w3.org/2000/svg" xmlns="http://www.w3.org/2000/svg" xmlns:sodipodi="http://sodipodi.sourceforge.net/DTD/sodipodi-0.dtd" xmlns:inkscape="http://www.inkscape.org/namespaces/inkscape" width="744.09448819" height="1052.3622047" id="svg2" inkscape:label="Pozadí" version="1.1" inkscape:version="0.47 r22583" sodipodi:docname="Nový dokument 1">
  <defs id="defs3">
    <inkscape:perspective sodipodi:type="inkscape:persp3d" inkscape:vp_x="0 : 526.18109 : 1" inkscape:vp_y="0 : 1000 : 0" inkscape:vp_z="744.09448 : 526.18109 : 1" inkscape:persp3d-origin="372.04724 : 350.78739 : 1" id="perspective9"/>
    <inkscape:perspective id="perspective3492" inkscape:persp3d-origin="0.5 : 0.33333333 : 1" inkscape:vp_z="1 : 0.5 : 1" inkscape:vp_y="0 : 1000 : 0" inkscape:vp_x="0 : 0.5 : 1" sodipodi:type="inkscape:persp3d"/>
  </defs>
  <sodipodi:namedview id="base" pagecolor="#ffffff" bordercolor="#666666" borderopacity="1.0" inkscape:pageopacity="0.0" inkscape:pageshadow="2" inkscape:zoom="0.35" inkscape:cx="375" inkscape:cy="520" inkscape:document-units="px" inkscape:current-layer="layer1" showgrid="false" inkscape:window-width="1680" inkscape:window-height="970" inkscape:window-x="-8" inkscape:window-y="-8" inkscape:window-maximized="1"/>
  <g inkscape:label="Vrstva 1" inkscape:groupmode="layer" id="layer1">
    <g style="fill:#000000;fill-opacity:1;display:inline" id="g16373" transform="matrix(13.271276,0,0,13.271276,-2148.3277,-4591.1478)" inkscape:export-filename="C:\Users\pafe\Desktop\use37124.png" inkscape:export-xdpi="90" inkscape:export-ydpi="90">
      <path id="path3785" d="m 176.70701,397.26516 c 24.57304,2.88691 24.57304,2.88691 24.57304,2.88691" style="fill:#000000;fill-opacity:1;stroke:#000000;stroke-width:0.94173229;stroke-linecap:butt;stroke-linejoin:miter;stroke-miterlimit:4;stroke-opacity:1;stroke-dasharray:none"/>
      <path transform="matrix(0.04439386,0,0,0.04346272,242.41486,370.47665)" d="m 482.85713,342.36218 c 0,85.99862 -69.71566,155.71428 -155.71428,155.71428 -85.99862,0 -155.71428,-69.71566 -155.71428,-155.71428 0,-85.99862 69.71566,-155.71428 155.71428,-155.71428 85.99862,0 155.71428,69.71566 155.71428,155.71428 z" sodipodi:ry="155.71428" sodipodi:rx="155.71428" sodipodi:cy="342.36218" sodipodi:cx="327.14285" id="path3589-5" style="fill:#000000;fill-opacity:1;stroke:#000000;stroke-width:16.02231979;stroke-miterlimit:4;stroke-opacity:1;stroke-dasharray:none" sodipodi:type="arc"/>
      <path transform="matrix(0.07737412,0,0,0.07575122,173.26463,330.43283)" d="m 482.85713,342.36218 c 0,85.99862 -69.71566,155.71428 -155.71428,155.71428 -85.99862,0 -155.71428,-69.71566 -155.71428,-155.71428 0,-85.99862 69.71566,-155.71428 155.71428,-155.71428 85.99862,0 155.71428,69.71566 155.71428,155.71428 z" sodipodi:ry="155.71428" sodipodi:rx="155.71428" sodipodi:cy="342.36218" sodipodi:cx="327.14285" id="path3589-3-1" style="fill:#000000;fill-opacity:1;stroke:#000000;stroke-width:12.30083942;stroke-miterlimit:4;stroke-opacity:1;stroke-dasharray:none" sodipodi:type="arc"/>
      <path transform="matrix(0.04589473,0,0,0.0449321,225.58279,353.73468)" d="m 482.85713,342.36218 c 0,85.99862 -69.71566,155.71428 -155.71428,155.71428 -85.99862,0 -155.71428,-69.71566 -155.71428,-155.71428 0,-85.99862 69.71566,-155.71428 155.71428,-155.71428 85.99862,0 155.71428,69.71566 155.71428,155.71428 z" sodipodi:ry="155.71428" sodipodi:rx="155.71428" sodipodi:cy="342.36218" sodipodi:cx="327.14285" id="path3589-5-6" style="fill:#000000;fill-opacity:1;stroke:#000000;stroke-width:16.02231979;stroke-miterlimit:4;stroke-opacity:1;stroke-dasharray:none" sodipodi:type="arc"/>
      <path transform="matrix(0.04589473,0,0,0.0449321,245.97842,391.26458)" d="m 482.85713,342.36218 c 0,85.99862 -69.71566,155.71428 -155.71428,155.71428 -85.99862,0 -155.71428,-69.71566 -155.71428,-155.71428 0,-85.99862 69.71566,-155.71428 155.71428,-155.71428 85.99862,0 155.71428,69.71566 155.71428,155.71428 z" sodipodi:ry="155.71428" sodipodi:rx="155.71428" sodipodi:cy="342.36218" sodipodi:cx="327.14285" id="path3589-5-8" style="fill:#000000;fill-opacity:1;stroke:#000000;stroke-width:16.02231979;stroke-miterlimit:4;stroke-opacity:1;stroke-dasharray:none" sodipodi:type="arc"/>
      <path transform="matrix(0.04589473,0,0,0.0449321,236.39493,411.23242)" d="m 482.85713,342.36218 c 0,85.99862 -69.71566,155.71428 -155.71428,155.71428 -85.99862,0 -155.71428,-69.71566 -155.71428,-155.71428 0,-85.99862 69.71566,-155.71428 155.71428,-155.71428 85.99862,0 155.71428,69.71566 155.71428,155.71428 z" sodipodi:ry="155.71428" sodipodi:rx="155.71428" sodipodi:cy="342.36218" sodipodi:cx="327.14285" id="path3589-5-8-7" style="fill:#000000;fill-opacity:1;stroke:#000000;stroke-width:16.02231979;stroke-miterlimit:4;stroke-opacity:1;stroke-dasharray:none" sodipodi:type="arc"/>
      <path id="path3727" d="m 245.75726,374.16983 c 6.389,6.25499 6.389,6.25499 6.389,6.25499" style="fill:#000000;fill-opacity:1;stroke:#000000;stroke-width:0.94173229;stroke-linecap:butt;stroke-linejoin:miter;stroke-miterlimit:4;stroke-opacity:1;stroke-dasharray:none"/>
      <path id="path3729" d="m 258.78098,391.7319 c 1.22864,7.69846 1.22864,7.69846 1.22864,7.69846" style="fill:#000000;fill-opacity:1;stroke:#000000;stroke-width:0.94173229;stroke-linecap:butt;stroke-linejoin:miter;stroke-miterlimit:4;stroke-opacity:1;stroke-dasharray:none"/>
      <path id="path3731" d="m 258.28951,413.1432 c -2.94876,7.21729 -2.94876,7.21729 -2.94876,7.21729" style="fill:#000000;fill-opacity:1;stroke:#000000;stroke-width:0.94173229;stroke-linecap:butt;stroke-linejoin:miter;stroke-miterlimit:4;stroke-opacity:1;stroke-dasharray:none"/>
      <path id="path3733" d="m 246.49445,421.32279 c -4.17741,-4.33036 -4.17741,-4.33036 -4.17741,-4.33036" style="fill:#000000;fill-opacity:1;stroke:#000000;stroke-width:0.94173229;stroke-linecap:butt;stroke-linejoin:miter;stroke-miterlimit:4;stroke-opacity:1;stroke-dasharray:none"/>
      <path id="path3735" d="m 210.37208,357.81064 c 23.83584,8.66075 23.83584,8.66075 23.83584,8.66075" style="fill:#000000;fill-opacity:1;stroke:#000000;stroke-width:0.94173229;stroke-linecap:butt;stroke-linejoin:miter;stroke-miterlimit:4;stroke-opacity:1;stroke-dasharray:none"/>
      <path transform="matrix(0.06278246,0,0,0.06146561,147.15971,349.61112)" d="m 482.85713,342.36218 c 0,85.99862 -69.71566,155.71428 -155.71428,155.71428 -85.99862,0 -155.71428,-69.71566 -155.71428,-155.71428 0,-85.99862 69.71566,-155.71428 155.71428,-155.71428 85.99862,0 155.71428,69.71566 155.71428,155.71428 z" sodipodi:ry="155.71428" sodipodi:rx="155.71428" sodipodi:cy="342.36218" sodipodi:cx="327.14285" id="path3589-3-7" style="fill:#000000;fill-opacity:1;stroke:#000000;stroke-width:12.30083942;stroke-miterlimit:4;stroke-opacity:1;stroke-dasharray:none" sodipodi:type="arc"/>
      <path id="path3781" d="m 196.61117,367.91485 c -8.1091,37.52991 -8.1091,37.52991 -8.1091,37.52991" style="fill:#000000;fill-opacity:1;stroke:#000000;stroke-width:0.94173229;stroke-linecap:butt;stroke-linejoin:miter;stroke-miterlimit:4;stroke-opacity:1;stroke-dasharray:none"/>
      <path transform="matrix(0.04514429,0,0,0.0441974,171.76758,397.04938)" d="m 482.85713,342.36218 c 0,85.99862 -69.71566,155.71428 -155.71428,155.71428 -85.99862,0 -155.71428,-69.71566 -155.71428,-155.71428 0,-85.99862 69.71566,-155.71428 155.71428,-155.71428 85.99862,0 155.71428,69.71566 155.71428,155.71428 z" sodipodi:ry="155.71428" sodipodi:rx="155.71428" sodipodi:cy="342.36218" sodipodi:cx="327.14285" id="path3589-5-6-2-1" style="fill:#000000;fill-opacity:1;stroke:#000000;stroke-width:21.08276749;stroke-miterlimit:4;stroke-opacity:1;stroke-dasharray:none" sodipodi:type="arc"/>
      <path id="path3783" d="m 187.27341,360.21642 c -10.5664,6.49555 -10.5664,6.49555 -10.5664,6.49555" style="fill:#000000;fill-opacity:1;stroke:#000000;stroke-width:0.94173229;stroke-linecap:butt;stroke-linejoin:miter;stroke-miterlimit:4;stroke-opacity:1;stroke-dasharray:none"/>
      <path id="path3787" d="m 180.39296,431.90816 c 25.0645,-16.3592 25.0645,-16.3592 25.0645,-16.3592" style="fill:#000000;fill-opacity:1;stroke:#000000;stroke-width:0.94173229;stroke-linecap:butt;stroke-linejoin:miter;stroke-miterlimit:4;stroke-opacity:1;stroke-dasharray:none"/>
      <path transform="matrix(0.04514429,0,0,0.0441974,154.66044,381.5322)" d="m 482.85713,342.36218 c 0,85.99862 -69.71566,155.71428 -155.71428,155.71428 -85.99862,0 -155.71428,-69.71566 -155.71428,-155.71428 0,-85.99862 69.71566,-155.71428 155.71428,-155.71428 85.99862,0 155.71428,69.71566 155.71428,155.71428 z" sodipodi:ry="155.71428" sodipodi:rx="155.71428" sodipodi:cy="342.36218" sodipodi:cx="327.14285" id="path3589-5-6-2" style="fill:#000000;fill-opacity:1;stroke:#000000;stroke-width:21.08276749;stroke-miterlimit:4;stroke-opacity:1;stroke-dasharray:none" sodipodi:type="arc"/>
      <path transform="matrix(0.05845901,0,0,0.05723285,252.38092,347.91511)" d="m 482.85713,342.36218 c 0,85.99862 -69.71566,155.71428 -155.71428,155.71428 -85.99862,0 -155.71428,-69.71566 -155.71428,-155.71428 0,-85.99862 69.71566,-155.71428 155.71428,-155.71428 85.99862,0 155.71428,69.71566 155.71428,155.71428 z" sodipodi:ry="155.71428" sodipodi:rx="155.71428" sodipodi:cy="342.36218" sodipodi:cx="327.14285" id="path3589-3-1-2" style="fill:#000000;fill-opacity:1;stroke:#000000;stroke-width:12.30083942;stroke-miterlimit:4;stroke-opacity:1;stroke-dasharray:none" sodipodi:type="arc"/>
      <path transform="matrix(0.05521642,0,0,0.05405827,154.22905,415.18199)" d="m 482.85713,342.36218 c 0,85.99862 -69.71566,155.71428 -155.71428,155.71428 -85.99862,0 -155.71428,-69.71566 -155.71428,-155.71428 0,-85.99862 69.71566,-155.71428 155.71428,-155.71428 85.99862,0 155.71428,69.71566 155.71428,155.71428 z" sodipodi:ry="155.71428" sodipodi:rx="155.71428" sodipodi:cy="342.36218" sodipodi:cx="327.14285" id="path3589-3" style="fill:#000000;fill-opacity:1;stroke:#000000;stroke-width:12.30083942;stroke-miterlimit:4;stroke-opacity:1;stroke-dasharray:none" sodipodi:type="arc"/>
      <path id="path3813" d="m 262.41091,366.54294 c -14.69611,0.68514 -14.69611,0.85642 -14.69611,0.85642" style="fill:#000000;fill-opacity:1;stroke:#000000;stroke-width:0.98448658px;stroke-linecap:butt;stroke-linejoin:miter;stroke-opacity:1"/>
      <path id="path3815" d="m 270.98364,376.30613 c -5.77347,24.83618 -5.77347,24.83618 -5.77347,24.83618" style="fill:#000000;fill-opacity:1;stroke:#000000;stroke-width:0.98448658px;stroke-linecap:butt;stroke-linejoin:miter;stroke-opacity:1"/>
      <path id="path3819" d="m 205.36513,366.09731 c 10.02245,16.0211 10.02245,15.91022 10.02245,15.91022" style="fill:#000000;fill-opacity:1;stroke:#000000;stroke-width:0.98448658px;stroke-linecap:butt;stroke-linejoin:miter;stroke-opacity:1"/>
      <path transform="matrix(0.14769768,0,0,0.14459976,176.02725,353.25426)" d="m 482.85713,342.36218 c 0,85.99862 -69.71566,155.71428 -155.71428,155.71428 -85.99862,0 -155.71428,-69.71566 -155.71428,-155.71428 0,-85.99862 69.71566,-155.71428 155.71428,-155.71428 85.99862,0 155.71428,69.71566 155.71428,155.71428 z" sodipodi:ry="155.71428" sodipodi:rx="155.71428" sodipodi:cy="342.36218" sodipodi:cx="327.14285" id="path3589" style="fill:#000000;fill-opacity:1;stroke:#000000;stroke-width:6.44401932;stroke-miterlimit:4;stroke-opacity:1;stroke-dasharray:none" sodipodi:type="arc"/>
      <text transform="scale(1.0106553,0.98945705)" sodipodi:linespacing="125%" id="text3869" y="408.96286" x="202.79559" style="font-size:7.11466026px;font-style:normal;font-variant:normal;font-weight:normal;font-stretch:normal;text-align:start;line-height:125%;writing-mode:lr-tb;text-anchor:start;fill:#000000;fill-opacity:1;stroke:none;font-family:Arial Rounded MT Bold;-inkscape-font-specification:'Arial Rounded MT Bold,'" xml:space="preserve">
        <tspan y="408.96286" x="202.79559" id="tspan3871" sodipodi:role="line">INTRANET</tspan>
      </text>
    </g>
  </g>
  <metadata>
    <rdf:RDF>
      <cc:Work>
        <dc:format>image/svg+xml</dc:format>
        <dc:type rdf:resource="http://purl.org/dc/dcmitype/StillImage"/>
        <cc:license rdf:resource="http://creativecommons.org/licenses/publicdomain/"/>
        <dc:publisher>
          <cc:Agent rdf:about="http://openclipart.org/">
            <dc:title>Open Clip Art Library</dc:title>
          </cc:Agent>
        </dc:publisher>
        <dc:title>network</dc:title>
        <dc:date>2010-05-27T12:41:23</dc:date>
        <dc:description>network icon</dc:description>
        <dc:source>http://openclipart.org/detail/63295/network-by-fafil</dc:source>
        <dc:creator>
          <cc:Agent>
            <dc:title>fafil</dc:title>
          </cc:Agent>
        </dc:creator>
        <dc:subject>
          <rdf:Bag>
            <rdf:li>clip art</rdf:li>
            <rdf:li>clipart</rdf:li>
            <rdf:li>network</rdf:li>
          </rdf:Bag>
        </dc:subject>
      </cc:Work>
      <cc:License rdf:about="http://creativecommons.org/licenses/publicdomain/">
        <cc:permits rdf:resource="http://creativecommons.org/ns#Reproduction"/>
        <cc:permits rdf:resource="http://creativecommons.org/ns#Distribution"/>
        <cc:permits rdf:resource="http://creativecommons.org/ns#DerivativeWorks"/>
      </cc:License>
    </rdf:RDF>
  </metadata>
</svg>
