<?xml version="1.0" encoding="UTF-8" standalone="no"?>
<!-- Created with Inkscape (http://www.inkscape.org/) -->
<svg xmlns:dc="http://purl.org/dc/elements/1.1/" xmlns:cc="http://creativecommons.org/ns#" xmlns:rdf="http://www.w3.org/1999/02/22-rdf-syntax-ns#" xmlns:svg="http://www.w3.org/2000/svg" xmlns="http://www.w3.org/2000/svg" xmlns:sodipodi="http://sodipodi.sourceforge.net/DTD/sodipodi-0.dtd" xmlns:inkscape="http://www.inkscape.org/namespaces/inkscape" width="231.45692" height="345.43292" id="svg3815" version="1.1" inkscape:version="0.48.0 r9654" sodipodi:docname="note.svg">
  <title id="title3790">Note</title>
  <defs id="defs3817"/>
  <sodipodi:namedview id="base" pagecolor="#ffffff" bordercolor="#666666" borderopacity="1.0" inkscape:pageopacity="0.0" inkscape:pageshadow="2" inkscape:zoom="0.97890625" inkscape:cx="99.109638" inkscape:cy="42.025818" inkscape:document-units="px" inkscape:current-layer="layer1" showgrid="false" inkscape:window-width="1480" inkscape:window-height="914" inkscape:window-x="39" inkscape:window-y="21" inkscape:window-maximized="0" inkscape:showpageshadow="false" fit-margin-top="0" fit-margin-left="0" fit-margin-right="0" fit-margin-bottom="0"/>
  <metadata id="metadata3820">
    <rdf:RDF>
      <cc:Work rdf:about="">
        <dc:format>image/svg+xml</dc:format>
        <dc:type rdf:resource="http://purl.org/dc/dcmitype/StillImage"/>
        <dc:title>Note</dc:title>
        <dc:date>2011-01-10</dc:date>
        <dc:creator>
          <cc:Agent>
            <dc:title>lmproulx</dc:title>
          </cc:Agent>
        </dc:creator>
        <cc:license rdf:resource="http://creativecommons.org/licenses/publicdomain/"/>
      </cc:Work>
      <cc:License rdf:about="http://creativecommons.org/licenses/publicdomain/">
        <cc:permits rdf:resource="http://creativecommons.org/ns#Reproduction"/>
        <cc:permits rdf:resource="http://creativecommons.org/ns#Distribution"/>
        <cc:permits rdf:resource="http://creativecommons.org/ns#DerivativeWorks"/>
      </cc:License>
    </rdf:RDF>
  </metadata>
  <g inkscape:label="Calque 1" inkscape:groupmode="layer" id="layer1" transform="translate(-211.02205,-428.92992)">
    <g id="g3777">
      <path sodipodi:nodetypes="ccccsssccccsssccccsssccccsssccccsssccccsssccccsssccccsssccccsssccccsssccccccccc" inkscape:connector-curvature="0" id="path3883" d="m 223.27205,429.87573 c -5.76619,-0.44999 -10.45282,1.2665 -11.5,8.90625 0.19723,3.87688 1.10269,13.90699 1.10269,23.56028 l 11.04524,0 c 1.5098,-2.95965 4.26808,-4.93528 7.4328,-4.93528 4.78084,0 8.65427,4.50596 8.65427,10.08783 0,5.58188 -3.87343,10.11888 -8.65427,10.11888 -2.95379,0 -5.55878,-1.73991 -7.12093,-4.37657 l -11.77293,0 0.20791,17.44419 11.79891,-0.24831 c 1.49674,-3.02101 4.28062,-5.05944 7.48478,-5.05944 4.78084,0 8.65427,4.537 8.65427,10.11887 0,5.58188 -3.87343,10.08784 -8.65427,10.08784 -2.84529,0 -5.36112,-1.59177 -6.93901,-4.06618 l -12.44864,-0.0931 0.31187,20.6723 13.17632,-0.0931 c 1.56449,-2.61657 4.1545,-4.34553 7.09495,-4.34553 4.78084,0 8.68026,4.537 8.68026,10.11887 0,5.58188 -3.89942,10.08784 -8.68026,10.08784 -2.94045,0 -5.53046,-1.69793 -7.09495,-4.31449 l -13.35825,0.27935 0,18.90305 13.33226,-0.0621 c 1.42045,-3.31472 4.35411,-5.58711 7.74467,-5.58711 4.78084,0 8.65427,4.537 8.65427,10.11888 0,5.58187 -3.87343,10.08783 -8.65427,10.08783 -2.43108,0 -4.63895,-1.15776 -6.21133,-3.04187 l -14.81362,1.11742 0.20791,18.00291 10.85137,-0.27936 c 1.48232,-3.08386 4.31839,-5.15255 7.56275,-5.15255 4.78084,0 8.65427,4.537 8.65427,10.11887 0,5.58187 -3.87343,10.08783 -8.65427,10.08783 -3.14152,0 -5.88981,-1.94952 -7.40681,-4.8732 l -11.29318,0.49664 c -0.31482,8.3573 -0.0406,13.78299 -0.10396,19.5991 l 11.04524,0 c 1.50981,-2.95964 4.26808,-4.93527 7.4328,-4.93527 4.78085,0 8.65428,4.50596 8.65428,10.08783 0,5.58187 -3.87343,10.11887 -8.65428,10.11887 -2.95378,0 -5.55877,-1.73991 -7.12093,-4.37656 l -11.77293,0 0.20791,17.44419 11.79892,-0.24832 c 1.49673,-3.02101 4.28062,-5.05943 7.48478,-5.05943 4.78084,0 8.65427,4.537 8.65427,10.11887 0,5.58187 -3.87343,10.08783 -8.65427,10.08783 -2.84529,0 -5.36113,-1.59176 -6.93902,-4.06617 l -12.44863,-0.0931 0.31186,20.6723 13.17633,-0.0931 c 1.56449,-2.61656 4.1545,-4.34553 7.09494,-4.34553 4.78084,0 8.68026,4.537 8.68026,10.11888 0,5.58187 -3.89942,10.08783 -8.68026,10.08783 -2.94044,0 -5.53045,-1.69792 -7.09494,-4.31449 l -13.35825,0.27936 0,18.90305 13.33226,-0.0621 c 1.42044,-3.31472 4.3541,-5.58711 7.74466,-5.58711 4.78084,0 8.65427,4.537 8.65427,10.11887 0,5.58188 -3.87343,10.08784 -8.65427,10.08784 -2.43108,0 -4.63895,-1.15776 -6.21132,-3.04187 l -14.81362,1.11742 0.20791,18.0029 13.25429,-0.27935 c 1.48232,-3.08387 4.31838,-5.15256 7.56274,-5.15256 4.78084,0 8.65427,4.537 8.65427,10.11888 0,5.58187 -3.87343,10.08783 -8.65427,10.08783 -3.14152,0 -5.8898,-1.94953 -7.40681,-4.8732 l -13.6961,0.49663 0.0779,13.87465 c -0.29456,5.91336 1.86027,13.76428 9.40161,13.0431 l 206.84289,1.90839 c 6.05803,0.0395 12.94595,-0.15684 12.25,-11.46875 -1.24595,-112.74545 0.40779,-203.08683 -0.37495,-319.66968 -0.77926,-8.95321 -10.89588,-11.33205 -15.31572,-12.76184 -10.22741,-0.188 -154.89347,0.59383 -201.96464,0.16607 z" style="fill:#ffffff;fill-opacity:1;stroke:#000000;stroke-width:1.5;stroke-linecap:round;stroke-linejoin:round;stroke-miterlimit:4;stroke-opacity:1;stroke-dasharray:none;stroke-dashoffset:3.00300009"/>
      <path sodipodi:nodetypes="cc" inkscape:connector-curvature="0" id="path3903" d="m 239.72274,472.25274 200.08921,-2.16703" style="fill:#ffffff;fill-opacity:1;stroke:#ff0000;stroke-width:1;stroke-linecap:round;stroke-linejoin:round;stroke-miterlimit:4;stroke-opacity:1;stroke-dasharray:none;stroke-dashoffset:3.00300009"/>
      <path sodipodi:nodetypes="cc" inkscape:connector-curvature="0" id="path3927" d="M 239.42354,500.30021 438.7904,499.57787" style="fill:#000000;fill-opacity:1;stroke:#000000;stroke-width:1;stroke-linecap:round;stroke-linejoin:round;stroke-miterlimit:4;stroke-opacity:1;stroke-dasharray:none;stroke-dashoffset:3.00300009"/>
      <path sodipodi:nodetypes="cc" inkscape:connector-curvature="0" id="path3931" d="m 241.16743,532.20726 199.36686,-0.72234" style="fill:#000000;fill-opacity:1;stroke:#000000;stroke-width:1;stroke-linecap:round;stroke-linejoin:round;stroke-miterlimit:4;stroke-opacity:1;stroke-dasharray:none;stroke-dashoffset:3.00300009"/>
      <path style="fill:#000000;fill-opacity:1;stroke:#000000;stroke-width:1;stroke-linecap:round;stroke-linejoin:round;stroke-miterlimit:4;stroke-opacity:1;stroke-dasharray:none;stroke-dashoffset:3.00300009" d="m 241.88977,561.82335 199.36686,-0.72234" id="path3933" inkscape:connector-curvature="0" sodipodi:nodetypes="cc"/>
      <path sodipodi:nodetypes="cc" inkscape:connector-curvature="0" id="path3935" d="m 239.0004,592.16179 199.36686,-0.72234" style="fill:#000000;fill-opacity:1;stroke:#000000;stroke-width:1;stroke-linecap:round;stroke-linejoin:round;stroke-miterlimit:4;stroke-opacity:1;stroke-dasharray:none;stroke-dashoffset:3.00300009"/>
      <path style="fill:#000000;fill-opacity:1;stroke:#000000;stroke-width:1;stroke-linecap:round;stroke-linejoin:round;stroke-miterlimit:4;stroke-opacity:1;stroke-dasharray:none;stroke-dashoffset:3.00300009" d="m 239.0004,621.77788 199.36686,-0.72234" id="path3937" inkscape:connector-curvature="0" sodipodi:nodetypes="cc"/>
      <path sodipodi:nodetypes="cc" inkscape:connector-curvature="0" id="path3939" d="m 241.16743,649.94929 199.36686,-0.72234" style="fill:#000000;fill-opacity:1;stroke:#000000;stroke-width:1;stroke-linecap:round;stroke-linejoin:round;stroke-miterlimit:4;stroke-opacity:1;stroke-dasharray:none;stroke-dashoffset:3.00300009"/>
      <path style="fill:#000000;fill-opacity:1;stroke:#000000;stroke-width:1;stroke-linecap:round;stroke-linejoin:round;stroke-miterlimit:4;stroke-opacity:1;stroke-dasharray:none;stroke-dashoffset:3.00300009" d="m 242.61212,682.45476 199.36686,-0.72234" id="path3941" inkscape:connector-curvature="0" sodipodi:nodetypes="cc"/>
      <path sodipodi:nodetypes="cc" inkscape:connector-curvature="0" id="path3943" d="m 242.61212,712.7932 199.36686,-0.72234" style="fill:#000000;fill-opacity:1;stroke:#000000;stroke-width:1;stroke-linecap:round;stroke-linejoin:round;stroke-miterlimit:4;stroke-opacity:1;stroke-dasharray:none;stroke-dashoffset:3.00300009"/>
      <path style="fill:#000000;fill-opacity:1;stroke:#000000;stroke-width:1;stroke-linecap:round;stroke-linejoin:round;stroke-miterlimit:4;stroke-opacity:1;stroke-dasharray:none;stroke-dashoffset:3.00300009" d="M 241.88978,743.13164 441.25664,742.4093" id="path3945" inkscape:connector-curvature="0" sodipodi:nodetypes="cc"/>
    </g>
  </g>
</svg>