<?xml version="1.0" encoding="UTF-8" standalone="no"?>
<!-- Created with Inkscape (http://www.inkscape.org/) -->
<svg xmlns:dc="http://purl.org/dc/elements/1.1/" xmlns:cc="http://creativecommons.org/ns#" xmlns:rdf="http://www.w3.org/1999/02/22-rdf-syntax-ns#" xmlns:svg="http://www.w3.org/2000/svg" xmlns="http://www.w3.org/2000/svg" xmlns:sodipodi="http://sodipodi.sourceforge.net/DTD/sodipodi-0.dtd" xmlns:inkscape="http://www.inkscape.org/namespaces/inkscape" width="99.013245" height="122.5" id="svg5711" version="1.1" inkscape:version="0.48.3.1 r9886" sodipodi:docname="Nouveau document 3">
  <defs id="defs5713"/>
  <sodipodi:namedview id="base" pagecolor="#ffffff" bordercolor="#666666" borderopacity="1.0" inkscape:pageopacity="0.0" inkscape:pageshadow="2" inkscape:zoom="0.35" inkscape:cx="-344.06419" inkscape:cy="138.38782" inkscape:document-units="px" inkscape:current-layer="layer1" showgrid="false" fit-margin-top="0" fit-margin-left="0" fit-margin-right="0" fit-margin-bottom="0" inkscape:window-width="486" inkscape:window-height="415" inkscape:window-x="422" inkscape:window-y="160" inkscape:window-maximized="0"/>
  <metadata id="metadata5716">
    <rdf:RDF>
      <cc:Work rdf:about="">
        <dc:format>image/svg+xml</dc:format>
        <dc:type rdf:resource="http://purl.org/dc/dcmitype/StillImage"/>
        <dc:title/>
      </cc:Work>
    </rdf:RDF>
  </metadata>
  <g inkscape:label="Calque 1" inkscape:groupmode="layer" id="layer1" transform="translate(-719.06419,-548.25)">
    <path inkscape:connector-curvature="0" id="path366" d="m 767.4367,599.50504 c 35,0 45,10 48.3252,30.10742 3.32032,20.10743 1.67475,39.89258 -48.3252,39.89258 -50,0 -50,-20 -45,-40 5,-20 10,-30 45,-30" style="fill:#2e5e99;fill-opacity:1;fill-rule:evenodd;stroke:#1e4a85;stroke-width:2.5;stroke-linecap:butt;stroke-linejoin:miter;stroke-miterlimit:10;stroke-opacity:1"/>
    <path inkscape:connector-curvature="0" id="path368" d="m 757.4367,599.50504 25,0 -15,55 z m 0,0" style="fill:#ffffff;fill-opacity:1;fill-rule:evenodd;stroke:#1e4a85;stroke-width:2.5;stroke-linecap:butt;stroke-linejoin:miter;stroke-miterlimit:10;stroke-opacity:1"/>
    <path inkscape:connector-curvature="0" id="path370" d="m 752.4367,594.50504 10,10 -5,5 z m 0,0" style="fill:#6161ff;fill-opacity:1;fill-rule:evenodd;stroke:#1e4a85;stroke-width:2.5;stroke-linecap:butt;stroke-linejoin:miter;stroke-miterlimit:10;stroke-opacity:1"/>
    <path inkscape:connector-curvature="0" id="path372" d="m 777.4367,604.50504 10,-10 -5,15 z m 0,0" style="fill:#6161ff;fill-opacity:1;fill-rule:evenodd;stroke:#1e4a85;stroke-width:2.5;stroke-linecap:butt;stroke-linejoin:miter;stroke-miterlimit:10;stroke-opacity:1"/>
    <path inkscape:connector-curvature="0" id="path374" d="m 742.4367,629.50504 0,0 c -5.3418,9.0674 -7.94433,19.4873 -7.5,30" style="fill:none;stroke:#1e4a85;stroke-width:1.25;stroke-linecap:butt;stroke-linejoin:miter;stroke-miterlimit:10;stroke-opacity:1"/>
    <path inkscape:connector-curvature="0" id="path376" d="m 799.9367,659.50504 0,0 c 0.9375,-10.26368 -0.786,-20.5957 -5,-30" style="fill:none;stroke:#1e4a85;stroke-width:1.25;stroke-linecap:butt;stroke-linejoin:miter;stroke-miterlimit:10;stroke-opacity:1"/>
    <path inkscape:connector-curvature="0" id="path378" d="m 797.4367,577.00504 c 0,15.18555 -12.31445,27.5 -27.5,27.5 -15.19043,0 -27.5,-12.31445 -27.5,-27.5 0,-15.19043 12.30957,-27.5 27.5,-27.5 15.18555,0 27.5,12.30957 27.5,27.5" style="fill:#ffd9b5;fill-opacity:1;fill-rule:evenodd;stroke:#ffb068;stroke-width:2.5;stroke-linecap:butt;stroke-linejoin:miter;stroke-miterlimit:10;stroke-opacity:1"/>
  </g>
</svg>