<?xml version="1.0" encoding="UTF-8" standalone="no"?>
<!-- Creator: CorelDRAW -->

<svg
   xmlns:dc="http://purl.org/dc/elements/1.1/"
   xmlns:cc="http://creativecommons.org/ns#"
   xmlns:rdf="http://www.w3.org/1999/02/22-rdf-syntax-ns#"
   xmlns:svg="http://www.w3.org/2000/svg"
   xmlns="http://www.w3.org/2000/svg"
   xmlns:sodipodi="http://sodipodi.sourceforge.net/DTD/sodipodi-0.dtd"
   xmlns:inkscape="http://www.inkscape.org/namespaces/inkscape"
   xml:space="preserve"
   width="160.054mm"
   height="70.73mm"
   style="shape-rendering:geometricPrecision; text-rendering:geometricPrecision; image-rendering:optimizeQuality; fill-rule:evenodd; clip-rule:evenodd"
   viewBox="0 0 160.054 70.73"
   id="svg3054"
   version="1.1"
   inkscape:version="0.48.3.1 r9886"
   sodipodi:docname="GitHub_logo.svg"><metadata
   id="metadata3086"><rdf:RDF><cc:Work
       rdf:about=""><dc:format>image/svg+xml</dc:format><dc:type
         rdf:resource="http://purl.org/dc/dcmitype/StillImage" /></cc:Work></rdf:RDF></metadata><sodipodi:namedview
   pagecolor="#ffffff"
   bordercolor="#666666"
   borderopacity="1"
   objecttolerance="10"
   gridtolerance="10"
   guidetolerance="10"
   inkscape:pageopacity="0"
   inkscape:pageshadow="2"
   inkscape:window-width="1918"
   inkscape:window-height="1179"
   id="namedview3084"
   showgrid="false"
   inkscape:zoom="3.073421"
   inkscape:cx="344.33568"
   inkscape:cy="125.30906"
   inkscape:window-x="0"
   inkscape:window-y="19"
   inkscape:window-maximized="0"
   inkscape:current-layer="svg3054" />
 <defs
   id="defs3056">
  <style
   type="text/css"
   id="style3058">
   
    .fil0 {fill:black;fill-rule:nonzero}
   
  </style>
 
  
  
 
   
   
   
   
   
   
   
   
  </defs>
 <path
   id="_153577136"
   class="fil0"
   d="m 20.5068,19.0368 c 2.4762,0 5.3392,-0.619 8.5897,-1.8572 l 0,7.9705 c -0.7224,0.2578 -1.754,0.5416 -3.0955,0.8514 0.4126,1.1864 0.6191,2.2956 0.6191,3.3274 0,3.3018 -0.993,6.1776 -2.9792,8.6282 -1.9863,2.4504 -4.5531,3.9084 -7.7001,4.3722 -2.0632,0.3097 -3.0951,1.419 -3.0951,3.3277 0,0.6707 0.3353,1.3414 1.006,2.0118 0.877,0.9805 2.1666,1.5998 3.869,1.8576 7.3777,1.1347 11.066,4.2044 11.066,9.2085 0,7.9969 -4.7719,11.9951 -14.3159,11.9951 -3.9209,0 -7.1455,-0.6964 -9.673,-2.0895 -3.1989,-1.754 -4.7979,-4.5141 -4.7979,-8.2805 0,-4.3334 2.3989,-7.2997 7.1964,-8.8988 l 0,-0.1548 C 5.4425,50.2231 4.5656,48.5722 4.5656,46.3536 c 0,-2.8891 0.8254,-4.695 2.4763,-5.4166 l 0,-0.155 C 5.391,40.2146 3.9205,38.9244 2.6308,36.9126 1.1863,34.746 0.4641,32.4244 0.4641,29.948 c 0,-3.7146 1.3157,-6.8097 3.9465,-9.2861 2.5281,-2.3216 5.5461,-3.4823 9.0542,-3.4823 2.5279,0 4.875,0.6191 7.042,1.8572 z m 0.3094,40.7043 0,0 c 0,-2.6312 -2.1666,-3.9466 -6.5004,-3.9466 -4.1788,0 -6.2681,1.3671 -6.2681,4.1015 0,2.6823 2.2701,4.0237 6.8098,4.0237 3.9725,0 5.9587,-1.3925 5.9587,-4.1786 z M 8.8991,30.0253 l 0,0 c 0,3.5599 1.6252,5.3398 4.8751,5.3398 3.147,0 4.7204,-1.8059 4.7204,-5.4171 0,-1.4961 -0.3611,-2.7857 -1.0833,-3.8694 -0.877,-1.1864 -2.0893,-1.7799 -3.6371,-1.7799 -3.2499,0 -4.8751,1.9091 -4.8751,5.7266 z"
   inkscape:connector-curvature="0"
   style="fill:#000000;fill-rule:nonzero" /><path
   id="_153577064"
   class="fil0"
   d="m 37.3021,11.5302 c -1.4961,0 -2.7727,-0.5672 -3.8305,-1.7024 -1.0575,-1.1349 -1.5864,-2.476 -1.5864,-4.0238 0,-1.5994 0.5289,-2.9663 1.5864,-4.1015 C 34.5294,0.5676 35.806,0 37.3021,0 c 1.4446,0 2.6957,0.5676 3.7532,1.7025 1.0577,1.1352 1.5864,2.5021 1.5864,4.1015 0,1.5478 -0.5287,2.8889 -1.5864,4.0238 -1.0575,1.1352 -2.3086,1.7024 -3.7532,1.7024 z"
   inkscape:connector-curvature="0"
   style="fill:#000000;fill-rule:nonzero" /><path
   id="_153576992"
   class="fil0"
   d="m 32.8914,51.9251 c 0.1031,-1.0314 0.1544,-2.7853 0.1544,-5.2619 l 0,-24.067 c 0,-2.4244 -0.0513,-4.1013 -0.1544,-5.0298 l 8.7445,0 c -0.1034,0.9803 -0.155,2.6054 -0.155,4.8754 l 0,23.7569 c 0,2.6313 0.0516,4.5401 0.155,5.7264 l -8.7445,0 z"
   inkscape:connector-curvature="0"
   style="fill:#000000;fill-rule:nonzero" /><path
   id="_153576920"
   class="fil0"
   d="m 57.6485,17.5664 6.7322,0 0,7.5062 c -0.2578,0 -0.735,-0.0256 -1.4316,-0.0773 -0.6964,-0.0515 -1.3541,-0.0775 -1.9733,-0.0775 l -3.3273,0 0,14.3935 c 0,3.4567 1.1348,5.1848 3.4048,5.1848 1.5994,0 3.0436,-0.4381 4.3338,-1.3154 l 0,7.7382 c -1.9089,1.0322 -4.2048,1.5479 -6.8876,1.5479 -3.766,0 -6.371,-1.3412 -7.8156,-4.0237 -1.0833,-2.0123 -1.6253,-5.1846 -1.6253,-9.5187 l 0,-13.8518 0.0775,0 0,-0.1548 -1.1608,-0.0771 c -0.6707,0 -1.5477,0.0771 -2.631,0.2319 l 0,-7.5062 3.7918,0 0,-3.018 c 0,-1.4446 -0.0775,-2.6054 -0.2321,-3.4824 l 8.9765,0 c -0.1546,0.9803 -0.232,2.0895 -0.232,3.3274 l 0,3.173 z"
   inkscape:connector-curvature="0"
   style="fill:#000000;fill-rule:nonzero" /><path
   id="_153576848"
   class="fil0"
   d="m 84.8301,17.3342 c -2.2181,0 -4.5397,0.7739 -6.9645,2.3213 l 0,-13.542 c 0,-2.9405 0.0517,-4.8752 0.1547,-5.8037 l -8.8219,0 c 0.155,0.8254 0.2323,2.7598 0.2323,5.8037 l 0,40.9366 c 0,2.3727 -0.0773,3.9984 -0.2323,4.875 l 8.9767,0 c 0,-0.1548 -0.0513,-0.7865 -0.1548,-1.8957 -0.103,-1.1093 -0.1547,-2.1027 -0.1547,-2.9793 l 0,-19.0368 c 1.8057,-1.7024 3.5596,-2.5534 5.2621,-2.5534 1.9606,0 3.4566,0.9798 4.4885,2.9401 0.7736,1.548 1.1608,3.4827 1.1608,5.8043 l -0.0775,10.4465 c 0,1.7546 -0.1288,4.1792 -0.3868,7.2743 l 9.3632,0 c -0.206,-1.2894 -0.3094,-3.6627 -0.3094,-7.1195 l 0,-10.6013 c 0,-4.4885 -1.0058,-8.3062 -3.018,-11.4531 -2.2701,-3.6114 -5.4427,-5.417 -9.5184,-5.417 z"
   inkscape:connector-curvature="0"
   style="fill:#000000;fill-rule:nonzero" /><path
   id="_153576776"
   class="fil0"
   d="m 112.227,52.2349 c -4.0758,0 -7.0936,-1.8059 -9.0542,-5.4175 -1.5475,-2.9401 -2.3214,-6.7838 -2.3214,-11.5298 l 0,-10.6017 c 0,-3.5083 -0.1031,-5.8814 -0.3096,-7.1195 l 9.2863,0 c -0.155,1.1349 -0.2579,3.5597 -0.3098,7.2743 l -0.0771,10.4469 c 0,2.9403 0.3354,5.0558 1.0058,6.3452 0.7742,1.5998 2.1928,2.3993 4.2563,2.3993 1.4446,0 3.0698,-0.8514 4.8754,-2.5535 l 0,-19.0368 c 0,-0.8773 -0.0519,-1.8833 -0.1549,-3.0182 -0.1037,-1.1352 -0.1548,-1.7539 -0.1548,-1.8572 l 8.9763,0 c -0.1028,0.877 -0.1547,2.502 -0.1547,4.8754 l 0,23.6798 c 0,3.0434 0.0519,4.9781 0.1547,5.8035 l -8.4347,0 0,-2.7853 c -2.3733,2.0629 -4.901,3.0951 -7.5836,3.0951 z"
   inkscape:connector-curvature="0"
   style="fill:#000000;fill-rule:nonzero" /><path
   id="_153576704"
   class="fil0"
   d="m 147.053,52.1572 c -2.7854,0 -5.107,-1.0058 -6.9646,-3.0174 l 0,2.7853 -8.2028,0 c 0.155,-0.8766 0.2327,-2.5023 0.2327,-4.875 l 0,-40.9366 c 0,-3.0439 -0.0777,-4.9783 -0.2327,-5.8037 l 8.8221,0 c -0.1036,0.9285 -0.1547,2.8632 -0.1547,5.8037 l 0,13.4649 c 2.3727,-1.4959 4.6948,-2.2442 6.9645,-2.2442 4.0755,0 7.2745,1.8056 9.5959,5.417 1.9601,3.1469 2.9403,6.9646 2.9403,11.4531 0,4.5913 -1.0316,8.5895 -3.0951,11.9944 -2.4764,3.9725 -5.7782,5.9585 -9.9056,5.9585 z m -1.1605,-26.6973 0,0 c -1.7028,0 -3.4825,0.851 -5.3395,2.5534 l 0,13.3876 c 1.6509,1.599 3.2758,2.3993 4.875,2.3993 2.0118,0 3.5339,-1.1093 4.5659,-3.328 0.8256,-1.7538 1.2382,-3.8434 1.2382,-6.2679 0,-5.8297 -1.7799,-8.7444 -5.3396,-8.7444 z"
   inkscape:connector-curvature="0"
   style="fill:#000000;fill-rule:nonzero" />
</svg>