<?xml version="1.0" encoding="ISO-8859-1"?>
<!DOCTYPE svg PUBLIC "-//W3C//DTD SVG 1.0//EN" "http://www.w3.org/TR/2001/REC-SVG-20010904/DTD/svg10.dtd">
<!-- Creator: CorelDRAW -->
<svg xmlns="http://www.w3.org/2000/svg" xmlns:odm="http://product.corel.com/CGS/11/cddns/" xml:space="preserve" width="299px" height="97px" style="shape-rendering:geometricPrecision; text-rendering:geometricPrecision; image-rendering:optimizeQuality; fill-rule:evenodd" viewBox="0 0 300 98">
 <defs>
  <style type="text/css">
   <![CDATA[
    .fil0 {fill:none}
    .fil1 {fill:#0C1C8C}
   ]]>
  </style>
 </defs>
 <g id="Layer 1">
  <g>
   <path class="fil0" d="M305 102l-305 0 0 -109 305 0 0 109z"/>
   <path class="fil1" d="M102 80l0 -62 17 0 0 62 -17 0z"/>
   <path class="fil1" d="M128 80l0 -62 48 0 0 12 -30 0 0 13 27 0 0 12 -27 0 0 13 30 0 0 12 -48 0z"/>
   <path class="fil1" d="M185 80l0 -62 48 0 0 12 -30 0 0 13 28 0 0 12 -28 0 0 13 30 0 0 12 -48 0z"/>
   <path class="fil1" d="M243 80l0 -62 47 0 0 12 -30 0 0 13 28 0 0 12 -28 0 0 13 30 0 0 12 -47 0z"/>
   <path class="fil1" d="M54 12c3,3 6,7 8,10l7 7c7,6 13,11 20,16l0 0c1,1 2,2 2,3 0,2 -3,3 -4,4 -14,10 -26,22 -36,36l-1 1c0,0 -1,0 -2,0 -1,-1 -1,-2 -2,-2 -2,-4 -5,-7 -7,-10 -2,-1 -3,-3 -4,-4 -8,-9 -17,-17 -26,-23 -1,-1 -2,-2 -1,-3 0,-1 1,-2 2,-2 12,-8 23,-19 32,-30l5 -8c1,0 2,-1 3,0 0,0 1,0 1,1l3 4zm-8 6c-2,2 -5,4 -7,6 -1,0 -1,1 -1,1 -6,5 -12,11 -16,17 -2,2 -3,3 -4,5 0,2 0,3 1,3 4,6 9,12 15,17 4,4 9,9 14,11 2,1 4,0 5,-1 7,-5 14,-11 20,-18 2,-3 5,-6 7,-10 0,-2 0,-3 -1,-4 -5,-7 -10,-13 -17,-19l0 0c-2,-2 -5,-4 -7,-6 -2,-2 -6,-4 -9,-2z"/>
   <path class="fil1" d="M55 22c8,7 16,15 22,24 1,1 2,3 1,4 -2,2 -4,5 -6,7l0 0c-5,6 -10,11 -16,16 -3,1 -5,5 -9,3 -8,-6 -16,-14 -23,-22 -1,-1 -3,-3 -3,-5 -1,-2 1,-4 2,-6 7,-9 16,-17 24,-23 3,-2 6,1 8,2zm-6 3l-1 3 -3 11c0,0 2,0 3,0l0 0 -1 13 0 0c1,0 3,0 4,0l0 -1 0 -12 0 0 3 0c-2,-5 -3,-9 -5,-14l0 0zm-13 18c-2,1 -5,2 -5,5 1,2 2,3 4,4 7,3 17,3 26,1 1,-1 4,-2 5,-5 0,-2 -3,-3 -4,-4l0 0c0,0 1,0 2,0l0 0c-3,-1 -6,-2 -8,-2 0,1 1,2 1,3 1,0 2,0 2,0 2,0 4,1 4,3 0,1 -2,2 -3,3 -6,2 -12,2 -19,1 -1,-1 -4,-2 -4,-4 1,-3 4,-3 7,-4 -1,-1 -3,-2 -4,-3 -1,1 -3,1 -4,2zm11 12c0,4 0,9 -1,13 2,0 4,0 6,0l-1 -12 0 -1c-1,0 -2,0 -4,0z"/>
   <path class="fil1" d="M66 82l0 -1 1 0c0,0 1,0 1,0 0,1 0,1 -1,1l-1 0zm0 1l1 0 1 2 1 0 -1 -2c0,0 1,-1 1,-2 0,-1 -1,-1 -2,-1l-2 0 0 5 1 0 0 -2zm5 -1c0,-2 -2,-4 -4,-4 -2,0 -4,2 -4,4 0,3 2,5 4,5 2,0 4,-2 4,-5zm-1 0c0,2 -1,4 -3,4l0 0c-2,0 -3,-2 -3,-4 0,-2 1,-3 3,-3 2,0 3,1 3,3z"/>
  </g>
 </g>
</svg>