<?xml version="1.0" encoding="UTF-8" standalone="no"?>
<!-- Created with Inkscape (http://www.inkscape.org/) -->
<svg xmlns:dc="http://purl.org/dc/elements/1.1/" xmlns:cc="http://creativecommons.org/ns#" xmlns:rdf="http://www.w3.org/1999/02/22-rdf-syntax-ns#" xmlns:svg="http://www.w3.org/2000/svg" xmlns="http://www.w3.org/2000/svg" xmlns:sodipodi="http://sodipodi.sourceforge.net/DTD/sodipodi-0.dtd" xmlns:inkscape="http://www.inkscape.org/namespaces/inkscape" id="svg2" sodipodi:version="0.32" inkscape:version="0.48.1 r9760" width="480" height="800" version="1.0" sodipodi:docname="replicant_logo_white.svg" inkscape:output_extension="org.inkscape.output.svg.inkscape" inkscape:export-filename="/home/paulk/replicant_logo_alpha.png" inkscape:export-xdpi="90" inkscape:export-ydpi="90">
  <metadata id="metadata7">
    <rdf:RDF>
      <cc:Work rdf:about="">
        <dc:format>image/svg+xml</dc:format>
        <dc:type rdf:resource="http://purl.org/dc/dcmitype/StillImage"/>
        <dc:title/>
      </cc:Work>
    </rdf:RDF>
  </metadata>
  <defs id="defs5">
    <inkscape:perspective sodipodi:type="inkscape:persp3d" inkscape:vp_x="0 : 526.18109 : 1" inkscape:vp_y="0 : 1000 : 0" inkscape:vp_z="744.09448 : 526.18109 : 1" inkscape:persp3d-origin="372.04724 : 350.78739 : 1" id="perspective9"/>
  </defs>
  <sodipodi:namedview inkscape:window-height="1000" inkscape:window-width="1680" inkscape:pageshadow="2" inkscape:pageopacity="0.0" guidetolerance="10.0" gridtolerance="10.0" objecttolerance="10.0" borderopacity="1.0" bordercolor="#666666" pagecolor="#ffffff" id="base" showgrid="false" inkscape:zoom="0.74439562" inkscape:cx="161.63724" inkscape:cy="311.85642" inkscape:window-x="0" inkscape:window-y="25" inkscape:current-layer="svg2" showguides="true" inkscape:guide-bbox="true" inkscape:window-maximized="1">
    <inkscape:grid type="xygrid" id="grid2406" visible="true" enabled="true" empspacing="5" snapvisiblegridlinesonly="true"/>
  </sodipodi:namedview>
  <g id="g3107">
    <path sodipodi:nodetypes="sscccscccsccs" inkscape:connector-curvature="0" id="path2410" d="m 217.51024,55.372568 c -1.8483,0.130379 -3.62991,1.367814 -4.5625,5 -1.91347,7.452478 5.95671,35.360348 9.75,48.031252 -6.36094,0.42622 -12.4315,1.07677 -18.21875,1.96875 L 166.94774,81.653818 c 1e-5,0 -11.11874,-0.95401 -7.4375,8.34375 2.03228,5.132938 14.44389,15.859562 25.21875,24.531252 -102.8246,27.91387 -99.72036,133.70992 -99.1875,133.8125 l 312.21825,0 c -2e-5,0 -0.001,-140.5 -158.437,-140.5 -0.20978,0 -0.41579,-4.9e-4 -0.625,0 l -14.8125,-49.812502 c -1e-5,-2e-6 -3.29449,-2.873548 -6.375,-2.65625 z" style="fill:#ff0000;fill-opacity:1;fill-rule:evenodd;stroke:#ffffff;stroke-width:4;stroke-linecap:butt;stroke-linejoin:miter;stroke-miterlimit:4;stroke-opacity:1;stroke-dasharray:none"/>
    <path inkscape:connector-curvature="0" id="path2422" d="m 332.2614,143.25688 c 0,0 14.79271,0 14.79271,15.00507 0,15.00507 -14.79271,15.00507 -14.79271,15.00507 0,0 -14.79272,0 -14.79272,-15.00507 0,-15.00507 15.58038,-14.50676 14.79272,-15.00507 z" style="fill:#ffffff;fill-opacity:1;fill-rule:evenodd;stroke:#ffffff;stroke-width:1.48985171px;stroke-linecap:butt;stroke-linejoin:miter;stroke-opacity:1"/>
    <path inkscape:connector-curvature="0" id="path2473" d="m 255.46363,180.95632 c 60,60 140,60 140,60 l 0,0" style="fill:none;stroke:#ffffff;stroke-width:4;stroke-linecap:butt;stroke-linejoin:miter;stroke-miterlimit:4;stroke-opacity:1;stroke-dasharray:none"/>
    <text sodipodi:linespacing="100%" id="text4289" y="731.65747" x="50.035034" style="font-size:144px;font-style:normal;font-variant:normal;font-weight:bold;font-stretch:normal;text-align:start;line-height:100%;writing-mode:lr-tb;text-anchor:start;fill:#000000;fill-opacity:1;stroke:none;font-family:Cortoba;-inkscape-font-specification:Cortoba Bold" xml:space="preserve"><tspan style="font-size:72px;font-style:normal;font-variant:normal;font-weight:bold;font-stretch:normal;fill:#000000;font-family:UnDotum;-inkscape-font-specification:UnDotum Bold" y="731.65747" x="50.035034" id="tspan4291" sodipodi:role="line">R</tspan></text>
    <path sodipodi:nodetypes="ccsccsc" inkscape:connector-curvature="0" id="path4295" d="m 60.2857,391.13541 157.62126,-63.68312 c 0,0 24.06945,-20.51003 12.83125,-48.32555 -11.2382,-27.81553 -42.79947,-24.66042 -42.79947,-24.66042 L 30.31719,316.96071 c 0,0 -24.06947,20.51003 -12.83128,48.32555 11.23821,27.81552 43.62678,26.38277 42.79979,25.84915 z" style="fill:#ff0000;fill-opacity:1;fill-rule:evenodd;stroke:#ffffff;stroke-width:4;stroke-linecap:butt;stroke-linejoin:miter;stroke-miterlimit:4;stroke-opacity:1;stroke-dasharray:none"/>
    <text sodipodi:linespacing="100%" id="text4299" y="731.6626" x="95.623062" style="font-size:20px;font-style:normal;font-variant:normal;font-weight:normal;font-stretch:normal;text-align:start;line-height:100%;writing-mode:lr-tb;text-anchor:start;fill:#000000;fill-opacity:1;stroke:none;font-family:Bitstream Vera Sans;-inkscape-font-specification:Bitstream Vera Sans" xml:space="preserve"><tspan style="font-size:72px;font-weight:bold;fill:#000000;-inkscape-font-specification:Bitstream Vera Sans Bold" y="731.6626" x="95.623062" id="tspan4301" sodipodi:role="line">eplicant</tspan></text>
    <path inkscape:connector-curvature="0" id="path2449" d="m 217.85375,429.28044 -117.45,122.90442 c 0,0 -13.49681,28.59784 8.19223,49.32432 21.689,20.72647 49.64515,5.94627 49.64515,5.94627 l 117.45,-122.9044 c 0,0 13.49681,-28.59785 -8.19221,-49.32432 -21.68902,-20.72648 -50.61848,-6.0923 -49.64517,-5.94629 z" style="fill:#ff0000;fill-opacity:1;fill-rule:evenodd;stroke:#ffffff;stroke-width:4;stroke-linecap:butt;stroke-linejoin:miter;stroke-miterlimit:4;stroke-opacity:1;stroke-dasharray:none"/>
    <path inkscape:connector-curvature="0" id="path2491" d="m 92.79149,551.24757 c -11.04569,0 -20,8.95431 -20,20 0,11.04569 8.95431,20 20,20 0,11.04569 8.95431,20 20,20 0,11.04569 8.95431,20 20,20 11.04569,0 20,-8.95431 20,-20 0,-11.04569 -8.95431,-20 -20,-20 0,-11.04569 -8.95431,-20 -20,-20 0,-11.04569 -8.95431,-20 -20,-20 z" style="fill:#000000;fill-opacity:1;stroke:#ffffff;stroke-width:4;stroke-miterlimit:4;stroke-opacity:1;stroke-dasharray:none"/>
    <path sodipodi:nodetypes="csccccscc" inkscape:connector-curvature="0" id="path2441" d="m 85.02974,253.44232 c -0.0517,0.4163 -3.6e-4,201.12458 -3.7e-4,241.12456 0,40 59.99999,40.00002 60,40 0,0 99.99999,2e-5 100,0 l 0,-1.15625 c 19.88699,10e-6 93.40625,0 93.40625,0 -10e-6,2e-5 59.32412,-0.004 59.32412,-40 3e-5,-39.99559 0.0549,-239.5525 0,-239.96875 -107.89867,3.9e-4 -214.93649,4.4e-4 -312.73,4.4e-4 z" style="fill:#ff0000;fill-opacity:1;fill-rule:evenodd;stroke:#ffffff;stroke-width:4;stroke-linecap:butt;stroke-linejoin:miter;stroke-miterlimit:4;stroke-opacity:1;stroke-dasharray:none"/>
    <path inkscape:connector-curvature="0" id="path2447" d="m 239.00525,442.13979 0,170 c 0,0 10,30 40,30 30,0 40,-30 40,-30 l 0,-170 c 0,0 -10,-30 -40,-30 -30,0 -40.80455,30.56688 -40,30 z" style="fill:#ff0000;fill-opacity:1;fill-rule:evenodd;stroke:#ffffff;stroke-width:4;stroke-linecap:butt;stroke-linejoin:miter;stroke-miterlimit:4;stroke-opacity:1;stroke-dasharray:none"/>
    <path inkscape:connector-curvature="0" id="path2493" d="m 248.91649,616.43507 c -11.04569,0 -20,8.95431 -20,20 0,11.04569 8.95431,20 20,20 6.55051,0 12.32068,-3.16429 15.96875,-8.03125 3.64736,4.87555 9.47397,8.03125 16.03125,8.03125 5.98339,0 11.30359,-2.6484 14.96875,-6.8125 3.66547,4.17312 9.04041,6.8125 15.03125,6.8125 11.04569,0 20,-8.95431 20,-20 0,-11.04569 -8.95431,-20 -20,-20 -5.98818,0 -11.36589,2.6426 -15.03125,6.8125 -3.66504,-4.16066 -8.98821,-6.8125 -14.96875,-6.8125 -6.55728,0 -12.38389,3.1557 -16.03125,8.03125 -3.64807,-4.86696 -9.41824,-8.03125 -15.96875,-8.03125 z" style="fill:#000000;fill-opacity:1;stroke:#ffffff;stroke-width:4;stroke-miterlimit:4;stroke-opacity:1;stroke-dasharray:none"/>
    <path inkscape:connector-curvature="0" id="path2443" d="m 262.09305,345.75478 157.62126,63.68312 c 0,0 31.56158,1.96637 42.79978,-25.84915 11.2382,-27.81552 -12.83125,-48.32556 -12.83125,-48.32556 L 292.06159,271.58008 c 0,0 -31.5616,-1.96637 -42.7998,25.84915 -11.23819,27.81552 13.05547,49.28388 12.83126,48.32555 z" style="fill:#ff0000;fill-opacity:1;fill-rule:evenodd;stroke:#ffffff;stroke-width:4;stroke-linecap:butt;stroke-linejoin:miter;stroke-miterlimit:4;stroke-opacity:1;stroke-dasharray:none"/>
    <path transform="matrix(0.5263672,0,0,0.5263672,342.09411,391.32269)" d="m -467.35435,342.14471 a 9.4990721,9.4990721 0 1 1 -18.99815,0 9.4990721,9.4990721 0 1 1 18.99815,0 z" sodipodi:ry="9.4990721" sodipodi:rx="9.4990721" sodipodi:cy="342.14471" sodipodi:cx="-476.85342" id="path3275" style="fill:#ffffff;fill-opacity:1;stroke:none" sodipodi:type="arc"/>
    <path transform="matrix(0.5263672,0,0,0.5263672,363.7214,413.09056)" d="m -467.35435,342.14471 a 9.4990721,9.4990721 0 1 1 -18.99815,0 9.4990721,9.4990721 0 1 1 18.99815,0 z" sodipodi:ry="9.4990721" sodipodi:rx="9.4990721" sodipodi:cy="342.14471" sodipodi:cx="-476.85342" id="path3282" style="fill:#ffffff;fill-opacity:1;stroke:none" sodipodi:type="arc"/>
    <path transform="matrix(0.5263672,0,0,0.5263672,498.30767,455.08685)" d="m -467.35435,342.14471 a 9.4990721,9.4990721 0 1 1 -18.99815,0 9.4990721,9.4990721 0 1 1 18.99815,0 z" sodipodi:ry="9.4990721" sodipodi:rx="9.4990721" sodipodi:cy="342.14471" sodipodi:cx="-476.85342" id="path3298" style="fill:#ffffff;fill-opacity:1;stroke:none" sodipodi:type="arc"/>
    <path transform="matrix(0.5263672,0,0,0.5263672,532.70469,456.78629)" d="m -467.35435,342.14471 a 9.4990721,9.4990721 0 1 1 -18.99815,0 9.4990721,9.4990721 0 1 1 18.99815,0 z" sodipodi:ry="9.4990721" sodipodi:rx="9.4990721" sodipodi:cy="342.14471" sodipodi:cx="-476.85342" id="path3300" style="fill:#ffffff;fill-opacity:1;stroke:none" sodipodi:type="arc"/>
    <path transform="matrix(0.5263672,0,0,0.5263672,560.70098,454.88648)" d="m -467.35435,342.14471 a 9.4990721,9.4990721 0 1 1 -18.99815,0 9.4990721,9.4990721 0 1 1 18.99815,0 z" sodipodi:ry="9.4990721" sodipodi:rx="9.4990721" sodipodi:cy="342.14471" sodipodi:cx="-476.85342" id="path3302" style="fill:#ffffff;fill-opacity:1;stroke:none" sodipodi:type="arc"/>
    <path transform="matrix(0.5263672,0,0,0.5263672,386.51917,432.08871)" d="m -467.35435,342.14471 a 9.4990721,9.4990721 0 1 1 -18.99815,0 9.4990721,9.4990721 0 1 1 18.99815,0 z" sodipodi:ry="9.4990721" sodipodi:rx="9.4990721" sodipodi:cy="342.14471" sodipodi:cx="-476.85342" id="path3284" style="fill:#ffffff;fill-opacity:1;stroke:none" sodipodi:type="arc"/>
  </g>
</svg>