<?xml version="1.0" encoding="UTF-8" standalone="no"?>
<!-- Created with Inkscape (http://www.inkscape.org/) -->
<svg xmlns:dc="http://purl.org/dc/elements/1.1/" xmlns:cc="http://creativecommons.org/ns#" xmlns:rdf="http://www.w3.org/1999/02/22-rdf-syntax-ns#" xmlns:svg="http://www.w3.org/2000/svg" xmlns="http://www.w3.org/2000/svg" version="1.1" width="300" height="470.45767" id="svg3781">
  <defs id="defs3783">
    <clipPath id="clipPath374">
      <path d="m 322.463,65.495 c 0.002,-3.264 0.202,-5.721 0.31,-10.272 l -32.207,-14.989 0,23.209 32.245,15.042 c -0.039,-5.901 -0.363,-9.391 -0.348,-12.99" id="path376"/>
    </clipPath>
    <clipPath id="clipPath736">
      <path d="m 290.401,78.485 32.818,0 0,-54.675 -32.818,0 L 290.401,78.485 Z" id="path738"/>
    </clipPath>
    <clipPath id="clipPath764">
      <path d="m 290.401,78.485 32.818,0 0,-54.675 -32.818,0 L 290.401,78.485 Z" id="path766"/>
    </clipPath>
  </defs>
  <metadata id="metadata3786">
    <rdf:RDF>
      <cc:Work rdf:about="">
        <dc:format>image/svg+xml</dc:format>
        <dc:type rdf:resource="http://purl.org/dc/dcmitype/StillImage"/>
        <dc:title/>
      </cc:Work>
    </rdf:RDF>
  </metadata>
  <g transform="translate(-225.00005,-297.13338)" id="layer1">
    <g transform="matrix(7.3130503,0,0,7.3130503,-2579.3811,-6293.9794)" id="g3372">
      <g transform="matrix(1.25,0,0,-1.25,20.475006,999.38718)" id="g370">
        <g clip-path="url(#clipPath374)" id="g372">
          <path d="m 305.599,47.14 23.521,-7.517 c 0,0 -0.544,10.671 -0.673,14.36 -0.126,3.619 -2.727,28.407 -2.727,28.407 l -36.59,-18.623 0.553,-9.584 0.867,-15.007 15.049,7.964" id="path378" style="fill:#00aeef;fill-opacity:1;fill-rule:nonzero;stroke:none"/>
          <path d="m 289.735,54.182 c -0.001,0.013 -0.521,9.491 -0.482,9.53 0.105,0.105 36.384,18.633 36.44,18.679 0.009,0.008 0.026,-0.104 0.049,-0.32 0.307,-2.932 2.556,-24.557 2.68,-27.994 0.063,-1.761 0.217,-5.068 0.361,-8.049 0.159,-3.297 0.306,-6.217 0.305,-6.24 -0.003,-0.048 -7.473,2.289 -7.473,2.289 0,0 -15.796,5.039 -15.884,5.058 -0.055,0.012 -14.954,-7.826 -15.007,-7.811 -0.075,0.022 -0.989,14.84 -0.989,14.858" id="path380" style="fill:#00abed;fill-opacity:1;fill-rule:nonzero;stroke:none"/>
          <path d="m 289.786,54.181 c -10e-4,0.025 -0.488,9.398 -0.41,9.476 0.211,0.21 36.178,18.643 36.29,18.735 0.018,0.015 0.041,-0.091 0.063,-0.304 0.302,-2.89 2.536,-24.413 2.668,-27.917 0.064,-1.768 0.218,-5.054 0.36,-8.004 0.158,-3.267 0.302,-6.169 0.299,-6.215 -0.005,-0.095 -7.374,2.16 -7.374,2.16 0,0 -15.643,4.979 -15.818,5.017 -0.111,0.024 -14.859,-7.687 -14.966,-7.657 -0.151,0.043 -1.11,14.672 -1.112,14.709" id="path382" style="fill:#00a9eb;fill-opacity:1;fill-rule:nonzero;stroke:none"/>
          <path d="m 289.838,54.18 c -0.001,0.037 -0.455,9.306 -0.338,9.422 0.316,0.315 35.97,18.653 36.139,18.79 0.028,0.023 0.055,-0.076 0.077,-0.287 0.298,-2.847 2.518,-24.269 2.655,-27.84 0.066,-1.776 0.22,-5.04 0.36,-7.959 0.156,-3.237 0.297,-6.12 0.294,-6.189 -0.008,-0.143 -7.276,2.029 -7.276,2.029 0,0 -15.49,4.921 -15.753,4.977 -0.166,0.037 -14.764,-7.548 -14.924,-7.503 -0.226,0.064 -1.232,14.504 -1.234,14.56" id="path384" style="fill:#00a8ea;fill-opacity:1;fill-rule:nonzero;stroke:none"/>
          <path d="m 289.89,54.179 c -0.002,0.049 -0.423,9.213 -0.267,9.368 0.421,0.42 35.764,18.663 35.989,18.846 0.037,0.03 0.07,-0.063 0.092,-0.271 0.293,-2.805 2.498,-24.125 2.642,-27.763 0.067,-1.783 0.22,-5.026 0.359,-7.914 0.155,-3.206 0.293,-6.071 0.288,-6.163 -0.011,-0.191 -7.176,1.898 -7.176,1.898 0,0 -15.338,4.862 -15.688,4.938 -0.222,0.048 -14.669,-7.41 -14.883,-7.35 -0.301,0.085 -1.354,14.337 -1.356,14.411" id="path386" style="fill:#00a7e8;fill-opacity:1;fill-rule:nonzero;stroke:none"/>
          <path d="m 289.941,54.177 c -0.002,0.062 -0.389,9.122 -0.195,9.316 0.527,0.524 35.558,18.672 35.839,18.901 0.047,0.038 0.084,-0.05 0.106,-0.254 0.289,-2.764 2.479,-23.982 2.63,-27.687 0.069,-1.791 0.221,-5.012 0.359,-7.869 0.152,-3.177 0.288,-6.023 0.281,-6.138 -0.013,-0.238 -7.076,1.768 -7.076,1.768 0,0 -15.186,4.803 -15.623,4.898 -0.278,0.061 -14.575,-7.271 -14.841,-7.195 -0.378,0.106 -1.477,14.168 -1.48,14.26" id="path388" style="fill:#00a5e7;fill-opacity:1;fill-rule:nonzero;stroke:none"/>
          <path d="m 289.993,54.176 c -0.003,0.075 -0.357,9.029 -0.123,9.262 0.631,0.629 35.351,18.682 35.688,18.956 0.056,0.046 0.099,-0.036 0.12,-0.237 0.284,-2.722 2.46,-23.838 2.618,-27.61 0.07,-1.799 0.222,-4.998 0.358,-7.823 0.151,-3.147 0.283,-5.975 0.276,-6.113 -0.016,-0.286 -6.978,1.637 -6.978,1.637 0,0 -15.033,4.745 -15.558,4.859 -0.333,0.072 -14.48,-7.133 -14.799,-7.042 -0.453,0.127 -1.598,14.001 -1.602,14.111" id="path390" style="fill:#00a4e5;fill-opacity:1;fill-rule:nonzero;stroke:none"/>
          <path d="m 290.044,54.175 c -0.003,0.087 -0.323,8.937 -0.051,9.208 0.737,0.734 35.145,18.692 35.538,19.012 0.065,0.053 0.113,-0.023 0.134,-0.221 0.28,-2.68 2.441,-23.694 2.606,-27.533 0.071,-1.806 0.223,-4.983 0.357,-7.778 0.149,-3.117 0.279,-5.926 0.27,-6.088 -0.018,-0.333 -6.879,1.507 -6.879,1.507 0,0 -14.88,4.686 -15.492,4.819 -0.389,0.084 -14.385,-6.993 -14.758,-6.889 -0.528,0.149 -1.72,13.834 -1.725,13.963" id="path392" style="fill:#00a2e4;fill-opacity:1;fill-rule:nonzero;stroke:none"/>
          <path d="m 290.096,54.174 c -0.004,0.099 -0.291,8.844 0.021,9.154 0.842,0.839 34.938,18.702 35.387,19.067 0.075,0.061 0.128,-0.009 0.148,-0.204 0.276,-2.638 2.422,-23.55 2.593,-27.456 0.074,-1.814 0.224,-4.969 0.357,-7.733 0.148,-3.087 0.274,-5.878 0.264,-6.062 -0.021,-0.381 -6.779,1.376 -6.779,1.376 0,0 -14.728,4.628 -15.427,4.779 -0.444,0.097 -14.291,-6.855 -14.717,-6.734 -0.603,0.17 -1.842,13.665 -1.847,13.813" id="path394" style="fill:#00a1e3;fill-opacity:1;fill-rule:nonzero;stroke:none"/>
          <path d="m 290.147,54.173 c -0.003,0.111 -0.257,8.752 0.093,9.101 0.947,0.943 34.732,18.711 35.237,19.122 0.084,0.069 0.142,0.004 0.162,-0.187 0.272,-2.597 2.403,-23.407 2.581,-27.38 0.075,-1.822 0.225,-4.955 0.356,-7.688 0.146,-3.057 0.27,-5.829 0.259,-6.036 -0.024,-0.429 -6.681,1.246 -6.681,1.246 0,0 -14.575,4.568 -15.362,4.739 -0.499,0.108 -14.195,-6.716 -14.675,-6.581 -0.679,0.191 -1.964,13.498 -1.97,13.664" id="path396" style="fill:#00a0e2;fill-opacity:1;fill-rule:nonzero;stroke:none"/>
          <path d="m 290.199,54.171 c -0.004,0.124 -0.225,8.66 0.164,9.048 1.053,1.048 34.526,18.721 35.087,19.178 0.094,0.076 0.157,0.017 0.176,-0.171 0.267,-2.555 2.384,-23.263 2.569,-27.303 0.076,-1.829 0.226,-4.941 0.355,-7.643 0.144,-3.027 0.266,-5.781 0.253,-6.011 -0.026,-0.476 -6.581,1.116 -6.581,1.116 0,0 -14.423,4.509 -15.297,4.699 -0.555,0.12 -14.101,-6.577 -14.634,-6.427 -0.754,0.212 -2.085,13.33 -2.092,13.514" id="path398" style="fill:#009ee0;fill-opacity:1;fill-rule:nonzero;stroke:none"/>
          <path d="m 290.251,54.17 c -0.005,0.137 -0.193,8.568 0.236,8.994 1.157,1.153 34.319,18.731 34.936,19.233 0.103,0.084 0.171,0.032 0.19,-0.154 0.263,-2.513 2.365,-23.119 2.557,-27.226 0.078,-1.837 0.227,-4.927 0.354,-7.598 0.143,-2.997 0.261,-5.732 0.247,-5.985 -0.029,-0.524 -6.482,0.985 -6.482,0.985 0,0 -14.27,4.451 -15.232,4.659 -0.61,0.133 -14.006,-6.439 -14.592,-6.273 -0.83,0.234 -2.207,13.162 -2.214,13.365" id="path400" style="fill:#009ddf;fill-opacity:1;fill-rule:nonzero;stroke:none"/>
          <path d="m 290.302,54.169 c -0.005,0.149 -0.159,8.475 0.308,8.94 1.263,1.258 34.113,18.741 34.786,19.289 0.112,0.091 0.186,0.045 0.205,-0.138 0.258,-2.47 2.345,-22.975 2.544,-27.15 0.079,-1.843 0.228,-4.912 0.354,-7.552 0.14,-2.967 0.256,-5.683 0.241,-5.959 -0.032,-0.573 -6.383,0.854 -6.383,0.854 0,0 -14.118,4.392 -15.167,4.62 -0.666,0.144 -13.911,-6.3 -14.551,-6.12 -0.905,0.255 -2.329,12.995 -2.337,13.216" id="path402" style="fill:#009bdd;fill-opacity:1;fill-rule:nonzero;stroke:none"/>
          <path d="m 290.354,54.168 c -0.006,0.161 -0.127,8.383 0.379,8.887 1.369,1.362 33.906,18.749 34.636,19.344 0.122,0.099 0.2,0.058 0.219,-0.121 0.254,-2.429 2.326,-22.833 2.531,-27.074 0.081,-1.851 0.23,-4.898 0.354,-7.507 0.139,-2.937 0.252,-5.634 0.235,-5.934 -0.034,-0.62 -6.284,0.724 -6.284,0.724 0,0 -13.965,4.333 -15.101,4.58 -0.722,0.157 -13.817,-6.161 -14.51,-5.966 -0.98,0.276 -2.451,12.827 -2.459,13.067" id="path404" style="fill:#009adc;fill-opacity:1;fill-rule:nonzero;stroke:none"/>
          <path d="m 290.406,54.167 c -0.007,0.173 -0.094,8.29 0.451,8.833 1.473,1.467 33.699,18.759 34.485,19.399 0.131,0.107 0.214,0.072 0.233,-0.104 0.249,-2.387 2.307,-22.689 2.519,-26.997 0.082,-1.859 0.23,-4.884 0.353,-7.461 0.137,-2.908 0.247,-5.587 0.229,-5.909 -0.036,-0.668 -6.184,0.593 -6.184,0.593 0,0 -13.813,4.275 -15.037,4.54 -0.777,0.169 -13.722,-6.022 -14.468,-5.812 -1.055,0.298 -2.573,12.66 -2.581,12.918" id="path406" style="fill:#0099db;fill-opacity:1;fill-rule:nonzero;stroke:none"/>
          <path d="m 290.457,54.165 c -0.006,0.186 -0.061,8.199 0.523,8.78 1.579,1.572 33.493,18.769 34.335,19.455 0.14,0.114 0.229,0.085 0.247,-0.088 0.245,-2.345 2.288,-22.545 2.507,-26.92 0.084,-1.866 0.231,-4.869 0.352,-7.416 0.136,-2.878 0.243,-5.538 0.224,-5.884 -0.04,-0.715 -6.086,0.464 -6.086,0.464 0,0 -13.66,4.215 -14.971,4.5 -0.833,0.181 -13.627,-5.884 -14.427,-5.659 -1.131,0.319 -2.694,12.492 -2.704,12.768" id="path408" style="fill:#0097d9;fill-opacity:1;fill-rule:nonzero;stroke:none"/>
          <path d="m 290.509,54.164 c -0.007,0.199 -0.028,8.106 0.595,8.726 1.684,1.677 33.286,18.779 34.184,19.51 0.15,0.122 0.243,0.099 0.261,-0.071 0.241,-2.303 2.269,-22.401 2.495,-26.843 0.085,-1.874 0.232,-4.855 0.351,-7.371 0.134,-2.848 0.238,-5.49 0.218,-5.858 -0.042,-0.763 -5.986,0.333 -5.986,0.333 0,0 -13.508,4.157 -14.907,4.46 -0.888,0.193 -13.532,-5.745 -14.385,-5.505 -1.206,0.34 -2.816,12.324 -2.826,12.619" id="path410" style="fill:#0096d8;fill-opacity:1;fill-rule:nonzero;stroke:none"/>
          <path d="m 290.56,54.163 c -0.007,0.211 0.005,8.014 0.667,8.673 1.789,1.781 33.08,18.788 34.034,19.565 0.159,0.13 0.258,0.113 0.275,-0.054 0.237,-2.262 2.25,-22.258 2.483,-26.767 0.086,-1.882 0.233,-4.841 0.35,-7.326 0.133,-2.818 0.234,-5.441 0.212,-5.833 -0.044,-0.81 -5.887,0.203 -5.887,0.203 0,0 -13.355,4.098 -14.841,4.421 -0.943,0.204 -13.437,-5.607 -14.343,-5.352 -1.282,0.362 -2.939,12.157 -2.95,12.47" id="path412" style="fill:#0094d6;fill-opacity:1;fill-rule:nonzero;stroke:none"/>
          <path d="m 290.612,54.162 c -0.008,0.223 0.038,7.921 0.738,8.619 1.895,1.886 32.874,18.798 33.884,19.621 0.169,0.137 0.272,0.126 0.289,-0.038 0.232,-2.22 2.231,-22.114 2.47,-26.69 0.089,-1.889 0.235,-4.827 0.351,-7.281 0.13,-2.788 0.229,-5.392 0.206,-5.807 -0.047,-0.858 -5.788,0.072 -5.788,0.072 0,0 -13.203,4.039 -14.776,4.381 -0.999,0.217 -13.343,-5.468 -14.302,-5.198 -1.358,0.383 -3.06,11.989 -3.072,12.321" id="path414" style="fill:#0092d5;fill-opacity:1;fill-rule:nonzero;stroke:none"/>
          <path d="m 290.664,54.161 c -0.009,0.235 0.07,7.828 0.81,8.565 2,1.991 32.667,18.808 33.733,19.676 0.178,0.145 0.287,0.14 0.304,-0.021 0.227,-2.178 2.211,-21.97 2.457,-26.613 0.09,-1.897 0.235,-4.813 0.35,-7.236 0.129,-2.758 0.224,-5.344 0.2,-5.781 -0.05,-0.906 -5.689,-0.059 -5.689,-0.059 0,0 -13.05,3.981 -14.711,4.341 -1.054,0.229 -13.248,-5.329 -14.26,-5.044 -1.433,0.404 -3.182,11.821 -3.194,12.172" id="path416" style="fill:#0091d3;fill-opacity:1;fill-rule:nonzero;stroke:none"/>
          <path d="m 290.715,54.159 c -0.009,0.248 0.103,7.737 0.882,8.512 2.105,2.096 32.461,18.818 33.583,19.732 0.187,0.152 0.301,0.153 0.318,-0.005 0.223,-2.135 2.192,-21.826 2.445,-26.536 0.091,-1.905 0.236,-4.799 0.349,-7.191 0.127,-2.728 0.22,-5.295 0.194,-5.756 -0.052,-0.953 -5.589,-0.189 -5.589,-0.189 0,0 -12.898,3.922 -14.646,4.302 -1.11,0.241 -13.153,-5.191 -14.219,-4.891 -1.508,0.426 -3.304,11.654 -3.317,12.022" id="path418" style="fill:#008fd2;fill-opacity:1;fill-rule:nonzero;stroke:none"/>
          <path d="m 290.767,54.158 c -0.009,0.26 0.136,7.644 0.954,8.459 2.21,2.201 32.254,18.827 33.432,19.786 0.197,0.161 0.316,0.167 0.332,0.012 0.219,-2.093 2.173,-21.682 2.433,-26.459 0.093,-1.912 0.237,-4.785 0.348,-7.146 0.126,-2.698 0.215,-5.246 0.189,-5.73 -0.055,-1.001 -5.491,-0.32 -5.491,-0.32 0,0 -12.745,3.864 -14.581,4.262 -1.165,0.253 -13.058,-5.052 -14.177,-4.737 -1.584,0.447 -3.426,11.486 -3.439,11.873" id="path420" style="fill:#008ed1;fill-opacity:1;fill-rule:nonzero;stroke:none"/>
          <path d="m 290.818,54.157 c -0.009,0.273 0.169,7.552 1.026,8.405 2.315,2.306 32.048,18.837 33.282,19.842 0.206,0.168 0.33,0.18 0.346,0.029 0.215,-2.052 2.154,-21.539 2.42,-26.383 0.095,-1.92 0.239,-4.77 0.348,-7.1 0.124,-2.669 0.211,-5.199 0.183,-5.706 -0.058,-1.048 -5.391,-0.45 -5.391,-0.45 0,0 -12.593,3.805 -14.516,4.222 -1.221,0.265 -12.963,-4.913 -14.136,-4.582 -1.659,0.467 -3.547,11.318 -3.562,11.723" id="path422" style="fill:#008ccf;fill-opacity:1;fill-rule:nonzero;stroke:none"/>
          <path d="m 290.87,54.156 c -0.01,0.285 0.202,7.459 1.097,8.351 2.421,2.411 31.842,18.847 33.132,19.898 0.215,0.175 0.345,0.193 0.36,0.045 0.21,-2.01 2.135,-21.395 2.408,-26.306 0.096,-1.927 0.239,-4.756 0.347,-7.055 0.123,-2.639 0.207,-5.15 0.177,-5.68 -0.06,-1.096 -5.292,-0.58 -5.292,-0.58 0,0 -12.44,3.745 -14.45,4.182 -1.277,0.277 -12.869,-4.775 -14.095,-4.43 -1.734,0.489 -3.669,11.151 -3.684,11.575" id="path424" style="fill:#008bcd;fill-opacity:1;fill-rule:nonzero;stroke:none"/>
          <path d="m 290.922,54.155 c -0.011,0.297 0.234,7.367 1.169,8.297 2.526,2.516 31.634,18.857 32.981,19.953 0.225,0.183 0.359,0.208 0.374,0.062 0.206,-1.968 2.116,-21.251 2.396,-26.229 0.098,-1.935 0.24,-4.742 0.346,-7.01 0.121,-2.609 0.202,-5.101 0.172,-5.654 -0.063,-1.144 -5.193,-0.711 -5.193,-0.711 0,0 -12.288,3.687 -14.386,4.142 -1.332,0.289 -12.774,-4.636 -14.053,-4.276 -1.81,0.511 -3.791,10.983 -3.806,11.426" id="path426" style="fill:#0089cc;fill-opacity:1;fill-rule:nonzero;stroke:none"/>
          <path d="m 290.973,54.153 c -0.011,0.31 0.268,7.275 1.241,8.245 2.631,2.62 31.428,18.866 32.831,20.008 0.234,0.191 0.373,0.221 0.388,0.078 0.202,-1.926 2.097,-21.107 2.384,-26.152 0.099,-1.943 0.241,-4.728 0.345,-6.965 0.119,-2.579 0.198,-5.053 0.166,-5.629 -0.065,-1.192 -5.094,-0.841 -5.094,-0.841 0,0 -12.135,3.628 -14.32,4.103 -1.388,0.301 -12.679,-4.498 -14.012,-4.123 -1.885,0.532 -3.913,10.816 -3.929,11.276" id="path428" style="fill:#0087cb;fill-opacity:1;fill-rule:nonzero;stroke:none"/>
          <path d="m 291.025,54.152 c -0.012,0.322 0.3,7.183 1.312,8.191 2.737,2.725 31.222,18.876 32.681,20.064 0.243,0.198 0.388,0.234 0.402,0.095 0.197,-1.885 2.078,-20.964 2.372,-26.076 0.1,-1.95 0.242,-4.714 0.345,-6.92 0.117,-2.549 0.193,-5.004 0.16,-5.603 -0.069,-1.239 -4.995,-0.972 -4.995,-0.972 0,0 -11.983,3.569 -14.256,4.063 -1.443,0.313 -12.584,-4.359 -13.97,-3.969 -1.96,0.553 -4.035,10.648 -4.051,11.127" id="path430" style="fill:#0086c9;fill-opacity:1;fill-rule:nonzero;stroke:none"/>
          <path d="m 291.076,54.151 c -0.011,0.335 0.333,7.09 1.385,8.137 2.842,2.83 31.015,18.886 32.53,20.119 0.253,0.206 0.403,0.248 0.417,0.112 0.192,-1.843 2.059,-20.82 2.359,-25.999 0.102,-1.958 0.243,-4.7 0.344,-6.875 0.116,-2.519 0.188,-4.956 0.154,-5.577 -0.071,-1.287 -4.896,-1.103 -4.896,-1.103 0,0 -11.83,3.511 -14.19,4.023 -1.498,0.326 -12.49,-4.22 -13.929,-3.814 -2.036,0.574 -4.156,10.479 -4.174,10.977" id="path432" style="fill:#0084c8;fill-opacity:1;fill-rule:nonzero;stroke:none"/>
          <path d="m 291.128,54.15 c -0.012,0.347 0.366,6.998 1.456,8.083 2.947,2.935 30.809,18.895 32.38,20.175 0.262,0.213 0.417,0.261 0.431,0.128 0.188,-1.801 2.04,-20.676 2.346,-25.922 0.104,-1.965 0.245,-4.686 0.344,-6.83 0.114,-2.489 0.184,-4.907 0.148,-5.552 -0.073,-1.335 -4.797,-1.233 -4.797,-1.233 0,0 -11.677,3.452 -14.124,3.984 -1.554,0.337 -12.395,-4.082 -13.887,-3.661 -2.112,0.595 -4.279,10.312 -4.297,10.828" id="path434" style="fill:#0082c6;fill-opacity:1;fill-rule:nonzero;stroke:none"/>
          <path d="m 291.18,54.149 c -0.013,0.359 0.398,6.905 1.528,8.029 3.052,3.04 30.602,18.905 32.229,20.23 0.272,0.222 0.431,0.275 0.445,0.145 0.184,-1.758 2.021,-20.532 2.334,-25.845 0.105,-1.973 0.245,-4.672 0.343,-6.785 0.112,-2.459 0.179,-4.858 0.143,-5.526 -0.077,-1.383 -4.698,-1.363 -4.698,-1.363 0,0 -11.525,3.393 -14.06,3.943 -1.609,0.349 -12.3,-3.943 -13.845,-3.507 -2.188,0.616 -4.401,10.144 -4.419,10.679" id="path436" style="fill:#0081c5;fill-opacity:1;fill-rule:nonzero;stroke:none"/>
          <path d="m 291.231,54.148 c -0.013,0.371 0.432,6.812 1.6,7.976 3.158,3.144 30.396,18.914 32.079,20.285 0.281,0.229 0.446,0.288 0.459,0.162 0.18,-1.717 2.002,-20.39 2.322,-25.77 0.106,-1.98 0.246,-4.656 0.342,-6.738 0.111,-2.429 0.175,-4.811 0.137,-5.502 -0.079,-1.43 -4.598,-1.493 -4.598,-1.493 0,0 -11.373,3.334 -13.995,3.903 -1.665,0.362 -12.206,-3.804 -13.804,-3.353 -2.263,0.638 -4.523,9.977 -4.542,10.53" id="path438" style="fill:#0f7fc3;fill-opacity:1;fill-rule:nonzero;stroke:none"/>
          <path d="m 291.283,54.146 c -0.014,0.384 0.464,6.721 1.671,7.923 3.263,3.249 30.19,18.924 31.929,20.341 0.29,0.236 0.46,0.302 0.473,0.178 0.175,-1.675 1.983,-20.246 2.31,-25.693 0.108,-1.987 0.247,-4.642 0.341,-6.693 0.109,-2.399 0.171,-4.762 0.131,-5.476 -0.081,-1.478 -4.499,-1.624 -4.499,-1.624 0,0 -11.22,3.275 -13.93,3.864 -1.72,0.373 -12.11,-3.666 -13.762,-3.2 -2.338,0.659 -4.644,9.809 -4.664,10.38" id="path440" style="fill:#1d7ec2;fill-opacity:1;fill-rule:nonzero;stroke:none"/>
          <path d="m 291.334,54.145 c -0.014,0.397 0.498,6.628 1.744,7.869 3.368,3.354 29.983,18.934 31.778,20.396 0.3,0.244 0.475,0.316 0.487,0.195 0.171,-1.633 1.964,-20.102 2.297,-25.616 0.11,-1.995 0.249,-4.628 0.341,-6.648 0.108,-2.369 0.166,-4.713 0.126,-5.451 -0.085,-1.525 -4.4,-1.754 -4.4,-1.754 0,0 -11.068,3.217 -13.865,3.824 -1.776,0.386 -12.016,-3.527 -13.721,-3.046 -2.413,0.68 -4.766,9.641 -4.787,10.231" id="path442" style="fill:#247cc1;fill-opacity:1;fill-rule:nonzero;stroke:none"/>
          <path d="m 291.386,54.144 c -0.014,0.409 0.53,6.536 1.815,7.815 3.473,3.459 29.777,18.944 31.628,20.452 0.309,0.252 0.489,0.329 0.501,0.211 0.167,-1.591 1.945,-19.958 2.285,-25.539 0.111,-2.003 0.249,-4.614 0.341,-6.603 0.105,-2.339 0.161,-4.665 0.119,-5.425 -0.087,-1.573 -4.301,-1.885 -4.301,-1.885 0,0 -10.915,3.158 -13.799,3.784 -1.832,0.398 -11.921,-3.388 -13.68,-2.892 -2.489,0.702 -4.888,9.474 -4.909,10.082" id="path444" style="fill:#297abf;fill-opacity:1;fill-rule:nonzero;stroke:none"/>
          <path d="m 291.437,54.143 c -0.014,0.421 0.564,6.443 1.887,7.762 3.579,3.563 29.571,18.953 31.478,20.507 0.318,0.259 0.504,0.342 0.515,0.228 0.163,-1.55 1.926,-19.815 2.273,-25.463 0.113,-2.01 0.25,-4.6 0.34,-6.558 0.104,-2.309 0.157,-4.616 0.113,-5.399 -0.089,-1.621 -4.202,-2.016 -4.202,-2.016 0,0 -10.762,3.1 -13.734,3.745 -1.887,0.41 -11.826,-3.25 -13.638,-2.739 -2.564,0.723 -5.01,9.306 -5.032,9.933" id="path446" style="fill:#3079be;fill-opacity:1;fill-rule:nonzero;stroke:none"/>
          <path d="m 291.489,54.141 c -0.015,0.434 0.596,6.352 1.959,7.709 3.684,3.668 29.364,18.963 31.327,20.562 0.328,0.267 0.518,0.356 0.53,0.245 0.157,-1.508 1.906,-19.671 2.26,-25.386 0.114,-2.018 0.251,-4.586 0.339,-6.513 0.102,-2.279 0.152,-4.567 0.108,-5.374 -0.092,-1.668 -4.103,-2.146 -4.103,-2.146 0,0 -10.61,3.041 -13.669,3.705 -1.943,0.422 -11.732,-3.111 -13.597,-2.585 -2.639,0.744 -5.131,9.139 -5.154,9.783" id="path448" style="fill:#3477bd;fill-opacity:1;fill-rule:nonzero;stroke:none"/>
          <path d="m 291.541,54.14 c -0.016,0.446 0.628,6.259 2.03,7.655 3.789,3.773 29.157,18.973 31.177,20.618 0.337,0.274 0.533,0.369 0.544,0.261 0.153,-1.466 1.887,-19.527 2.248,-25.309 0.115,-2.026 0.252,-4.572 0.338,-6.468 0.101,-2.249 0.148,-4.519 0.102,-5.348 -0.095,-1.716 -4.004,-2.277 -4.004,-2.277 0,0 -10.457,2.982 -13.603,3.666 -1.999,0.433 -11.637,-2.973 -13.556,-2.432 -2.715,0.766 -5.253,8.971 -5.276,9.634" id="path450" style="fill:#3976bc;fill-opacity:1;fill-rule:nonzero;stroke:none"/>
          <path d="m 291.592,54.139 c -0.016,0.459 0.662,6.167 2.103,7.601 3.894,3.878 28.95,18.983 31.026,20.673 0.347,0.283 0.547,0.383 0.558,0.278 0.149,-1.424 1.868,-19.383 2.236,-25.232 0.117,-2.033 0.253,-4.558 0.337,-6.423 0.099,-2.219 0.143,-4.47 0.096,-5.323 -0.097,-1.763 -3.904,-2.406 -3.904,-2.406 0,0 -10.305,2.923 -13.539,3.625 -2.053,0.446 -11.542,-2.834 -13.514,-2.278 -2.79,0.787 -5.375,8.803 -5.399,9.485" id="path452" style="fill:#3d74ba;fill-opacity:1;fill-rule:nonzero;stroke:none"/>
          <path d="m 291.644,54.138 c -0.017,0.471 0.694,6.074 2.174,7.548 4,3.982 28.744,18.992 30.876,20.728 0.356,0.29 0.562,0.397 0.572,0.295 0.145,-1.382 1.849,-19.24 2.223,-25.156 0.119,-2.041 0.254,-4.543 0.337,-6.377 0.098,-2.19 0.139,-4.423 0.091,-5.298 -0.1,-1.811 -3.806,-2.537 -3.806,-2.537 0,0 -10.152,2.864 -13.473,3.585 -2.109,0.458 -11.447,-2.695 -13.472,-2.124 -2.866,0.808 -5.498,8.636 -5.522,9.336" id="path454" style="fill:#4173b9;fill-opacity:1;fill-rule:nonzero;stroke:none"/>
          <path d="m 291.695,54.137 c -0.016,0.483 0.728,5.982 2.246,7.494 4.105,4.087 28.538,19.002 30.726,20.784 0.365,0.297 0.576,0.41 0.586,0.311 0.141,-1.34 1.83,-19.096 2.211,-25.079 0.12,-2.049 0.255,-4.529 0.336,-6.332 0.096,-2.16 0.134,-4.374 0.085,-5.272 -0.103,-1.859 -3.706,-2.668 -3.706,-2.668 0,0 -10,2.806 -13.409,3.546 -2.164,0.47 -11.352,-2.557 -13.431,-1.971 -2.941,0.829 -5.618,8.468 -5.644,9.187" id="path456" style="fill:#4471b8;fill-opacity:1;fill-rule:nonzero;stroke:none"/>
          <path d="m 291.747,54.136 c -0.017,0.495 0.76,5.889 2.318,7.44 4.21,4.192 28.331,19.012 30.575,20.839 0.375,0.305 0.59,0.424 0.6,0.328 0.136,-1.298 1.811,-18.952 2.199,-25.002 0.121,-2.056 0.256,-4.515 0.336,-6.287 0.094,-2.13 0.129,-4.325 0.078,-5.247 -0.105,-1.906 -3.607,-2.798 -3.607,-2.798 0,0 -9.847,2.747 -13.343,3.506 -2.22,0.482 -11.258,-2.418 -13.389,-1.817 -3.017,0.851 -5.741,8.3 -5.767,9.038" id="path458" style="fill:#476fb6;fill-opacity:1;fill-rule:nonzero;stroke:none"/>
          <path d="m 291.799,54.134 c -0.018,0.508 0.793,5.798 2.389,7.387 4.316,4.297 28.125,19.022 30.425,20.895 0.384,0.313 0.605,0.437 0.615,0.344 0.131,-1.256 1.791,-18.808 2.186,-24.925 0.123,-2.064 0.257,-4.501 0.335,-6.242 0.092,-2.1 0.125,-4.277 0.073,-5.221 -0.108,-1.955 -3.508,-2.929 -3.508,-2.929 0,0 -9.695,2.688 -13.278,3.466 -2.276,0.494 -11.163,-2.279 -13.348,-1.663 -3.092,0.872 -5.863,8.133 -5.889,8.888" id="path460" style="fill:#4a6eb5;fill-opacity:1;fill-rule:nonzero;stroke:none"/>
          <path d="m 291.85,54.133 c -0.018,0.521 0.826,5.705 2.462,7.334 4.42,4.401 27.918,19.03 30.274,20.95 0.394,0.32 0.619,0.45 0.629,0.36 0.127,-1.214 1.772,-18.665 2.173,-24.848 0.125,-2.071 0.258,-4.487 0.335,-6.197 0.09,-2.07 0.12,-4.228 0.067,-5.196 -0.11,-2.001 -3.409,-3.059 -3.409,-3.059 0,0 -9.542,2.63 -13.213,3.427 -2.331,0.506 -11.068,-2.141 -13.306,-1.51 -3.168,0.893 -5.985,7.965 -6.012,8.739" id="path462" style="fill:#4d6cb4;fill-opacity:1;fill-rule:nonzero;stroke:none"/>
          <path d="m 291.902,54.132 c -0.019,0.533 0.859,5.612 2.533,7.28 4.526,4.507 27.712,19.04 30.124,21.005 0.403,0.328 0.634,0.464 0.643,0.378 0.122,-1.173 1.753,-18.522 2.161,-24.772 0.126,-2.079 0.259,-4.473 0.334,-6.152 0.089,-2.04 0.116,-4.179 0.061,-5.17 -0.113,-2.05 -3.309,-3.189 -3.309,-3.189 0,0 -9.39,2.57 -13.148,3.386 -2.387,0.518 -10.974,-2.002 -13.265,-1.356 -3.243,0.915 -6.106,7.797 -6.134,8.59" id="path464" style="fill:#506bb3;fill-opacity:1;fill-rule:nonzero;stroke:none"/>
          <path d="m 291.953,54.131 c -0.019,0.545 0.892,5.52 2.605,7.226 4.631,4.612 27.506,19.05 29.974,21.061 0.412,0.335 0.648,0.478 0.657,0.394 0.118,-1.131 1.734,-18.377 2.149,-24.695 0.128,-2.086 0.26,-4.459 0.333,-6.107 0.087,-2.01 0.112,-4.131 0.056,-5.144 -0.116,-2.098 -3.211,-3.32 -3.211,-3.32 0,0 -9.237,2.512 -13.083,3.346 -2.442,0.531 -10.878,-1.862 -13.223,-1.202 -3.318,0.936 -6.228,7.63 -6.257,8.441" id="path466" style="fill:#5269b1;fill-opacity:1;fill-rule:nonzero;stroke:none"/>
          <path d="m 292.005,54.13 c -0.019,0.557 0.924,5.427 2.677,7.172 4.736,4.717 27.298,19.06 29.823,21.116 0.422,0.344 0.663,0.492 0.671,0.411 0.114,-1.089 1.715,-18.234 2.137,-24.618 0.129,-2.094 0.261,-4.444 0.332,-6.062 0.086,-1.98 0.107,-4.082 0.05,-5.119 -0.118,-2.145 -3.111,-3.45 -3.111,-3.45 0,0 -9.085,2.453 -13.018,3.307 -2.498,0.542 -10.784,-1.725 -13.182,-1.049 -3.394,0.957 -6.35,7.462 -6.379,8.292" id="path468" style="fill:#5567b0;fill-opacity:1;fill-rule:nonzero;stroke:none"/>
          <path d="m 292.057,54.128 c -0.02,0.57 0.957,5.336 2.748,7.12 4.842,4.821 27.092,19.069 29.673,21.171 0.431,0.351 0.677,0.505 0.685,0.427 0.11,-1.047 1.696,-18.09 2.125,-24.542 0.13,-2.101 0.262,-4.429 0.331,-6.015 0.084,-1.951 0.103,-4.034 0.044,-5.094 -0.121,-2.193 -3.012,-3.581 -3.012,-3.581 0,0 -8.932,2.394 -12.953,3.267 -2.552,0.555 -10.688,-1.585 -13.14,-0.895 -3.469,0.979 -6.472,7.295 -6.501,8.142" id="path470" style="fill:#5766af;fill-opacity:1;fill-rule:nonzero;stroke:none"/>
          <path d="m 292.108,54.127 c -0.02,0.583 0.99,5.243 2.82,7.066 4.947,4.926 26.886,19.079 29.523,21.227 0.44,0.358 0.692,0.518 0.699,0.444 0.105,-1.005 1.677,-17.947 2.112,-24.466 0.132,-2.108 0.264,-4.415 0.332,-5.97 0.082,-1.921 0.097,-3.986 0.038,-5.069 -0.124,-2.24 -2.913,-3.711 -2.913,-3.711 0,0 -8.78,2.336 -12.888,3.228 -2.608,0.566 -10.594,-1.448 -13.099,-0.741 -3.544,0.999 -6.593,7.126 -6.624,7.992" id="path472" style="fill:#5a64ae;fill-opacity:1;fill-rule:nonzero;stroke:none"/>
          <path d="m 292.16,54.126 c -0.021,0.595 1.023,5.151 2.892,7.012 5.052,5.031 26.679,19.089 29.372,21.282 0.45,0.366 0.706,0.532 0.713,0.461 0.101,-0.963 1.658,-17.803 2.1,-24.389 0.134,-2.116 0.264,-4.401 0.331,-5.925 0.08,-1.891 0.093,-3.937 0.032,-5.043 -0.126,-2.288 -2.814,-3.842 -2.814,-3.842 0,0 -8.627,2.277 -12.822,3.188 -2.664,0.578 -10.5,-1.308 -13.058,-0.587 -3.62,1.02 -6.715,6.958 -6.746,7.843" id="path474" style="fill:#5c62ad;fill-opacity:1;fill-rule:nonzero;stroke:none"/>
          <path d="m 292.211,54.125 c -0.021,0.607 1.056,5.058 2.964,6.958 5.158,5.136 26.473,19.099 29.222,21.338 0.459,0.374 0.721,0.545 0.728,0.477 0.096,-0.921 1.638,-17.659 2.087,-24.312 0.135,-2.124 0.265,-4.387 0.33,-5.88 0.079,-1.861 0.089,-3.888 0.026,-5.017 -0.128,-2.336 -2.714,-3.973 -2.714,-3.973 0,0 -8.475,2.219 -12.758,3.148 -2.719,0.591 -10.404,-1.169 -13.016,-0.433 -3.695,1.042 -6.837,6.791 -6.869,7.694" id="path476" style="fill:#5e60ab;fill-opacity:1;fill-rule:nonzero;stroke:none"/>
          <path d="m 292.263,54.124 c -0.022,0.619 1.089,4.966 3.035,6.904 5.263,5.241 26.267,19.109 29.072,21.394 0.469,0.381 0.735,0.558 0.742,0.493 0.092,-0.879 1.619,-17.515 2.075,-24.235 0.136,-2.131 0.266,-4.373 0.329,-5.835 0.077,-1.831 0.084,-3.84 0.021,-4.992 -0.132,-2.383 -2.616,-4.102 -2.616,-4.102 0,0 -8.322,2.159 -12.692,3.108 -2.775,0.602 -10.31,-1.032 -12.975,-0.28 -3.77,1.063 -6.959,6.623 -6.991,7.545" id="path478" style="fill:#605eaa;fill-opacity:1;fill-rule:nonzero;stroke:none"/>
          <path d="m 292.315,54.122 c -0.022,0.632 1.121,4.874 3.107,6.852 5.368,5.345 26.06,19.118 28.921,21.448 0.478,0.389 0.749,0.572 0.756,0.511 0.088,-0.838 1.6,-17.372 2.063,-24.159 0.138,-2.139 0.267,-4.359 0.328,-5.79 0.076,-1.801 0.08,-3.791 0.015,-4.966 -0.134,-2.431 -2.516,-4.233 -2.516,-4.233 0,0 -8.17,2.1 -12.627,3.068 -2.831,0.614 -10.216,-0.892 -12.933,-0.126 -3.847,1.084 -7.082,6.455 -7.114,7.395" id="path480" style="fill:#625ca9;fill-opacity:1;fill-rule:nonzero;stroke:none"/>
          <path d="m 292.366,54.121 c -0.022,0.644 1.154,4.781 3.179,6.798 5.473,5.45 25.854,19.128 28.771,21.504 0.487,0.396 0.764,0.586 0.77,0.527 0.083,-0.796 1.582,-17.228 2.05,-24.082 0.14,-2.147 0.268,-4.345 0.328,-5.745 0.074,-1.771 0.076,-3.743 0.009,-4.941 -0.136,-2.478 -2.417,-4.363 -2.417,-4.363 0,0 -8.017,2.042 -12.562,3.028 -2.886,0.627 -10.12,-0.753 -12.891,0.028 -3.922,1.105 -7.203,6.288 -7.237,7.246" id="path482" style="fill:#645aa7;fill-opacity:1;fill-rule:nonzero;stroke:none"/>
          <path d="m 292.418,54.12 c -0.023,0.657 1.187,4.689 3.251,6.744 5.578,5.555 25.647,19.138 28.62,21.559 0.497,0.405 0.778,0.6 0.784,0.544 0.079,-0.754 1.563,-17.084 2.038,-24.005 0.141,-2.154 0.269,-4.33 0.327,-5.7 0.072,-1.74 0.071,-3.694 0.004,-4.915 -0.139,-2.526 -2.319,-4.494 -2.319,-4.494 0,0 -7.864,1.983 -12.496,2.989 -2.942,0.638 -10.026,-0.615 -12.85,0.181 -3.997,1.127 -7.325,6.12 -7.359,7.097" id="path484" style="fill:#6659a6;fill-opacity:1;fill-rule:nonzero;stroke:none"/>
          <path d="m 292.47,54.119 c -0.024,0.669 1.219,4.597 3.322,6.69 5.684,5.66 25.441,19.148 28.47,21.615 0.506,0.412 0.793,0.613 0.798,0.56 0.075,-0.712 1.544,-16.94 2.026,-23.928 0.143,-2.162 0.27,-4.316 0.327,-5.654 0.07,-1.711 0.066,-3.646 -0.003,-4.89 -0.142,-2.574 -2.219,-4.625 -2.219,-4.625 0,0 -7.712,1.924 -12.432,2.949 -2.997,0.651 -9.93,-0.476 -12.808,0.335 -4.073,1.148 -7.447,5.952 -7.481,6.948" id="path486" style="fill:#6856a5;fill-opacity:1;fill-rule:nonzero;stroke:none"/>
          <path d="m 292.521,54.118 c -0.024,0.681 1.253,4.504 3.394,6.637 5.789,5.764 25.235,19.157 28.32,21.67 0.516,0.419 0.807,0.626 0.812,0.577 0.071,-0.671 1.525,-16.797 2.014,-23.852 0.144,-2.169 0.271,-4.302 0.326,-5.609 0.069,-1.681 0.061,-3.598 -0.008,-4.865 -0.145,-2.621 -2.121,-4.755 -2.121,-4.755 0,0 -7.559,1.866 -12.366,2.91 -3.052,0.662 -9.836,-0.338 -12.767,0.488 -4.148,1.169 -7.569,5.785 -7.604,6.799" id="path488" style="fill:#6a54a3;fill-opacity:1;fill-rule:nonzero;stroke:none"/>
          <path d="m 292.573,54.116 c -0.025,0.694 1.285,4.413 3.466,6.584 5.894,5.869 25.028,19.167 28.169,21.725 0.525,0.427 0.822,0.64 0.827,0.594 0.065,-0.628 1.505,-16.653 2,-23.775 0.146,-2.177 0.273,-4.288 0.326,-5.564 0.067,-1.651 0.057,-3.549 -0.014,-4.839 -0.147,-2.669 -2.021,-4.886 -2.021,-4.886 0,0 -7.407,1.807 -12.301,2.87 -3.108,0.675 -9.742,-0.199 -12.726,0.642 -4.223,1.191 -7.69,5.617 -7.726,6.649" id="path490" style="fill:#6b52a2;fill-opacity:1;fill-rule:nonzero;stroke:none"/>
          <path d="m 292.624,54.115 c -0.024,0.706 1.319,4.32 3.538,6.53 6,5.974 24.821,19.177 28.019,21.781 0.534,0.435 0.836,0.653 0.841,0.61 0.061,-0.586 1.486,-16.509 1.988,-23.698 0.148,-2.185 0.273,-4.274 0.325,-5.519 0.065,-1.621 0.053,-3.5 -0.02,-4.814 -0.15,-2.716 -1.921,-5.016 -1.921,-5.016 0,0 -7.255,1.749 -12.237,2.83 -3.163,0.687 -9.646,-0.06 -12.684,0.796 -4.298,1.212 -7.812,5.45 -7.849,6.5" id="path492" style="fill:#6d50a1;fill-opacity:1;fill-rule:nonzero;stroke:none"/>
          <path d="m 292.676,54.114 c -0.025,0.719 1.351,4.227 3.61,6.476 6.104,6.079 24.614,19.186 27.868,21.836 0.544,0.443 0.851,0.668 0.855,0.627 0.057,-0.544 1.467,-16.365 1.976,-23.621 0.149,-2.192 0.274,-4.26 0.324,-5.474 0.064,-1.591 0.048,-3.452 -0.025,-4.788 -0.153,-2.765 -1.823,-5.146 -1.823,-5.146 0,0 -7.102,1.689 -12.171,2.79 -3.219,0.698 -9.552,0.078 -12.643,0.949 -4.374,1.233 -7.934,5.282 -7.971,6.351" id="path494" style="fill:#6e4ea0;fill-opacity:1;fill-rule:nonzero;stroke:none"/>
          <path d="m 292.728,54.113 c -0.026,0.731 1.383,4.135 3.681,6.423 6.21,6.183 24.408,19.195 27.718,21.891 0.553,0.45 0.865,0.681 0.869,0.644 0.053,-0.503 1.448,-16.223 1.964,-23.545 0.15,-2.2 0.275,-4.246 0.323,-5.429 0.062,-1.561 0.044,-3.403 -0.031,-4.762 -0.155,-2.813 -1.724,-5.277 -1.724,-5.277 0,0 -6.949,1.63 -12.106,2.75 -3.274,0.711 -9.457,0.217 -12.601,1.103 -4.449,1.255 -8.055,5.114 -8.093,6.202" id="path496" style="fill:#704b9e;fill-opacity:1;fill-rule:nonzero;stroke:none"/>
          <path d="m 292.779,54.112 c -0.026,0.743 1.417,4.042 3.753,6.369 6.316,6.288 24.202,19.205 27.568,21.947 0.562,0.457 0.88,0.694 0.883,0.66 0.048,-0.461 1.429,-16.079 1.952,-23.468 0.151,-2.208 0.276,-4.231 0.322,-5.384 0.061,-1.531 0.04,-3.354 -0.037,-4.737 -0.157,-2.86 -1.624,-5.407 -1.624,-5.407 0,0 -6.797,1.572 -12.041,2.71 -3.33,0.723 -9.362,0.356 -12.56,1.257 -4.524,1.276 -8.177,4.947 -8.216,6.053" id="path498" style="fill:#72499d;fill-opacity:1;fill-rule:nonzero;stroke:none"/>
          <path d="m 292.831,54.11 c -0.027,0.756 1.449,3.951 3.825,6.316 6.42,6.393 23.995,19.215 27.417,22.002 0.572,0.466 0.894,0.708 0.897,0.677 0.044,-0.419 1.41,-15.935 1.939,-23.391 0.154,-2.215 0.278,-4.217 0.323,-5.339 0.058,-1.501 0.034,-3.306 -0.043,-4.711 -0.161,-2.908 -1.526,-5.538 -1.526,-5.538 0,0 -6.644,1.513 -11.975,2.671 -3.386,0.735 -9.268,0.494 -12.518,1.41 -4.601,1.297 -8.3,4.779 -8.339,5.903" id="path500" style="fill:#74479c;fill-opacity:1;fill-rule:nonzero;stroke:none"/>
          <path d="m 292.882,54.109 c -0.027,0.768 1.483,3.858 3.897,6.262 6.526,6.498 23.789,19.225 27.267,22.058 0.581,0.473 0.908,0.721 0.911,0.693 0.04,-0.377 1.391,-15.791 1.927,-23.315 0.155,-2.222 0.278,-4.202 0.322,-5.292 0.057,-1.472 0.03,-3.258 -0.049,-4.687 -0.163,-2.955 -1.426,-5.668 -1.426,-5.668 0,0 -6.492,1.455 -11.911,2.631 -3.441,0.747 -9.172,0.633 -12.476,1.564 -4.676,1.319 -8.422,4.612 -8.462,5.754" id="path502" style="fill:#75449a;fill-opacity:1;fill-rule:nonzero;stroke:none"/>
          <path d="m 292.934,54.108 c -0.027,0.781 1.515,3.766 3.968,6.209 6.631,6.602 23.583,19.234 27.117,22.113 0.59,0.48 0.923,0.734 0.926,0.709 0.035,-0.335 1.371,-15.647 1.914,-23.238 0.156,-2.229 0.279,-4.188 0.321,-5.247 0.055,-1.442 0.025,-3.21 -0.055,-4.661 -0.165,-3.003 -1.327,-5.799 -1.327,-5.799 0,0 -6.339,1.396 -11.845,2.591 -3.497,0.759 -9.078,0.772 -12.435,1.718 -4.752,1.34 -8.544,4.444 -8.584,5.605" id="path504" style="fill:#764299;fill-opacity:1;fill-rule:nonzero;stroke:none"/>
          <path d="m 292.985,54.107 c -0.027,0.793 1.549,3.673 4.041,6.155 6.736,6.707 23.376,19.244 26.966,22.168 0.6,0.488 0.937,0.748 0.94,0.727 0.03,-0.294 1.352,-15.504 1.902,-23.162 0.158,-2.237 0.28,-4.174 0.32,-5.202 0.054,-1.412 0.021,-3.161 -0.06,-4.635 -0.169,-3.051 -1.228,-5.93 -1.228,-5.93 0,0 -6.187,1.337 -11.781,2.552 -3.551,0.771 -8.983,0.91 -12.393,1.871 -4.827,1.361 -8.665,4.276 -8.707,5.456" id="path506" style="fill:#783f98;fill-opacity:1;fill-rule:nonzero;stroke:none"/>
          <path d="m 293.037,54.106 c -0.028,0.805 1.581,3.581 4.112,6.101 6.842,6.812 23.17,19.254 26.816,22.224 0.609,0.496 0.952,0.761 0.954,0.743 0.026,-0.251 1.333,-15.36 1.89,-23.085 0.159,-2.245 0.281,-4.16 0.319,-5.157 0.052,-1.382 0.017,-3.112 -0.066,-4.61 -0.171,-3.098 -1.129,-6.059 -1.129,-6.059 0,0 -6.034,1.278 -11.715,2.511 -3.607,0.783 -8.888,1.049 -12.352,2.026 -4.902,1.382 -8.787,4.108 -8.829,5.306" id="path508" style="fill:#793d97;fill-opacity:1;fill-rule:nonzero;stroke:none"/>
          <path d="m 293.089,54.105 c -0.029,0.817 1.614,3.488 4.184,6.047 6.946,6.917 22.963,19.264 26.665,22.279 0.619,0.504 0.966,0.776 0.968,0.76 0.022,-0.209 1.314,-15.216 1.878,-23.008 0.16,-2.252 0.282,-4.146 0.318,-5.112 0.051,-1.352 0.012,-3.064 -0.072,-4.584 -0.173,-3.146 -1.029,-6.19 -1.029,-6.19 0,0 -5.882,1.219 -11.65,2.471 -3.663,0.796 -8.794,1.188 -12.311,2.18 -4.978,1.403 -8.909,3.94 -8.951,5.157" id="path510" style="fill:#7b3996;fill-opacity:1;fill-rule:nonzero;stroke:none"/>
          <path d="m 293.14,54.103 c -0.029,0.83 1.647,3.397 4.256,5.994 7.052,7.023 22.756,19.274 26.515,22.335 0.628,0.511 0.981,0.789 0.982,0.776 0.018,-0.167 1.295,-15.072 1.865,-22.931 0.163,-2.26 0.283,-4.131 0.318,-5.067 0.049,-1.322 0.008,-3.015 -0.077,-4.559 -0.176,-3.193 -0.931,-6.32 -0.931,-6.32 0,0 -5.729,1.16 -11.585,2.432 -3.718,0.807 -8.698,1.326 -12.269,2.333 -5.053,1.424 -9.031,3.772 -9.074,5.007" id="path512" style="fill:#7c3694;fill-opacity:1;fill-rule:nonzero;stroke:none"/>
          <path d="m 293.192,54.102 c -0.03,0.843 1.68,3.304 4.327,5.941 7.158,7.127 22.55,19.283 26.365,22.39 0.637,0.518 0.995,0.802 0.996,0.793 0.013,-0.126 1.276,-14.929 1.853,-22.855 0.164,-2.268 0.284,-4.117 0.318,-5.022 0.047,-1.292 0.002,-2.966 -0.084,-4.533 -0.179,-3.241 -0.831,-6.451 -0.831,-6.451 0,0 -5.577,1.102 -11.52,2.392 -3.774,0.82 -8.604,1.465 -12.228,2.487 -5.128,1.445 -9.152,3.605 -9.196,4.858" id="path514" style="fill:#7d3393;fill-opacity:1;fill-rule:nonzero;stroke:none"/>
          <path d="m 293.243,54.101 c -0.029,0.855 1.713,3.211 4.4,5.887 7.262,7.232 22.343,19.293 26.215,22.445 0.646,0.527 1.009,0.816 1.009,0.81 0.009,-0.084 1.257,-14.785 1.841,-22.778 0.165,-2.275 0.285,-4.103 0.317,-4.976 0.045,-1.263 -0.002,-2.919 -0.09,-4.508 -0.181,-3.289 -0.732,-6.582 -0.732,-6.582 0,0 -5.424,1.043 -11.454,2.352 -3.83,0.832 -8.51,1.604 -12.187,2.641 -5.204,1.467 -9.274,3.437 -9.319,4.709" id="path516" style="fill:#7e3092;fill-opacity:1;fill-rule:nonzero;stroke:none"/>
          <path d="m 293.295,54.1 c -0.03,0.867 1.745,3.119 4.471,5.833 7.368,7.337 22.137,19.303 26.064,22.501 0.656,0.534 1.024,0.829 1.025,0.826 0.004,-0.042 1.237,-14.641 1.828,-22.701 0.166,-2.283 0.286,-4.089 0.316,-4.931 0.044,-1.233 -0.006,-2.87 -0.095,-4.483 -0.184,-3.336 -0.633,-6.712 -0.633,-6.712 0,0 -5.272,0.985 -11.39,2.313 -3.885,0.844 -8.414,1.742 -12.145,2.794 -5.279,1.488 -9.396,3.27 -9.441,4.56" id="path518" style="fill:#802d91;fill-opacity:1;fill-rule:nonzero;stroke:none"/>
          <path d="m 326.338,44.468 c 0,0 0.764,7.61 0.635,11.299 -0.129,3.69 -2.131,27.51 -2.131,27.51 0,0 -31.623,-25.524 -31.495,-29.178 0.129,-3.69 32.991,-9.631 32.991,-9.631" id="path520" style="fill:#812990;fill-opacity:1;fill-rule:nonzero;stroke:none"/>
          <path d="m 293.411,54.11 c -0.127,3.626 31.201,28.905 31.365,29.034 0.02,0.016 0.04,-0.067 0.054,-0.241 0.216,-2.572 1.928,-23.562 2.048,-27.092 0.017,-0.502 0.019,-1.068 0.008,-1.669 -0.04,-2.552 -0.284,-5.77 -0.453,-7.707 -0.093,-1.067 -0.165,-1.762 -0.169,-1.762 -0.086,0.002 -32.725,5.77 -32.853,9.437" id="path522" style="fill:#85298b;fill-opacity:1;fill-rule:nonzero;stroke:none"/>
          <path d="m 293.475,54.121 c -0.126,3.598 30.908,28.632 31.235,28.889 0.041,0.033 0.072,-0.038 0.086,-0.206 0.209,-2.487 1.867,-23.346 1.987,-26.95 0.017,-0.506 0.019,-1.07 0.009,-1.662 -0.035,-2.571 -0.269,-5.737 -0.432,-7.611 -0.09,-1.031 -0.162,-1.702 -0.172,-1.702 -0.171,0.003 -32.586,5.598 -32.713,9.242" id="path524" style="fill:#882888;fill-opacity:1;fill-rule:nonzero;stroke:none"/>
          <path d="m 293.539,54.132 c -0.125,3.57 30.615,28.358 31.105,28.745 0.062,0.049 0.104,-0.01 0.118,-0.172 0.201,-2.401 1.807,-23.13 1.926,-26.807 0.017,-0.512 0.019,-1.074 0.01,-1.656 -0.03,-2.59 -0.254,-5.705 -0.411,-7.514 -0.087,-0.996 -0.16,-1.644 -0.173,-1.644 -0.257,0.005 -32.449,5.427 -32.575,9.048" id="path526" style="fill:#8c2885;fill-opacity:1;fill-rule:nonzero;stroke:none"/>
          <path d="m 293.603,54.143 c -0.124,3.542 30.322,28.085 30.975,28.601 0.083,0.065 0.137,0.018 0.15,-0.138 0.194,-2.316 1.746,-22.913 1.865,-26.665 0.016,-0.516 0.019,-1.076 0.011,-1.649 -0.026,-2.61 -0.239,-5.673 -0.391,-7.417 -0.084,-0.96 -0.156,-1.585 -0.174,-1.585 -0.343,0.007 -32.311,5.255 -32.436,8.853" id="path528" style="fill:#902882;fill-opacity:1;fill-rule:nonzero;stroke:none"/>
          <path d="m 293.667,54.153 c -0.123,3.514 30.028,27.812 30.845,28.457 0.104,0.082 0.169,0.047 0.181,-0.103 0.187,-2.23 1.687,-22.697 1.805,-26.522 0.016,-0.522 0.019,-1.079 0.012,-1.643 -0.021,-2.629 -0.224,-5.641 -0.37,-7.321 -0.081,-0.924 -0.153,-1.526 -0.176,-1.526 -0.428,0.008 -32.172,5.084 -32.297,8.658" id="path530" style="fill:#93277f;fill-opacity:1;fill-rule:nonzero;stroke:none"/>
          <path d="m 293.731,54.164 c -0.122,3.486 29.735,27.539 30.715,28.313 0.125,0.098 0.201,0.076 0.213,-0.069 0.18,-2.144 1.626,-22.481 1.744,-26.38 0.016,-0.526 0.019,-1.082 0.012,-1.636 -0.015,-2.649 -0.208,-5.609 -0.349,-7.224 -0.077,-0.889 -0.15,-1.468 -0.177,-1.467 -0.514,0.01 -32.034,4.912 -32.158,8.463" id="path532" style="fill:#97277c;fill-opacity:1;fill-rule:nonzero;stroke:none"/>
          <path d="m 293.795,54.175 c -0.121,3.458 29.442,27.266 30.585,28.168 0.145,0.115 0.233,0.105 0.245,-0.034 0.172,-2.059 1.566,-22.264 1.683,-26.237 0.016,-0.531 0.019,-1.085 0.013,-1.63 -0.01,-2.668 -0.193,-5.577 -0.328,-7.127 -0.074,-0.853 -0.147,-1.409 -0.179,-1.408 -0.599,0.011 -31.896,4.74 -32.019,8.268" id="path534" style="fill:#9a2778;fill-opacity:1;fill-rule:nonzero;stroke:none"/>
          <path d="m 293.859,54.187 c -0.12,3.429 29.149,26.991 30.456,28.023 0.165,0.13 0.265,0.133 0.276,0 0.165,-1.973 1.505,-22.048 1.622,-26.095 0.016,-0.536 0.019,-1.087 0.014,-1.623 -0.005,-2.687 -0.178,-5.545 -0.307,-7.03 -0.071,-0.818 -0.144,-1.351 -0.181,-1.35 -0.685,0.013 -31.758,4.569 -31.88,8.075" id="path536" style="fill:#9d2776;fill-opacity:1;fill-rule:nonzero;stroke:none"/>
          <path d="m 293.922,54.198 c -0.118,3.401 28.856,26.718 30.327,27.878 0.186,0.147 0.297,0.162 0.307,0.034 0.159,-1.886 1.446,-21.831 1.561,-25.951 0.016,-0.541 0.02,-1.09 0.016,-1.617 -10e-4,-2.707 -0.163,-5.513 -0.287,-6.934 -0.068,-0.782 -0.141,-1.291 -0.182,-1.29 -0.77,0.014 -31.62,4.397 -31.742,7.88" id="path538" style="fill:#a02773;fill-opacity:1;fill-rule:nonzero;stroke:none"/>
          <path d="m 293.987,54.208 c -0.118,3.374 28.562,26.446 30.196,27.735 0.207,0.163 0.329,0.19 0.339,0.068 0.151,-1.801 1.385,-21.615 1.501,-25.808 0.015,-0.546 0.02,-1.094 0.016,-1.611 0.004,-2.726 -0.148,-5.48 -0.266,-6.837 -0.065,-0.747 -0.138,-1.233 -0.184,-1.232 -0.856,0.017 -31.482,4.226 -31.602,7.685" id="path540" style="fill:#a42770;fill-opacity:1;fill-rule:nonzero;stroke:none"/>
          <path d="m 294.05,54.22 c -0.116,3.345 28.27,26.171 30.067,27.589 0.228,0.18 0.361,0.219 0.371,0.103 0.144,-1.715 1.325,-21.398 1.439,-25.666 0.016,-0.551 0.021,-1.096 0.018,-1.603 0.009,-2.747 -0.133,-5.449 -0.245,-6.741 -0.062,-0.711 -0.135,-1.174 -0.186,-1.173 -0.941,0.018 -31.344,4.054 -31.464,7.491" id="path542" style="fill:#a7276d;fill-opacity:1;fill-rule:nonzero;stroke:none"/>
          <path d="m 294.115,54.231 c -0.116,3.317 27.976,25.898 29.936,27.445 0.248,0.196 0.393,0.247 0.403,0.137 0.136,-1.63 1.264,-21.182 1.378,-25.523 0.016,-0.556 0.021,-1.1 0.018,-1.597 0.015,-2.766 -0.116,-5.417 -0.224,-6.644 -0.058,-0.676 -0.132,-1.116 -0.187,-1.115 -1.027,0.02 -31.205,3.883 -31.324,7.297" id="path544" style="fill:#ab2669;fill-opacity:1;fill-rule:nonzero;stroke:none"/>
          <path d="m 294.178,54.242 c -0.114,3.289 27.683,25.624 29.807,27.3 0.269,0.213 0.426,0.276 0.434,0.172 0.13,-1.544 1.205,-20.966 1.318,-25.381 0.015,-0.561 0.021,-1.102 0.019,-1.59 0.02,-2.785 -0.101,-5.385 -0.203,-6.548 -0.056,-0.64 -0.129,-1.056 -0.189,-1.055 -1.112,0.021 -31.067,3.711 -31.186,7.102" id="path546" style="fill:#ae2666;fill-opacity:1;fill-rule:nonzero;stroke:none"/>
          <path d="m 294.242,54.253 c -0.114,3.261 27.39,25.351 29.677,27.156 0.29,0.229 0.458,0.304 0.466,0.206 0.122,-1.458 1.144,-20.75 1.257,-25.238 0.015,-0.566 0.021,-1.105 0.02,-1.584 0.025,-2.805 -0.086,-5.353 -0.182,-6.451 -0.053,-0.604 -0.126,-0.998 -0.191,-0.996 -1.197,0.022 -30.929,3.539 -31.047,6.907" id="path548" style="fill:#b22663;fill-opacity:1;fill-rule:nonzero;stroke:none"/>
          <path d="m 294.306,54.264 c -0.113,3.233 27.097,25.077 29.547,27.011 0.311,0.246 0.49,0.333 0.498,0.241 0.115,-1.373 1.084,-20.533 1.196,-25.096 0.015,-0.57 0.021,-1.108 0.021,-1.577 0.029,-2.824 -0.071,-5.321 -0.162,-6.354 -0.049,-0.569 -0.123,-0.939 -0.192,-0.938 -1.283,0.025 -30.791,3.368 -30.908,6.713" id="path550" style="fill:#b52660;fill-opacity:1;fill-rule:nonzero;stroke:none"/>
          <path d="m 294.37,54.275 c -0.112,3.204 26.803,24.804 29.417,26.867 0.332,0.262 0.522,0.361 0.53,0.275 0.107,-1.287 1.023,-20.317 1.135,-24.953 0.015,-0.576 0.021,-1.111 0.022,-1.571 0.034,-2.844 -0.056,-5.289 -0.141,-6.258 -0.046,-0.533 -0.12,-0.88 -0.194,-0.878 -1.368,0.026 -30.653,3.196 -30.769,6.518" id="path552" style="fill:#b8255d;fill-opacity:1;fill-rule:nonzero;stroke:none"/>
          <path d="m 294.434,54.286 c -0.111,3.176 26.51,24.531 29.287,26.723 0.353,0.277 0.555,0.389 0.561,0.308 0.101,-1.2 0.964,-20.1 1.075,-24.81 0.015,-0.58 0.021,-1.113 0.023,-1.564 0.039,-2.863 -0.041,-5.256 -0.12,-6.161 -0.044,-0.498 -0.117,-0.821 -0.196,-0.82 -1.454,0.028 -30.514,3.025 -30.63,6.324" id="path554" style="fill:#bc2559;fill-opacity:1;fill-rule:nonzero;stroke:none"/>
          <path d="m 294.498,54.297 c -0.11,3.148 26.217,24.257 29.158,26.578 0.372,0.294 0.586,0.419 0.592,0.343 0.093,-1.115 0.903,-19.883 1.014,-24.667 0.014,-0.586 0.021,-1.117 0.023,-1.558 0.045,-2.883 -0.025,-5.224 -0.098,-6.064 -0.041,-0.462 -0.115,-0.763 -0.198,-0.761 -1.54,0.029 -30.376,2.853 -30.491,6.129" id="path556" style="fill:#bf2456;fill-opacity:1;fill-rule:nonzero;stroke:none"/>
          <path d="m 294.562,54.308 c -0.109,3.12 25.924,23.984 29.028,26.434 0.393,0.31 0.618,0.447 0.624,0.377 0.086,-1.029 0.843,-19.667 0.953,-24.524 0.014,-0.591 0.022,-1.12 0.024,-1.552 0.05,-2.902 -0.01,-5.192 -0.078,-5.967 -0.037,-0.427 -0.111,-0.704 -0.199,-0.703 -1.625,0.031 -30.238,2.682 -30.352,5.935" id="path558" style="fill:#c32453;fill-opacity:1;fill-rule:nonzero;stroke:none"/>
          <path d="m 294.626,54.319 c -0.108,3.092 25.631,23.711 28.898,26.289 0.414,0.327 0.65,0.476 0.656,0.412 0.079,-0.943 0.782,-19.451 0.892,-24.382 0.014,-0.595 0.022,-1.122 0.025,-1.545 0.055,-2.921 0.005,-5.16 -0.057,-5.871 -0.034,-0.391 -0.108,-0.645 -0.201,-0.643 -1.71,0.033 -30.1,2.51 -30.213,5.74" id="path560" style="fill:#c72350;fill-opacity:1;fill-rule:nonzero;stroke:none"/>
          <path d="m 294.69,54.329 c -0.107,3.065 25.337,23.438 28.768,26.146 0.435,0.343 0.683,0.504 0.687,0.446 0.072,-0.858 0.723,-19.234 0.832,-24.239 0.014,-0.601 0.022,-1.126 0.026,-1.538 0.059,-2.942 0.02,-5.129 -0.037,-5.775 -0.031,-0.356 -0.105,-0.586 -0.202,-0.585 -1.796,0.035 -29.962,2.34 -30.074,5.545" id="path562" style="fill:#ca234c;fill-opacity:1;fill-rule:nonzero;stroke:none"/>
          <path d="m 294.754,54.34 c -0.106,3.037 25.044,23.165 28.638,26.001 0.456,0.36 0.715,0.533 0.719,0.481 0.065,-0.772 0.662,-19.018 0.771,-24.097 0.013,-0.605 0.022,-1.128 0.027,-1.531 0.064,-2.961 0.035,-5.097 -0.016,-5.678 -0.028,-0.32 -0.102,-0.528 -0.204,-0.526 -1.881,0.036 -29.824,2.167 -29.935,5.35" id="path564" style="fill:#cd2248;fill-opacity:1;fill-rule:nonzero;stroke:none"/>
          <path d="m 294.818,54.351 c -0.105,3.009 24.751,22.891 28.508,25.857 0.476,0.376 0.747,0.561 0.751,0.515 0.057,-0.687 0.602,-18.802 0.71,-23.954 0.013,-0.611 0.022,-1.131 0.027,-1.525 0.07,-2.981 0.051,-5.065 0.006,-5.581 -0.025,-0.285 -0.1,-0.469 -0.205,-0.467 -1.968,0.037 -29.686,1.995 -29.797,5.155" id="path566" style="fill:#d12245;fill-opacity:1;fill-rule:nonzero;stroke:none"/>
          <path d="m 294.882,54.363 c -0.104,2.98 24.458,22.617 28.378,25.711 0.497,0.393 0.779,0.59 0.782,0.55 0.051,-0.601 0.542,-18.586 0.65,-23.812 0.013,-0.615 0.022,-1.134 0.028,-1.518 0.075,-3 0.066,-5.033 0.026,-5.485 -0.021,-0.249 -0.096,-0.41 -0.206,-0.408 -2.053,0.04 -29.548,1.824 -29.658,4.962" id="path568" style="fill:#d42141;fill-opacity:1;fill-rule:nonzero;stroke:none"/>
          <path d="m 294.946,54.374 c -0.103,2.952 24.164,22.344 28.248,25.567 0.518,0.408 0.811,0.618 0.814,0.583 0.044,-0.514 0.482,-18.368 0.589,-23.668 0.013,-0.62 0.022,-1.137 0.029,-1.512 0.08,-3.019 0.081,-5 0.047,-5.388 -0.019,-0.213 -0.093,-0.351 -0.208,-0.349 -2.139,0.041 -29.41,1.653 -29.519,4.767" id="path570" style="fill:#d7203c;fill-opacity:1;fill-rule:nonzero;stroke:none"/>
          <path d="m 295.01,54.385 c -0.102,2.923 23.871,22.07 28.119,25.422 0.538,0.425 0.842,0.647 0.845,0.618 0.036,-0.429 0.421,-18.152 0.528,-23.526 0.013,-0.625 0.022,-1.139 0.03,-1.505 0.085,-3.039 0.096,-4.968 0.068,-5.291 -0.016,-0.178 -0.09,-0.293 -0.21,-0.29 -2.224,0.042 -29.272,1.481 -29.38,4.572" id="path572" style="fill:#da1f38;fill-opacity:1;fill-rule:nonzero;stroke:none"/>
          <path d="m 295.074,54.396 c -0.101,2.895 23.578,21.797 27.989,25.278 0.559,0.441 0.875,0.675 0.877,0.652 0.029,-0.343 0.361,-17.936 0.467,-23.383 0.012,-0.63 0.023,-1.143 0.031,-1.499 0.089,-3.058 0.111,-4.936 0.088,-5.195 -0.012,-0.142 -0.087,-0.233 -0.211,-0.231 -2.31,0.044 -29.134,1.31 -29.241,4.378" id="path574" style="fill:#de1f34;fill-opacity:1;fill-rule:nonzero;stroke:none"/>
          <path d="m 295.138,54.407 c -0.1,2.867 23.285,21.523 27.859,25.133 0.58,0.458 0.907,0.704 0.909,0.687 0.021,-0.257 0.3,-17.719 0.406,-23.241 0.012,-0.634 0.023,-1.145 0.032,-1.492 0.094,-3.078 0.126,-4.904 0.109,-5.098 -0.009,-0.107 -0.084,-0.175 -0.213,-0.172 -2.395,0.045 -28.996,1.138 -29.102,4.183" id="path576" style="fill:#e11e30;fill-opacity:1;fill-rule:nonzero;stroke:none"/>
          <path d="m 295.202,54.418 c -0.099,2.839 22.991,21.25 27.729,24.989 0.6,0.474 0.939,0.732 0.94,0.721 0.015,-0.172 0.241,-17.503 0.346,-23.098 0.012,-0.64 0.023,-1.148 0.032,-1.486 0.1,-3.097 0.142,-4.872 0.131,-5.001 -0.006,-0.071 -0.082,-0.116 -0.215,-0.114 -2.481,0.048 -28.857,0.967 -28.963,3.989" id="path578" style="fill:#e51e2c;fill-opacity:1;fill-rule:nonzero;stroke:none"/>
          <path d="m 295.266,54.428 c -0.098,2.812 22.698,20.978 27.599,24.845 0.621,0.491 0.971,0.762 0.972,0.756 0.007,-0.086 0.18,-17.287 0.285,-22.955 0.012,-0.645 0.023,-1.152 0.033,-1.48 0.105,-3.117 0.157,-4.84 0.151,-4.904 -0.003,-0.036 -0.078,-0.058 -0.216,-0.055 -2.566,0.049 -28.719,0.795 -28.824,3.793" id="path580" style="fill:#e81d28;fill-opacity:1;fill-rule:nonzero;stroke:none"/>
          <path d="m 324.233,50.836 c 0,0 -0.062,1.672 -0.172,4.808 -0.11,3.136 -0.258,24.286 -0.258,24.286 0,0 -28.583,-22.354 -28.473,-25.491 0.11,-3.136 28.903,-3.603 28.903,-3.603" id="path582" style="fill:#ed1c24;fill-opacity:1;fill-rule:nonzero;stroke:none"/>
          <path d="m 295.374,54.443 c -0.109,3.122 28.452,25.431 28.452,25.431 0,0 0.189,-21.102 0.299,-24.244 0.051,-1.449 0.089,-2.484 0.117,-3.258 0.034,-0.948 0.047,-1.438 0.036,-1.439 -0.125,-0.008 -28.796,0.396 -28.904,3.51" id="path584" style="fill:#ee2a24;fill-opacity:1;fill-rule:nonzero;stroke:none"/>
          <path d="m 295.417,54.447 c -0.108,3.106 28.432,25.372 28.432,25.372 0,0 0.23,-21.056 0.34,-24.203 0.052,-1.49 0.089,-2.447 0.116,-3.194 0.033,-0.916 0.04,-1.391 0.019,-1.392 -0.251,-0.016 -28.799,0.325 -28.907,3.417" id="path586" style="fill:#ee3624;fill-opacity:1;fill-rule:nonzero;stroke:none"/>
          <path d="m 295.461,54.451 c -0.108,3.091 28.411,25.312 28.411,25.312 0,0 0.271,-21.008 0.381,-24.161 0.053,-1.53 0.09,-2.409 0.116,-3.131 0.031,-0.884 0.031,-1.343 0,-1.345 -0.376,-0.024 -28.801,0.255 -28.908,3.325" id="path588" style="fill:#ef4023;fill-opacity:1;fill-rule:nonzero;stroke:none"/>
          <path d="m 295.505,54.455 c -0.108,3.076 28.39,25.253 28.39,25.253 0,0 0.311,-20.962 0.421,-24.119 0.055,-1.572 0.091,-2.372 0.116,-3.068 0.031,-0.853 0.024,-1.296 -0.018,-1.299 -0.501,-0.031 -28.803,0.184 -28.909,3.233" id="path590" style="fill:#f04923;fill-opacity:1;fill-rule:nonzero;stroke:none"/>
          <path d="m 295.548,54.459 c -0.107,3.06 28.371,25.193 28.371,25.193 0,0 0.351,-20.915 0.461,-24.078 0.057,-1.611 0.091,-2.333 0.115,-3.004 0.03,-0.821 0.017,-1.248 -0.036,-1.251 -0.626,-0.04 -28.805,0.113 -28.911,3.14" id="path592" style="fill:#f05123;fill-opacity:1;fill-rule:nonzero;stroke:none"/>
          <path d="m 295.592,54.463 c -0.107,3.045 28.35,25.134 28.35,25.134 0,0 0.392,-20.868 0.502,-24.036 0.058,-1.653 0.091,-2.297 0.115,-2.941 0.028,-0.79 0.009,-1.201 -0.054,-1.205 -0.751,-0.047 -28.808,0.043 -28.913,3.048" id="path594" style="fill:#f15822;fill-opacity:1;fill-rule:nonzero;stroke:none"/>
          <path d="m 295.635,54.467 c -0.105,3.03 28.33,25.074 28.33,25.074 0,0 0.432,-20.821 0.543,-23.994 0.059,-1.693 0.092,-2.259 0.114,-2.877 0.027,-0.758 0.002,-1.154 -0.072,-1.158 -0.877,-0.056 -28.81,-0.029 -28.915,2.955" id="path596" style="fill:#f16022;fill-opacity:1;fill-rule:nonzero;stroke:none"/>
          <path d="m 295.679,54.47 c -0.105,3.015 28.309,25.016 28.309,25.016 0,0 0.473,-20.774 0.584,-23.953 0.061,-1.734 0.092,-2.221 0.113,-2.814 0.026,-0.726 -0.005,-1.106 -0.09,-1.111 -1.001,-0.063 -28.812,-0.099 -28.916,2.862" id="path598" style="fill:#f26722;fill-opacity:1;fill-rule:nonzero;stroke:none"/>
          <path d="m 295.723,54.474 c -0.105,3 28.289,24.956 28.289,24.956 0,0 0.513,-20.727 0.624,-23.911 0.062,-1.774 0.092,-2.183 0.113,-2.75 0.025,-0.695 -0.013,-1.058 -0.108,-1.064 -1.128,-0.072 -28.816,-0.17 -28.918,2.769" id="path600" style="fill:#f36e21;fill-opacity:1;fill-rule:nonzero;stroke:none"/>
          <path d="m 295.766,54.478 c -0.104,2.985 28.269,24.897 28.269,24.897 0,0 0.553,-20.681 0.665,-23.87 0.063,-1.815 0.092,-2.146 0.112,-2.687 0.024,-0.663 -0.021,-1.01 -0.126,-1.017 -1.252,-0.079 -28.818,-0.241 -28.92,2.677" id="path602" style="fill:#f47421;fill-opacity:1;fill-rule:nonzero;stroke:none"/>
          <path d="m 295.81,54.482 c -0.104,2.969 28.248,24.837 28.248,24.837 0,0 0.594,-20.633 0.706,-23.828 0.065,-1.855 0.093,-2.108 0.111,-2.623 0.023,-0.632 -0.028,-0.963 -0.144,-0.971 -1.377,-0.086 -28.82,-0.311 -28.921,2.585" id="path604" style="fill:#f47a20;fill-opacity:1;fill-rule:nonzero;stroke:none"/>
          <path d="m 295.854,54.486 c -0.104,2.954 28.227,24.778 28.227,24.778 0,0 0.635,-20.587 0.747,-23.787 0.066,-1.896 0.093,-2.07 0.11,-2.56 0.022,-0.6 -0.035,-0.915 -0.162,-0.923 -1.502,-0.095 -28.822,-0.382 -28.922,2.492" id="path606" style="fill:#f58020;fill-opacity:1;fill-rule:nonzero;stroke:none"/>
          <path d="m 295.897,54.49 c -0.103,2.939 28.207,24.718 28.207,24.718 0,0 0.675,-20.54 0.787,-23.745 0.068,-1.936 0.094,-2.032 0.111,-2.496 0.02,-0.569 -0.043,-0.868 -0.18,-0.877 -1.628,-0.102 -28.825,-0.452 -28.925,2.4" id="path608" style="fill:#f6861f;fill-opacity:1;fill-rule:nonzero;stroke:none"/>
          <path d="m 295.941,54.493 c -0.102,2.924 28.186,24.66 28.186,24.66 0,0 0.716,-20.493 0.828,-23.704 0.069,-1.977 0.094,-1.994 0.11,-2.432 0.019,-0.538 -0.05,-0.821 -0.198,-0.83 -1.753,-0.111 -28.827,-0.524 -28.926,2.306" id="path610" style="fill:#f68b1e;fill-opacity:1;fill-rule:nonzero;stroke:none"/>
          <path d="m 295.984,54.497 c -0.101,2.909 28.167,24.6 28.167,24.6 0,0 0.756,-20.446 0.868,-23.662 0.071,-2.017 0.094,-1.957 0.109,-2.369 0.019,-0.505 -0.057,-0.773 -0.216,-0.783 -1.878,-0.118 -28.829,-0.594 -28.928,2.214" id="path612" style="fill:#f7911e;fill-opacity:1;fill-rule:nonzero;stroke:none"/>
          <path d="m 296.028,54.501 c -0.101,2.894 28.146,24.541 28.146,24.541 0,0 0.796,-20.4 0.909,-23.621 0.072,-2.058 0.095,-1.919 0.109,-2.305 0.017,-0.474 -0.066,-0.726 -0.234,-0.736 -2.004,-0.127 -28.833,-0.665 -28.93,2.121" id="path614" style="fill:#f8971d;fill-opacity:1;fill-rule:nonzero;stroke:none"/>
          <path d="m 296.072,54.505 c -0.101,2.878 28.125,24.481 28.125,24.481 0,0 0.837,-20.352 0.95,-23.579 0.073,-2.098 0.095,-1.881 0.108,-2.242 0.016,-0.442 -0.073,-0.678 -0.252,-0.689 -2.129,-0.134 -28.835,-0.735 -28.931,2.029" id="path616" style="fill:#f99d1c;fill-opacity:1;fill-rule:nonzero;stroke:none"/>
          <path d="m 296.115,54.509 c -0.099,2.863 28.105,24.422 28.105,24.422 0,0 0.878,-20.306 0.991,-23.538 0.074,-2.139 0.095,-1.843 0.107,-2.178 0.015,-0.411 -0.08,-0.63 -0.27,-0.642 -2.254,-0.143 -28.837,-0.807 -28.933,1.936" id="path618" style="fill:#faa21b;fill-opacity:1;fill-rule:nonzero;stroke:none"/>
          <path d="m 296.159,54.513 c -0.099,2.848 28.084,24.362 28.084,24.362 0,0 0.919,-20.258 1.032,-23.496 0.076,-2.179 0.095,-1.805 0.107,-2.115 0.013,-0.379 -0.088,-0.582 -0.288,-0.595 -2.38,-0.15 -28.84,-0.877 -28.935,1.844" id="path620" style="fill:#faa819;fill-opacity:1;fill-rule:nonzero;stroke:none"/>
          <path d="m 296.203,54.517 c -0.099,2.832 28.064,24.303 28.064,24.303 0,0 0.958,-20.212 1.072,-23.455 0.077,-2.219 0.096,-1.767 0.106,-2.051 0.012,-0.348 -0.095,-0.535 -0.306,-0.549 -2.505,-0.158 -28.842,-0.947 -28.936,1.752" id="path622" style="fill:#fbaf17;fill-opacity:1;fill-rule:nonzero;stroke:none"/>
          <path d="m 296.246,54.52 c -0.098,2.818 28.044,24.244 28.044,24.244 0,0 0.999,-20.165 1.112,-23.413 0.079,-2.26 0.097,-1.73 0.106,-1.987 0.012,-0.317 -0.102,-0.488 -0.324,-0.502 -2.63,-0.166 -28.844,-1.019 -28.938,1.658" id="path624" style="fill:#fdb415;fill-opacity:1;fill-rule:nonzero;stroke:none"/>
          <path d="m 296.29,54.524 c -0.098,2.803 28.023,24.185 28.023,24.185 0,0 1.04,-20.118 1.153,-23.371 0.081,-2.301 0.097,-1.693 0.105,-1.925 0.011,-0.284 -0.109,-0.44 -0.342,-0.455 -2.755,-0.173 -28.846,-1.089 -28.939,1.566" id="path626" style="fill:#fdba12;fill-opacity:1;fill-rule:nonzero;stroke:none"/>
          <path d="m 296.334,54.528 c -0.098,2.787 28.002,24.125 28.002,24.125 0,0 1.08,-20.071 1.194,-23.33 0.082,-2.341 0.097,-1.654 0.105,-1.861 0.009,-0.252 -0.118,-0.392 -0.36,-0.407 -2.881,-0.182 -28.849,-1.16 -28.941,1.473" id="path628" style="fill:#fec00f;fill-opacity:1;fill-rule:nonzero;stroke:none"/>
          <path d="m 296.377,54.532 c -0.097,2.772 27.982,24.066 27.982,24.066 0,0 1.121,-20.025 1.235,-23.288 0.083,-2.382 0.098,-1.617 0.104,-1.798 0.008,-0.221 -0.125,-0.345 -0.378,-0.361 -3.006,-0.189 -28.851,-1.231 -28.943,1.381" id="path630" style="fill:#ffc60a;fill-opacity:1;fill-rule:nonzero;stroke:none"/>
          <path d="m 296.421,54.536 c -0.096,2.757 27.962,24.006 27.962,24.006 0,0 1.161,-19.977 1.275,-23.246 0.084,-2.423 0.098,-1.58 0.104,-1.734 0.006,-0.19 -0.133,-0.298 -0.397,-0.314 -3.13,-0.198 -28.854,-1.302 -28.944,1.288" id="path632" style="fill:#ffcd03;fill-opacity:1;fill-rule:nonzero;stroke:none"/>
          <path d="m 296.464,54.54 c -0.095,2.741 27.942,23.947 27.942,23.947 0,0 1.201,-19.931 1.316,-23.205 0.086,-2.463 0.098,-1.542 0.103,-1.671 0.005,-0.158 -0.14,-0.249 -0.414,-0.267 -3.256,-0.205 -28.857,-1.372 -28.947,1.196" id="path634" style="fill:#ffd200;fill-opacity:1;fill-rule:nonzero;stroke:none"/>
          <path d="m 296.508,54.544 c -0.095,2.726 27.921,23.887 27.921,23.887 0,0 1.242,-19.883 1.357,-23.163 0.087,-2.504 0.098,-1.504 0.102,-1.607 0.005,-0.127 -0.147,-0.202 -0.432,-0.22 -3.381,-0.214 -28.859,-1.444 -28.948,1.103" id="path636" style="fill:#ffd800;fill-opacity:1;fill-rule:nonzero;stroke:none"/>
          <path d="m 296.552,54.547 c -0.095,2.712 27.9,23.829 27.9,23.829 0,0 1.283,-19.837 1.398,-23.122 0.088,-2.544 0.099,-1.466 0.101,-1.544 0.004,-0.094 -0.154,-0.154 -0.45,-0.173 -3.506,-0.221 -28.861,-1.514 -28.949,1.01" id="path638" style="fill:#ffde00;fill-opacity:1;fill-rule:nonzero;stroke:none"/>
          <path d="m 296.595,54.551 c -0.094,2.696 27.88,23.769 27.88,23.769 0,0 1.323,-19.79 1.438,-23.08 0.091,-2.585 0.1,-1.429 0.102,-1.48 0.002,-0.063 -0.163,-0.107 -0.469,-0.126 -3.631,-0.23 -28.863,-1.585 -28.951,0.917" id="path640" style="fill:#ffe400;fill-opacity:1;fill-rule:nonzero;stroke:none"/>
          <path d="m 296.639,54.555 c -0.094,2.681 27.86,23.71 27.86,23.71 0,0 1.363,-19.743 1.478,-23.039 0.092,-2.625 0.1,-1.391 0.101,-1.417 0.001,-0.031 -0.17,-0.059 -0.486,-0.079 -3.757,-0.237 -28.866,-1.655 -28.953,0.825" id="path642" style="fill:#ffea00;fill-opacity:1;fill-rule:nonzero;stroke:none"/>
          <path d="m 326.141,53.859 c 0,0 -0.007,-1.313 -0.1,1.353 -0.115,3.301 -1.519,22.997 -1.519,22.997 0,0 -27.932,-20.984 -27.839,-23.65 0.093,-2.666 29.458,-0.7 29.458,-0.7" id="path644" style="fill:#fff200;fill-opacity:1;fill-rule:nonzero;stroke:none"/>
          <path d="m 296.717,54.565 c -0.092,2.648 27.683,23.483 27.783,23.554 0.008,0.006 0.012,0 0.014,-0.017 0.02,-0.278 0.2,-2.919 0.428,-6.234 0.369,-5.336 0.893,-12.898 1.042,-15.797 0.017,-0.337 0.03,-0.616 0.036,-0.826 0.087,-2.58 0.088,-1.31 0.08,-1.311 -0.127,-0.01 -29.292,-1.97 -29.383,0.631" id="path646" style="fill:#fff200;fill-opacity:1;fill-rule:nonzero;stroke:none"/>
          <path d="m 296.752,54.571 c -0.092,2.63 27.526,23.316 27.727,23.459 0.015,0.01 0.024,0.007 0.025,-0.009 0.019,-0.269 0.196,-2.976 0.42,-6.261 0.359,-5.234 0.897,-12.881 1.041,-15.684 0.017,-0.326 0.028,-0.595 0.033,-0.799 0.082,-2.494 0.077,-1.266 0.06,-1.268 -0.254,-0.02 -29.218,-1.974 -29.306,0.562" id="path648" style="fill:#fff210;fill-opacity:1;fill-rule:nonzero;stroke:none"/>
          <path d="m 296.786,54.576 c -0.091,2.613 27.37,23.15 27.672,23.364 0.022,0.016 0.035,0.016 0.036,0 0.018,-0.26 0.193,-3.033 0.411,-6.288 0.35,-5.131 0.902,-12.864 1.042,-15.57 0.016,-0.315 0.026,-0.575 0.029,-0.772 0.076,-2.408 0.066,-1.224 0.041,-1.226 -0.382,-0.03 -29.145,-1.979 -29.231,0.492" id="path650" style="fill:#fff328;fill-opacity:1;fill-rule:nonzero;stroke:none"/>
          <path d="m 296.82,54.582 c -0.09,2.595 27.213,22.983 27.617,23.268 0.03,0.021 0.046,0.024 0.047,0.009 0.018,-0.25 0.189,-3.09 0.403,-6.315 0.34,-5.029 0.907,-12.847 1.041,-15.457 0.016,-0.304 0.025,-0.554 0.027,-0.744 0.07,-2.323 0.054,-1.181 0.021,-1.183 -0.51,-0.04 -29.072,-1.984 -29.156,0.422" id="path652" style="fill:#fff336;fill-opacity:1;fill-rule:nonzero;stroke:none"/>
          <path d="m 296.855,54.588 c -0.09,2.577 27.057,22.816 27.561,23.173 0.037,0.025 0.057,0.032 0.058,0.017 0.017,-0.241 0.186,-3.147 0.395,-6.341 0.33,-4.927 0.911,-12.832 1.041,-15.345 0.015,-0.292 0.023,-0.533 0.023,-0.716 0.065,-2.237 0.042,-1.138 0.001,-1.141 -0.636,-0.05 -28.997,-1.988 -29.079,0.353" id="path654" style="fill:#fff342;fill-opacity:1;fill-rule:nonzero;stroke:none"/>
          <path d="m 296.889,54.594 c -0.089,2.559 26.9,22.649 27.506,23.077 0.044,0.031 0.068,0.04 0.069,0.026 0.017,-0.232 0.183,-3.204 0.387,-6.368 0.32,-4.825 0.916,-12.815 1.04,-15.231 0.014,-0.281 0.021,-0.513 0.02,-0.689 0.059,-2.151 0.031,-1.095 -0.018,-1.099 -0.764,-0.06 -28.924,-1.993 -29.004,0.284" id="path656" style="fill:#fff34d;fill-opacity:1;fill-rule:nonzero;stroke:none"/>
          <path d="m 296.923,54.599 c -0.088,2.541 26.744,22.483 27.451,22.982 0.051,0.036 0.079,0.049 0.08,0.035 0.016,-0.222 0.179,-3.261 0.378,-6.395 0.311,-4.722 0.921,-12.798 1.04,-15.118 0.014,-0.269 0.02,-0.493 0.018,-0.661 0.053,-2.066 0.019,-1.052 -0.038,-1.057 -0.892,-0.07 -28.851,-1.997 -28.929,0.214" id="path658" style="fill:#fff458;fill-opacity:1;fill-rule:nonzero;stroke:none"/>
          <path d="m 296.958,54.605 c -0.088,2.523 26.587,22.316 27.395,22.886 0.059,0.042 0.091,0.057 0.091,0.044 0.016,-0.213 0.176,-3.318 0.37,-6.422 0.301,-4.62 0.925,-12.781 1.04,-15.004 0.013,-0.259 0.018,-0.473 0.014,-0.635 0.048,-1.979 0.008,-1.009 -0.058,-1.014 -1.019,-0.08 -28.777,-2.001 -28.852,0.145" id="path660" style="fill:#fff462;fill-opacity:1;fill-rule:nonzero;stroke:none"/>
          <path d="m 296.992,54.611 c -0.087,2.505 26.431,22.149 27.34,22.791 0.066,0.046 0.102,0.065 0.103,0.052 0.014,-0.204 0.171,-3.375 0.361,-6.449 0.291,-4.517 0.93,-12.764 1.039,-14.891 0.013,-0.247 0.017,-0.452 0.011,-0.607 0.042,-1.894 -0.003,-0.966 -0.077,-0.972 -1.146,-0.09 -28.704,-2.006 -28.777,0.076" id="path662" style="fill:#fff56b;fill-opacity:1;fill-rule:nonzero;stroke:none"/>
          <path d="m 297.027,54.617 c -0.087,2.487 26.274,21.982 27.284,22.695 0.073,0.052 0.113,0.073 0.114,0.061 0.014,-0.194 0.168,-3.432 0.352,-6.476 0.283,-4.415 0.935,-12.748 1.04,-14.777 0.012,-0.236 0.015,-0.432 0.008,-0.58 0.036,-1.808 -0.016,-0.923 -0.098,-0.929 -1.273,-0.101 -28.63,-2.011 -28.7,0.006" id="path664" style="fill:#fff573;fill-opacity:1;fill-rule:nonzero;stroke:none"/>
          <path d="m 297.061,54.623 c -0.086,2.469 26.118,21.815 27.228,22.599 0.081,0.057 0.125,0.082 0.126,0.07 0.013,-0.185 0.164,-3.489 0.344,-6.503 0.273,-4.313 0.94,-12.731 1.039,-14.664 0.012,-0.225 0.013,-0.411 0.005,-0.552 0.031,-1.722 -0.027,-0.88 -0.117,-0.887 -1.401,-0.11 -28.557,-2.015 -28.625,-0.063" id="path666" style="fill:#fff57a;fill-opacity:1;fill-rule:nonzero;stroke:none"/>
          <path d="m 297.095,54.629 c -0.085,2.451 25.962,21.648 27.173,22.503 0.089,0.063 0.136,0.09 0.137,0.079 0.013,-0.176 0.161,-3.546 0.336,-6.53 0.263,-4.21 0.944,-12.714 1.039,-14.55 0.011,-0.214 0.011,-0.391 0.002,-0.525 0.024,-1.637 -0.039,-0.837 -0.138,-0.845 -1.527,-0.12 -28.483,-2.019 -28.549,-0.132" id="path668" style="fill:#fff682;fill-opacity:1;fill-rule:nonzero;stroke:none"/>
          <path d="m 297.13,54.634 c -0.085,2.434 25.805,21.482 27.117,22.409 0.096,0.067 0.148,0.098 0.148,0.088 0.012,-0.167 0.157,-3.604 0.328,-6.557 0.253,-4.109 0.948,-12.698 1.038,-14.438 0.01,-0.202 0.01,-0.37 -0.001,-0.497 0.019,-1.551 -0.05,-0.795 -0.157,-0.803 -1.655,-0.13 -28.41,-2.024 -28.473,-0.202" id="path670" style="fill:#fff689;fill-opacity:1;fill-rule:nonzero;stroke:none"/>
          <path d="m 297.164,54.64 c -0.084,2.416 25.649,21.314 27.062,22.313 0.103,0.072 0.159,0.106 0.159,0.097 0.011,-0.158 0.154,-3.661 0.32,-6.584 0.243,-4.006 0.953,-12.681 1.037,-14.325 0.01,-0.191 0.009,-0.349 -0.004,-0.47 0.014,-1.465 -0.061,-0.751 -0.177,-0.76 -1.782,-0.14 -28.335,-2.028 -28.397,-0.271" id="path672" style="fill:#fff78f;fill-opacity:1;fill-rule:nonzero;stroke:none"/>
          <path d="m 297.199,54.646 c -0.084,2.398 25.492,21.147 27.006,22.217 0.11,0.078 0.17,0.115 0.17,0.106 0.011,-0.149 0.15,-3.718 0.311,-6.611 0.234,-3.904 0.958,-12.665 1.038,-14.211 0.009,-0.18 0.007,-0.329 -0.007,-0.443 0.008,-1.379 -0.073,-0.708 -0.197,-0.718 -1.91,-0.15 -28.262,-2.032 -28.321,-0.34" id="path674" style="fill:#fff796;fill-opacity:1;fill-rule:nonzero;stroke:none"/>
          <path d="m 297.233,54.652 c -0.083,2.38 25.336,20.98 26.951,22.121 0.117,0.083 0.181,0.123 0.181,0.115 0.01,-0.139 0.147,-3.775 0.303,-6.638 0.224,-3.801 0.962,-12.648 1.037,-14.098 0.009,-0.168 0.006,-0.308 -0.01,-0.415 0.002,-1.293 -0.085,-0.665 -0.216,-0.676 -2.037,-0.16 -28.189,-2.037 -28.246,-0.409" id="path676" style="fill:#fff79d;fill-opacity:1;fill-rule:nonzero;stroke:none"/>
          <path d="m 297.267,54.658 c -0.082,2.362 25.18,20.813 26.896,22.026 0.125,0.088 0.192,0.131 0.193,0.123 0.009,-0.13 0.143,-3.832 0.294,-6.665 0.214,-3.699 0.967,-12.631 1.037,-13.984 0.008,-0.158 0.003,-0.289 -0.013,-0.388 -0.004,-1.208 -0.097,-0.622 -0.237,-0.633 -2.164,-0.171 -28.115,-2.042 -28.17,-0.479" id="path678" style="fill:#fff8a3;fill-opacity:1;fill-rule:nonzero;stroke:none"/>
          <path d="m 297.302,54.663 c -0.082,2.345 25.023,20.647 26.84,21.931 0.132,0.093 0.203,0.139 0.204,0.132 0.008,-0.121 0.139,-3.889 0.286,-6.692 0.204,-3.596 0.971,-12.614 1.036,-13.871 0.008,-0.146 0.002,-0.268 -0.016,-0.36 -0.009,-1.122 -0.108,-0.58 -0.256,-0.591 -2.292,-0.181 -28.042,-2.046 -28.094,-0.549" id="path680" style="fill:#fff8aa;fill-opacity:1;fill-rule:nonzero;stroke:none"/>
          <path d="m 297.336,54.669 c -0.081,2.327 24.867,20.48 26.785,21.835 0.139,0.099 0.214,0.148 0.215,0.141 0.008,-0.111 0.136,-3.946 0.277,-6.719 0.195,-3.494 0.977,-12.598 1.036,-13.757 0.008,-0.135 10e-4,-0.248 -0.019,-0.333 -0.015,-1.037 -0.119,-0.537 -0.276,-0.549 -2.419,-0.191 -27.968,-2.051 -28.018,-0.618" id="path682" style="fill:#fff9b0;fill-opacity:1;fill-rule:nonzero;stroke:none"/>
          <path d="m 297.37,54.675 c -0.08,2.309 24.711,20.313 26.73,21.739 0.147,0.104 0.226,0.156 0.226,0.15 0.007,-0.102 0.132,-4.003 0.269,-6.746 0.185,-3.391 0.981,-12.581 1.036,-13.644 0.006,-0.124 -10e-4,-0.227 -0.022,-0.306 -0.021,-0.95 -0.132,-0.493 -0.296,-0.506 -2.546,-0.2 -27.895,-2.055 -27.943,-0.687" id="path684" style="fill:#fff9b7;fill-opacity:1;fill-rule:nonzero;stroke:none"/>
          <path d="m 297.405,54.681 c -0.08,2.291 24.554,20.146 26.673,21.644 0.155,0.109 0.238,0.164 0.238,0.158 0.007,-0.093 0.129,-4.06 0.261,-6.773 0.176,-3.289 0.986,-12.564 1.035,-13.53 0.006,-0.113 -0.002,-0.207 -0.025,-0.279 -0.026,-0.864 -0.143,-0.45 -0.316,-0.464 -2.673,-0.21 -27.821,-2.059 -27.866,-0.756" id="path686" style="fill:#fffabe;fill-opacity:1;fill-rule:nonzero;stroke:none"/>
          <path d="m 297.439,54.687 c -0.079,2.273 24.398,19.979 26.618,21.548 0.162,0.114 0.249,0.172 0.249,0.167 0.006,-0.083 0.125,-4.117 0.253,-6.799 0.166,-3.188 0.99,-12.548 1.035,-13.418 0.005,-0.101 -0.005,-0.186 -0.029,-0.251 -0.032,-0.779 -0.154,-0.407 -0.335,-0.422 -2.801,-0.22 -27.748,-2.063 -27.791,-0.825" id="path688" style="fill:#fffac4;fill-opacity:1;fill-rule:nonzero;stroke:none"/>
          <path d="m 297.474,54.692 c -0.079,2.256 24.24,19.813 26.562,21.453 0.169,0.119 0.26,0.181 0.26,0.176 0.006,-0.074 0.122,-4.174 0.244,-6.826 0.157,-3.085 0.995,-12.532 1.035,-13.305 0.005,-0.09 -0.006,-0.165 -0.031,-0.223 -0.038,-0.693 -0.166,-0.365 -0.355,-0.38 -2.929,-0.23 -27.674,-2.068 -27.715,-0.895" id="path690" style="fill:#fffbca;fill-opacity:1;fill-rule:nonzero;stroke:none"/>
          <path d="m 297.508,54.698 c -0.078,2.237 24.084,19.646 26.507,21.357 0.176,0.125 0.271,0.189 0.271,0.185 0.005,-0.065 0.118,-4.231 0.236,-6.853 0.147,-2.983 1,-12.515 1.035,-13.191 0.004,-0.079 -0.008,-0.145 -0.035,-0.197 -0.043,-0.607 -0.177,-0.321 -0.375,-0.336 -3.055,-0.241 -27.6,-2.073 -27.639,-0.965" id="path692" style="fill:#fffbd0;fill-opacity:1;fill-rule:nonzero;stroke:none"/>
          <path d="m 297.542,54.704 c -0.077,2.219 23.928,19.479 26.452,21.261 0.184,0.13 0.282,0.198 0.283,0.194 0.004,-0.055 0.114,-4.288 0.227,-6.88 0.137,-2.88 1.004,-12.498 1.034,-13.078 0.003,-0.067 -0.009,-0.124 -0.038,-0.169 -0.049,-0.521 -0.188,-0.278 -0.394,-0.294 -3.183,-0.251 -27.527,-2.077 -27.564,-1.034" id="path694" style="fill:#fffcd7;fill-opacity:1;fill-rule:nonzero;stroke:none"/>
          <path d="m 297.577,54.71 c -0.077,2.201 23.771,19.312 26.396,21.166 0.191,0.135 0.293,0.205 0.294,0.202 0.003,-0.046 0.11,-4.345 0.219,-6.907 0.127,-2.778 1.008,-12.481 1.033,-12.965 0.003,-0.056 -0.01,-0.103 -0.04,-0.141 -0.055,-0.435 -0.201,-0.235 -0.415,-0.252 -3.31,-0.261 -27.453,-2.082 -27.487,-1.103" id="path696" style="fill:#fffcdd;fill-opacity:1;fill-rule:nonzero;stroke:none"/>
          <path d="m 297.611,54.716 c -0.076,2.183 23.615,19.145 26.341,21.07 0.198,0.14 0.305,0.214 0.305,0.212 0.002,-0.038 0.107,-4.403 0.21,-6.935 0.118,-2.675 1.014,-12.464 1.034,-12.851 0.002,-0.045 -0.013,-0.084 -0.044,-0.114 -0.06,-0.35 -0.212,-0.192 -0.434,-0.21 -3.437,-0.27 -27.38,-2.086 -27.412,-1.172" id="path698" style="fill:#fffde3;fill-opacity:1;fill-rule:nonzero;stroke:none"/>
          <path d="m 297.646,54.721 c -0.076,2.166 23.458,18.979 26.285,20.975 0.205,0.146 0.316,0.222 0.316,0.221 0.002,-0.028 0.104,-4.46 0.202,-6.962 0.108,-2.573 1.018,-12.448 1.033,-12.738 0.002,-0.033 -0.014,-0.063 -0.046,-0.086 -0.067,-0.264 -0.224,-0.15 -0.454,-0.168 -3.565,-0.28 -27.307,-2.09 -27.336,-1.242" id="path700" style="fill:#fffde9;fill-opacity:1;fill-rule:nonzero;stroke:none"/>
          <path d="m 297.68,54.727 c -0.075,2.148 23.302,18.812 26.23,20.88 0.213,0.15 0.327,0.23 0.327,0.229 10e-4,-0.019 0.1,-4.517 0.194,-6.989 0.098,-2.47 1.023,-12.431 1.033,-12.624 10e-4,-0.023 -0.016,-0.043 -0.05,-0.059 -0.072,-0.179 -0.235,-0.107 -0.474,-0.126 -3.692,-0.29 -27.233,-2.094 -27.26,-1.311" id="path702" style="fill:#fffef0;fill-opacity:1;fill-rule:nonzero;stroke:none"/>
          <path d="m 297.714,54.733 c -0.074,2.13 23.146,18.645 26.175,20.784 0.22,0.155 0.338,0.238 0.338,0.238 0.001,-0.01 0.097,-4.574 0.186,-7.015 0.088,-2.369 1.027,-12.415 1.032,-12.512 0.001,-0.011 -0.017,-0.022 -0.053,-0.032 -0.077,-0.092 -0.246,-0.063 -0.493,-0.083 -3.82,-0.3 -27.16,-2.099 -27.185,-1.38" id="path704" style="fill:#fffef6;fill-opacity:1;fill-rule:nonzero;stroke:none"/>
          <path d="m 325.427,56.234 c 0,0 -0.953,10.132 -1.033,12.398 -0.084,2.411 -0.177,7.042 -0.177,7.042 0,0 -26.547,-18.669 -26.468,-20.935 0.025,-0.715 27.678,1.495 27.678,1.495" id="path706" style="fill:#ffffff;fill-opacity:1;fill-rule:nonzero;stroke:none"/>
          <path d="m 320.22,75.645 c 0.089,1.988 -0.031,3.886 0.006,5.738 0.01,0.475 -0.024,6.771 0.032,7.577 -0.266,0.555 -1.548,-1.06 -1.89,-0.546 -0.007,-2.966 -0.061,-5.389 0.016,-7.254 0.122,-2.948 0.405,-4.666 0.461,-6.184 0.188,-5.103 0.532,-5.195 0.52,-9.826 -0.013,-4.922 -0.193,-7.875 -0.437,-12.474 -0.114,-2.146 -0.214,-4.223 -0.326,-6.186 -0.173,-3.025 -0.13,-5.415 -0.132,-6.313 0.503,0.352 1.506,0.591 1.93,0.881 -0.035,0.659 -0.023,3.11 -0.041,6.202 -0.012,1.891 -0.192,4.077 -0.262,6.164 -0.155,4.642 -0.41,6.903 -0.412,11.837 -0.003,3.927 0.31,5.351 0.535,10.384" id="path708" style="fill:#231f20;fill-opacity:1;fill-rule:nonzero;stroke:none"/>
          <path d="m 295.061,30.509 0.002,48.256 c -0.613,-0.209 -1.582,-0.634 -2.002,-0.938 l -0.003,-48.193 c 0.59,0.081 1.325,0.524 2.003,0.875" id="path710" style="fill:#231f20;fill-opacity:1;fill-rule:nonzero;stroke:none"/>
          <path d="m 297.823,31.658 c -0.781,0.094 -1.535,-1.25 -2.21,-0.994 l -0.003,48.219 c 0.686,0.864 1.413,0.307 2.172,1.066 0,-4.084 0.002,-22.705 0.002,-23.133 0,-0.564 -0.619,-1.046 -0.604,-1.966 0.013,-0.767 0.537,-0.522 0.604,-1.258 0.019,-0.217 -0.022,-16.793 -0.028,-22.028" id="path712" style="fill:#231f20;fill-opacity:1;fill-rule:nonzero;stroke:none"/>
          <path d="m 315.862,47.628 c -0.146,-2.125 0.062,-3.109 0.018,-3.8 -0.013,-0.201 0.014,-4.712 0.015,-4.765 0.472,0.745 1.49,0.308 1.905,1.095 -0.006,0.085 -0.013,5.98 -0.02,6.077 -0.049,0.683 -0.021,1.545 -0.083,2.667 -0.22,3.997 -0.826,10.147 -0.825,15.061 10e-4,4.902 0.416,8.969 0.679,14.711 0.104,2.269 0.339,3.862 0.4,4.877 0.007,0.101 -0.021,4.666 -0.014,4.765 -0.314,-0.148 -1.785,-0.833 -2.208,-0.935 0.005,-0.092 0.01,-5.915 0.016,-6.009 0.053,-0.919 -0.174,-1.936 -0.073,-3.453 0.305,-4.569 0.833,-9.524 0.829,-14.103 -0.004,-4.964 -0.343,-11.88 -0.639,-16.188" id="path714" style="fill:#231f20;fill-opacity:1;fill-rule:nonzero;stroke:none"/>
          <path d="m 312.815,37.535 c 0.003,0.085 0.145,7.003 0.145,7.097 -0.006,4.705 0.683,12.684 0.658,17.828 -0.029,5.76 -0.884,12.939 -0.852,16.459 -0.004,0.083 -0.037,7.166 0.055,7.161 0.775,-0.173 1.644,1.394 2.333,1.039 -0.003,-0.084 -0.119,-6.125 -0.123,-6.211 -0.144,-3.854 -0.964,-12.74 -0.979,-18.231 -0.012,-4.864 0.945,-14.971 1.212,-18.566 0.021,-0.289 -0.004,-4.987 0.017,-5.263 -0.712,-0.997 -1.671,-0.438 -2.466,-1.313" id="path716" style="fill:#231f20;fill-opacity:1;fill-rule:nonzero;stroke:none"/>
          <path d="m 300.605,61.832 c 0,-0.928 -0.802,-3.61 -0.802,-5.786 0,-2.257 0.735,-4.373 0.735,-5.219 l 0,-18.096 c -0.754,-0.093 -1.47,-0.997 -2.175,-0.94 0,0 0.026,21.44 0.002,22.032 -0.02,0.506 0.631,0.944 0.643,1.848 0.01,0.778 -0.626,0.787 -0.643,1.589 -0.008,0.395 0,18.658 0,22.797 0.719,0.687 1.468,0.516 2.241,1.095 l -10e-4,-19.32" id="path718" style="fill:#231f20;fill-opacity:1;fill-rule:nonzero;stroke:none"/>
          <path d="m 301.171,32.93 c 0.689,0.114 1.403,0.641 2.128,0.883 -0.002,4.052 -0.014,14.401 -0.006,15.06 0.034,2.877 -0.783,4.837 -0.79,8.401 -0.006,3.212 0.857,5.527 0.923,8.176 0.013,0.499 0.005,13.441 0.001,16.772 -0.749,-0.401 -1.488,-0.377 -2.208,-0.888 l -0.012,-19.377 c 0.013,-0.901 0.637,-2.827 0.637,-4.963 0,-2.136 -0.674,-5.209 -0.661,-5.949 L 301.171,32.93" id="path720" style="fill:#231f20;fill-opacity:1;fill-rule:nonzero;stroke:none"/>
          <path d="m 303.922,34.127 c 0.32,0.118 0.595,0.241 0.922,0.384 0.478,0.21 0.945,0.444 1.408,0.695 0,2.274 -0.004,10.38 -0.004,11.428 0,1.697 -0.983,6.701 -0.983,11.942 0,5.32 1.05,10.412 1.05,11.704 0,0.872 0,10.646 0,13.125 -0.518,-0.169 -1.009,-0.361 -1.471,-0.564 -0.258,-0.113 -0.515,-0.233 -0.77,-0.359 -0.002,-3.317 -0.006,-16.32 10e-4,-16.812 0.034,-2.524 0.612,-4.641 0.612,-7.377 -0.001,-2.688 -0.729,-6.471 -0.763,-9.187 -0.008,-0.663 -0.005,-10.931 -0.002,-14.979" id="path722" style="fill:#231f20;fill-opacity:1;fill-rule:nonzero;stroke:none"/>
          <path d="m 306.893,35.306 c 0.827,0.479 1.605,0.499 2.38,1.102 0,1.292 -0.003,8.22 -0.003,9.069 0,1.613 -1,8.583 -1,14.468 0,5.884 0.987,14.205 0.987,15.173 0,0.662 0.146,8.647 0.146,9.547 -0.76,-0.065 -1.564,-0.69 -2.472,-0.954 0,0 0.01,-12.223 0.007,-13.06 -0.004,-1.292 0.791,-5.592 0.807,-10.92 0.017,-5.637 -0.846,-10.595 -0.853,-12.597 -0.003,-1.046 -10e-4,-9.447 10e-4,-11.828" id="path724" style="fill:#231f20;fill-opacity:1;fill-rule:nonzero;stroke:none"/>
          <path d="m 309.993,36.501 c 0.823,0.672 1.584,0.354 2.343,1.155 0.009,-0.466 -0.053,5.691 -0.071,6.268 -0.09,3.02 -1.153,11.424 -1.116,17.424 0.033,5.32 0.696,12.876 0.968,17.409 0.087,1.466 0.216,6.627 0.226,7.118 -0.707,0.122 -1.663,-1.103 -2.427,-1.137 10e-4,-0.935 -0.051,-8.808 -0.079,-9.426 -0.113,-2.483 0.802,-8.161 0.805,-14.217 0.002,-6.02 -0.631,-13.847 -0.648,-15.506 -0.008,-0.792 -0.004,-7.869 -0.001,-9.088" id="path726" style="fill:#231f20;fill-opacity:1;fill-rule:nonzero;stroke:none"/>
          <path d="m 292.507,29.412 0.002,48.256 c -0.613,-0.208 -1.582,-0.634 -2.002,-0.938 l -0.003,-48.193 c 0.59,0.081 1.325,0.525 2.003,0.875" id="path728" style="fill:#231f20;fill-opacity:1;fill-rule:nonzero;stroke:none"/>
          <path d="m 323.201,85.566 c 0.124,2.444 0.226,4.307 0.272,4.964 -0.266,0.555 -1.806,-1.427 -2.148,-0.913 0.022,-1.19 -0.063,-3.364 0.015,-5.96 0.215,-7.119 0.821,-14.527 0.771,-17.223 0.018,-2.57 -0.804,-16.23 -0.955,-18.888 -0.173,-3.025 -0.13,-5.415 -0.133,-6.313 0.504,0.352 1.507,0.591 1.931,0.882 -0.035,0.658 -0.023,3.109 -0.041,6.201 -0.036,5.986 -0.55,15.77 -0.575,18.238 -0.025,2.493 0.521,12.272 0.863,19.012" id="path730" style="fill:#231f20;fill-opacity:1;fill-rule:nonzero;stroke:none"/>
        </g>
      </g>
      <g transform="matrix(1.25,0,0,-1.25,20.475006,999.38718)" id="g732">
        <g clip-path="url(#clipPath736)" id="g734">
          <path d="m 296.018,37.439 0.71,0 0,-1.792 -0.662,0 c 0,0.319 -0.467,1.21 -2.392,1.283 -1.964,0.076 -2.164,-0.89 -1.498,-1.094 0.857,-0.263 2.55,-0.209 3.598,-0.547 1.383,-0.449 1.775,-1.937 0.565,-2.729 -1.087,-0.712 -2.989,-0.629 -4.34,-0.161 -0.244,0.086 -0.64,0.302 -0.62,0.018 l 0,-0.168 -0.819,0 0,1.963 0.731,0 c 0.01,-0.114 -0.087,-0.549 0.729,-1.001 0.944,-0.525 2.674,-0.547 3.365,-0.171 0.408,0.224 0.467,0.943 -0.272,1.04 -0.793,0.105 -2.053,0.181 -2.992,0.394 -0.666,0.154 -1.179,0.344 -1.483,0.738 -0.233,0.302 -0.621,1.49 0.721,2.094 1.664,0.75 3.969,0.229 4.376,-0.113 0.166,-0.136 0.351,-0.093 0.283,0.246" id="path740" style="fill:#231f20;fill-opacity:1;fill-rule:nonzero;stroke:none"/>
        </g>
      </g>
      <path d="m 400.79626,955.83718 c 10e-4,-1.6875 -1.1825,-2.645 -2.74125,-2.645 -1.5575,0 -2.73875,0.9575 -2.73625,2.645 0,1.68375 1.21875,2.6825 2.73625,2.64 C 399.57251,958.43718 400.79001,957.51218 400.79626,955.83718 z m -2.69875,-3.61125 c 2.30875,0 4.76375,1.1075 4.71625,3.6575 -0.0512,2.55 -2.48125,3.54 -4.71625,3.54 -2.24125,0 -4.89,-0.99 -4.93875,-3.54 -0.0487,-2.55 2.67375,-3.6575 4.93875,-3.6575" id="path742" style="fill:#231f20;fill-opacity:1;fill-rule:nonzero;stroke:none"/>
      <path d="m 423.14751,953.71093 c -0.1825,0.185 -2.48125,2.905 -2.48125,2.905 l 0,1.4625 c 0,0.155 0.01,0.15 0.185,0.15 0.185,0 0.94875,0 0.94875,0 l 0,0.8325 -4.35375,0 0,-0.8325 c 0,0 0.875,0.01 1.0575,0 0.18,-0.01 0.1975,-0.0538 0.19875,-0.15 l 0,-1.47125 c 0,0 -2.54625,-2.79875 -2.57125,-2.835 -0.0875,-0.12625 -0.3225,-0.34125 -0.74,-0.34625 l -0.71875,0 0,-0.8475 4.40375,0 0,0.8475 -0.45125,0 c -0.0975,0 -0.23125,0.2 -0.0487,0.3825 0.18375,0.1825 1.495,1.75125 1.495,1.75125 l 1.49625,-1.7625 c 0.0862,-0.1175 0.06,-0.37125 -0.1225,-0.37125 -0.30625,0 -0.545,0 -0.545,0 l 0,-0.8475 3.59875,0 0,0.8475 -0.84,0 c -0.27,0 -0.45,0.225 -0.51125,0.285" id="path744" style="fill:#231f20;fill-opacity:1;fill-rule:nonzero;stroke:none"/>
      <path d="m 406.33751,957.83343 c 0,0.42875 0.21875,0.405 0.41375,0.3975 l 0.8675,0 0,0.83 -3.81875,0 0,-0.79875 0.845,0 c 0.34375,-0.0237 0.3925,-0.205 0.40625,-0.39625 l 0,-3.9425 c 0.007,-0.25875 0.01,-0.4775 -0.4525,-0.4925 l -0.81,0 -0.006,-0.8625 3.2275,0 4.35875,4.03875 c 0,0 0,-2.26375 0,-2.7225 0,-0.4625 -0.22625,-0.4625 -0.4175,-0.4875 l -0.815,0 0,-0.82875 3.69625,0 0,0.83875 -0.88625,0 c -0.20875,0 -0.30125,0.20875 -0.31125,0.40375 l 0,5.25 -1.2075,0 -5.09,-4.4725 c 0,0 0,2.8075 0,3.245" id="path746" style="fill:#231f20;fill-opacity:1;fill-rule:nonzero;stroke:none"/>
      <path d="m 385.26876,963.16218 1.28875,0 c 0.5175,-0.0138 0.825,-0.14125 0.825,-0.60625 0,-0.43375 -0.3025,-0.61125 -0.7575,-0.61125 l -1.35625,0 L 385.26876,963.16218 z m -1.6875,2.25 0,-0.5175 0.455,0 c 0.17625,0 0.2175,-0.0725 0.2175,-0.22125 l 0,-2.49 c 0,-0.14875 -0.0475,-0.23 -0.2225,-0.23 l -0.42875,0 0,-0.5275 3.38,0 c 1.16,0 1.53,0.27 1.53,1.1025 0,0.82875 -0.52125,1.16625 -1.81625,1.16625 l -1.4275,0 0,0.9825 c 0,0.15 0.0412,0.2175 0.21625,0.2175 l 0.465,0 -0.009,0.5175 -2.36,0" id="path748" style="fill:#231f20;fill-opacity:1;fill-rule:nonzero;stroke:none"/>
      <path d="m 390.72376,964.67218 c 0,0.15 0.0387,0.2225 0.21625,0.2225 l 0.45625,0 0,0.515 -2.35875,0 0,-0.51875 0.45375,0 c 0.175,0 0.22,-0.0688 0.22,-0.21875 l 0,-2.49375 c 0,-0.15125 -0.045,-0.2475 -0.22,-0.2475 l -0.45375,0 0,-0.52 2.35875,0 0,0.5175 -0.45625,0 c -0.1775,0 -0.21625,0.0987 -0.21625,0.25 l 0,2.49375" id="path750" style="fill:#231f20;fill-opacity:1;fill-rule:nonzero;stroke:none"/>
      <path d="m 396.59626,964.18093 c -0.0825,0.6175 -0.78875,1.43125 -2.0675,1.43125 -1.21,0 -2.715,-0.5125 -2.73875,-2.15375 -0.0238,-1.60125 1.4175,-2.28125 2.6,-2.25875 0.7075,0.0138 1.335,0.2525 1.50125,0.41625 0.10125,0.1025 0.23375,0.10875 0.18375,-0.1925 l 0.4625,0 0,1.36875 -0.4325,0 c -0.0387,-0.71625 -0.87125,-1.17375 -1.76375,-1.06125 -0.93875,0.11375 -1.40625,0.8325 -1.40625,1.71875 0.001,0.98375 0.8125,1.655 1.63375,1.655 0.53875,-0.003 1.3875,-0.16125 1.56,-0.92375 l 0.4675,0" id="path752" style="fill:#231f20;fill-opacity:1;fill-rule:nonzero;stroke:none"/>
      <path d="m 397.24751,962.94093 0,-1.5175 4.7475,0 0,1.5175 -0.47625,0 c 0.009,-1.0725 -0.095,-0.9675 -0.46375,-1.01 l -0.9225,0 0,2.75375 c 0,0.1525 0.04,0.25125 0.215,0.25125 l 0.4525,0 0,0.48625 -2.3575,0 0,-0.48625 0.4525,0 c 0.175,0 0.22,-0.0987 0.22,-0.25125 l 0,-2.75375 -0.92,10e-4 c -0.40875,0.0387 -0.4625,-0.0312 -0.4625,1.01125 l -0.485,-0.003" id="path754" style="fill:#231f20;fill-opacity:1;fill-rule:nonzero;stroke:none"/>
      <path d="m 405.18501,965.58968 c -0.95125,0 -1.9575,-0.21875 -1.9575,-1.44875 l 0,-1.9575 c 0,-0.15125 -0.0412,-0.25125 -0.21625,-0.25125 l -0.455,0 0,-0.51875 2.35625,0 0,0.5175 -0.455,0 c -0.175,0 -0.22,0.0963 -0.22,0.25 l 0,2.01875 c 0,0.135 -0.0525,0.93 0.9475,0.93 1.12125,0 1.22625,-0.4875 1.22625,-0.9325 l 0.005,-2.01375 c 0,-0.15125 -0.0425,-0.25125 -0.22,-0.25125 l -0.4525,0 0,-0.51875 1.99875,0 0,0.5175 -0.455,0 c -0.1125,0 -0.2125,0.11375 -0.21,0.4175 l 0.01,1.8325 c 0,1.18 -0.93,1.40875 -1.9025,1.40875" id="path756" style="fill:#231f20;fill-opacity:1;fill-rule:nonzero;stroke:none"/>
      <path d="m 409.95876,963.16218 1.2875,0 c 0.4925,0 0.76,-0.23125 0.76,-0.60875 0,-0.375 -0.31625,-0.61125 -0.71125,-0.61125 l -1.33625,0 L 409.95876,963.16218 z m 2.1775,0.32125 c 0.39875,0.0975 0.67875,0.18 0.70125,0.665 l 0,0.57625 c 0,0.1125 0.0163,0.28125 0.21125,0.28125 0.20125,0 0.185,-0.23125 0.175,-0.45 l 0,-0.24375 0.42375,0 0,0.29375 c 0,0.71625 -0.17,0.915 -0.79625,0.915 -0.52875,-0.003 -1.03375,-0.165 -1.03375,-0.96125 l 0,-0.43875 c 0,-0.29375 -0.24375,-0.4275 -0.6975,-0.4275 l -1.16125,0 0,0.98375 c 0,0.15 0.0412,0.2175 0.21625,0.2175 l 0.4525,0 0.006,0.5325 -2.36,0 0,-0.53375 0.455,0 c 0.175,0 0.21375,-0.0712 0.21375,-0.22125 l 0,-2.48875 c 0,-0.15125 -0.0438,-0.26375 -0.21875,-0.26375 l -0.42875,0 0,-0.49375 3.3075,0 c 1.15625,0 1.54125,0.37 1.53375,1.1225 -0.005,0.645 -0.54,0.85 -1,0.935" id="path758" style="fill:#231f20;fill-opacity:1;fill-rule:nonzero;stroke:none"/>
      <g transform="matrix(1.25,0,0,-1.25,20.475006,999.38718)" id="g760">
        <g clip-path="url(#clipPath764)" id="g762">
          <path d="m 316.309,27.585 1.697,-0.007 c 0.327,0.032 0.385,0.187 0.385,0.806 l 0.367,0 0,-1.213 -3.803,-0.003 0,0.415 0.365,0 c 0.14,0 0.173,0.057 0.173,0.177 l 0,1.991 c 0,0.121 -0.033,0.201 -0.173,0.201 l -0.365,0 0,0.417 3.803,0 0,-1.212 -0.367,0 c 0,0.618 -0.058,0.79 -0.385,0.82 l -1.697,0.002 0,-0.96 0.789,0.002 c 0.103,0 0.172,0.037 0.172,0.204 l 0,0.331 0.351,0 0,-1.5 -0.351,0 0,0.334 c 0,0.165 -0.067,0.205 -0.172,0.205 l -0.789,0.001 0,-1.011" id="path768" style="fill:#231f20;fill-opacity:1;fill-rule:nonzero;stroke:none"/>
          <path d="m 322.487,30.334 0.374,0 0,-1.11 -0.347,0 c 0,0.194 -0.25,0.8 -1.261,0.828 -1.034,0.029 -1.17,-0.537 -0.781,-0.713 0.437,-0.199 1.336,-0.127 1.888,-0.332 0.726,-0.273 0.931,-1.168 0.294,-1.649 -0.569,-0.431 -1.566,-0.38 -2.271,-0.097 -0.131,0.051 -0.337,0.182 -0.328,0.012 l 0,-0.105 -0.429,0 0,1.189 0.382,0 c 0,-0.068 -0.042,-0.331 0.383,-0.604 0.634,-0.405 1.25,-0.448 1.764,-0.125 0.238,0.148 0.34,0.575 -0.142,0.649 -0.415,0.064 -1.075,0.111 -1.568,0.239 -0.349,0.091 -0.618,0.207 -0.779,0.445 -0.133,0.198 -0.359,0.884 0.38,1.266 0.87,0.454 1.841,0.187 2.292,-0.066 0.108,-0.061 0.186,-0.059 0.149,0.173" id="path770" style="fill:#231f20;fill-opacity:1;fill-rule:nonzero;stroke:none"/>
        </g>
      </g>
    </g>
  </g>
</svg>