<?xml version="1.0" encoding="UTF-8" standalone="no"?>
<!-- Created with Inkscape (http://www.inkscape.org/) -->

<svg
   xmlns:dc="http://purl.org/dc/elements/1.1/"
   xmlns:cc="http://creativecommons.org/ns#"
   xmlns:rdf="http://www.w3.org/1999/02/22-rdf-syntax-ns#"
   xmlns:svg="http://www.w3.org/2000/svg"
   xmlns="http://www.w3.org/2000/svg"
   xmlns:sodipodi="http://sodipodi.sourceforge.net/DTD/sodipodi-0.dtd"
   xmlns:inkscape="http://www.inkscape.org/namespaces/inkscape"
   version="1.0"
   width="440.91599"
   height="126"
   viewBox="0 0 440.916 126"
   id="Layer_1"
   xml:space="preserve"
   inkscape:version="0.48.3.1 r9886"
   sodipodi:docname="Steam_logo.svg"><metadata
     id="metadata3698"><rdf:RDF><cc:Work
         rdf:about=""><dc:format>image/svg+xml</dc:format><dc:type
           rdf:resource="http://purl.org/dc/dcmitype/StillImage" /></cc:Work></rdf:RDF></metadata><sodipodi:namedview
     pagecolor="#ffffff"
     bordercolor="#666666"
     borderopacity="1"
     objecttolerance="10"
     gridtolerance="10"
     guidetolerance="10"
     inkscape:pageopacity="0"
     inkscape:pageshadow="2"
     inkscape:window-width="1918"
     inkscape:window-height="1179"
     id="namedview3696"
     showgrid="false"
     inkscape:zoom="3.9531341"
     inkscape:cx="220.45799"
     inkscape:cy="63"
     inkscape:window-x="0"
     inkscape:window-y="19"
     inkscape:window-maximized="0"
     inkscape:current-layer="Layer_1" /><defs
     id="defs271" /><path
     d="M 218.67501,42.249999 C 218.67501,51.219999 211.39501,58.5 202.425,58.5 C 193.45501,58.5 186.175,51.219999 186.175,42.249999 C 186.175,33.279998 193.45501,25.999998 202.425,25.999998 C 211.39501,25.999998 218.67501,33.279998 218.67501,42.249999 z M 202.34375,11.999998 C 185.68303,11.999998 172.15132,25.436438 172,42.062498 L 153.09375,69.156248 C 152.32353,69.076547 151.5407,69.031248 150.75,69.031248 C 146.52595,69.031242 142.57848,70.192411 139.1875,72.218748 L 53.5625,37.781248 C 51.324684,27.622435 42.24622,19.968748 31.4375,19.968748 C 18.958132,19.968745 8.78125,30.176876 8.78125,42.656248 C 8.7812488,55.135614 18.958128,65.312498 31.4375,65.312498 C 35.661361,65.312492 39.609017,64.151397 43,62.124998 L 128.625,96.499998 C 130.8402,106.68255 139.91962,114.34375 150.75,114.34375 C 162.48131,114.34375 172.16029,105.3512 173.28125,93.906248 L 202.34375,72.656248 C 219.09496,72.656246 232.68751,59.090124 232.6875,42.343748 C 232.68751,25.587792 219.09617,11.999998 202.34375,11.999998 z M 202.34375,21.999998 C 213.56757,21.999998 222.6875,31.119656 222.6875,42.343748 C 222.68749,53.567838 213.56757,62.656248 202.34375,62.656248 C 191.11994,62.656246 182,53.56784 182,42.343748 C 181.99999,31.119654 191.11993,21.999998 202.34375,21.999998 z M 31.4375,25.968748 C 37.834902,25.968745 43.363837,29.542954 46.15625,34.812498 L 37.875,31.499998 L 37.875,31.531248 C 31.202996,29.135248 23.791,32.396248 21.125,39.031248 C 18.458998,45.666242 21.526,53.176498 28,56.062498 L 28,56.093748 L 35.03125,58.906248 C 33.875377,59.158011 32.671413,59.312498 31.4375,59.312498 C 22.204509,59.3125 14.78125,51.889244 14.78125,42.656248 C 14.78125,33.42325 22.204504,25.968748 31.4375,25.968748 z M 150.75,75.031248 C 159.98351,75.03124 167.40625,82.45395 167.40625,91.687498 C 167.40621,100.92105 159.98355,108.34375 150.75,108.34375 C 144.32736,108.34375 138.78176,104.76275 136,99.468748 C 138.7391,100.57406 141.48292,101.66808 144.21875,102.78125 C 151.00772,105.50925 158.73975,102.2285 161.46875,95.437498 C 164.19771,88.648493 160.88375,80.946748 154.09375,78.218748 L 147.15625,75.437498 C 148.31213,75.185744 149.51601,75.031248 150.75,75.031248 z"
     id="Gears"
     style="fill:#000000;fill-opacity:1;fill-rule:nonzero;stroke:none;stroke-width:2;stroke-linecap:round;stroke-linejoin:miter;stroke-miterlimit:4;stroke-opacity:1" /><path
     d="M 269.918,48.179 C 269.918,51.308 268.764,53.763 266.457,55.542 C 264.149,57.324 261.215,58.214 257.653,58.214 C 252.481,58.214 248.455,56.759 245.575,53.847 L 249.756,49.666 C 251.614,51.524 254.277,52.453 257.747,52.453 C 261.649,52.453 263.6,51.091 263.6,48.365 C 263.6,47.126 263.276,46.204 262.625,45.6 C 261.974,44.996 260.983,44.601 259.651,44.415 L 255.656,43.858 C 249.802,43.052 246.876,39.971 246.876,34.613 C 246.876,31.608 247.913,29.184 249.988,27.342 C 252.062,25.499 254.867,24.577 258.396,24.577 C 262.857,24.577 266.417,25.862 269.083,28.432 L 264.994,32.474 C 263.415,30.957 261.154,30.198 258.211,30.198 C 256.569,30.198 255.308,30.594 254.425,31.383 C 253.542,32.172 253.102,33.172 253.102,34.379 C 253.102,35.34 253.451,36.145 254.147,36.795 C 254.843,37.446 255.842,37.864 257.143,38.05 L 261.045,38.607 C 263.862,39.011 265.97,39.862 267.363,41.163 C 269.067,42.775 269.918,45.112 269.918,48.179 z"
     id="S"
     style="fill:#000000" /><path
     d="M 302.235,30.618 L 293.593,30.618 L 293.593,57.935 L 287.136,57.935 L 287.136,30.618 L 278.495,30.618 L 278.495,24.857 L 302.234,24.857 L 302.234,30.618 L 302.235,30.618 z"
     id="T"
     style="fill:#000000" /><path
     d="M 334.273,57.936 L 312.485,57.936 L 312.485,24.857 L 334.273,24.857 L 334.273,30.618 L 318.942,30.618 L 318.942,38.377 L 331.998,38.377 L 331.998,44.138 L 318.942,44.138 L 318.942,52.175 L 334.273,52.175 L 334.273,57.936 z"
     id="E"
     style="fill:#000000" /><path
     d="M 373.142,57.936 L 366.406,57.936 L 364.455,52.082 L 352.701,52.082 L 350.705,57.936 L 343.968,57.936 L 356,24.857 L 361.064,24.857 L 373.142,57.936 z M 362.737,46.646 L 358.694,34.614 L 354.513,46.646 L 362.737,46.646 z"
     id="A"
     style="fill:#000000" /><path
     d="M 412.195,57.936 L 405.738,57.936 L 405.738,38.656 L 399.419,51.199 L 395.053,51.199 L 388.689,38.656 L 388.689,57.936 L 382.231,57.936 L 382.231,24.857 L 388.57,24.857 L 397.177,42.744 L 405.739,24.857 L 412.196,24.857 L 412.196,57.936 L 412.195,57.936 z"
     id="M"
     style="fill:#000000" /><path
     d="M 422.917,26.363 L 420.685,26.363 L 420.685,33.419 L 419.017,33.419 L 419.017,26.363 L 416.786,26.363 L 416.786,24.875 L 422.918,24.875 L 422.918,26.363 L 422.917,26.363 z"
     id="SmallT"
     style="fill:#000000" /><path
     d="M 431.763,33.419 L 430.095,33.419 L 430.095,28.439 L 428.462,31.679 L 427.334,31.679 L 425.69,28.439 L 425.69,33.419 L 424.022,33.419 L 424.022,24.875 L 425.66,24.875 L 427.883,29.495 L 430.095,24.875 L 431.763,24.875 L 431.763,33.419 z"
     id="SmallM"
     style="fill:#000000" /></svg>