<?xml version="1.0" encoding="utf-8"?>
<!-- Generator: Adobe Illustrator 13.0.1, SVG Export Plug-In . SVG Version: 6.00 Build 14948)  -->
<!DOCTYPE svg PUBLIC "-//W3C//DTD SVG 1.0//EN" "http://www.w3.org/TR/2001/REC-SVG-20010904/DTD/svg10.dtd">
<svg version="1.0"
	 id="svg2475" inkscape:output_extension="org.inkscape.output.svg.inkscape" xmlns:dc="http://purl.org/dc/elements/1.1/" xmlns:rdf="http://www.w3.org/1999/02/22-rdf-syntax-ns#" xmlns:svg="http://www.w3.org/2000/svg" xmlns:sodipodi="http://sodipodi.sourceforge.net/DTD/sodipodi-0.dtd" xmlns:inkscape="http://www.inkscape.org/namespaces/inkscape" xmlns:cc="http://creativecommons.org/ns#" sodipodi:version="0.32" inkscape:version="0.46" sodipodi:docname="Yahoo Mail.svg"
	 xmlns="http://www.w3.org/2000/svg" xmlns:xlink="http://www.w3.org/1999/xlink" x="0px" y="0px" width="329.172px"
	 height="50.16px" viewBox="0 0 329.172 50.16" enable-background="new 0 0 329.172 50.16" xml:space="preserve">
<sodipodi:namedview  id="base" inkscape:window-x="-4" inkscape:pageopacity="0.0" inkscape:window-height="721" inkscape:current-layer="layer1" inkscape:window-y="-4" inkscape:pageshadow="2" inkscape:window-width="1024" inkscape:cx="181.82857" pagecolor="#ffffff" inkscape:cy="25.205477" bordercolor="#666666" inkscape:zoom="2.5518542" borderopacity="1.0" guidetolerance="10.0" showgrid="false" gridtolerance="10.0" objecttolerance="10.0">
	</sodipodi:namedview>
<defs>
	
	
		<inkscape:perspective  id="perspective2532" sodipodi:type="inkscape:persp3d" inkscape:vp_y="0 : 1000 : 0" inkscape:vp_x="0 : 25.205477 : 1" inkscape:vp_z="363.65714 : 25.205477 : 1" inkscape:persp3d-origin="181.82857 : 16.803651 : 1">
		</inkscape:perspective>
	
		<inkscape:perspective  id="perspective2541" sodipodi:type="inkscape:persp3d" inkscape:vp_y="0 : 1000 : 0" inkscape:vp_x="0 : 526.18109 : 1" inkscape:vp_z="744.09448 : 526.18109 : 1" inkscape:persp3d-origin="372.04724 : 350.78739 : 1">
		</inkscape:perspective>
</defs>
<g id="layer1" transform="translate(-211.81621,-495.69377)">
	<path id="path2217" fill="#7B0099" d="M279.407,509.971c-1.048,0.104-5.414,1.082-6.881,1.396
		c-1.571,0.418-15.925,11.507-16.868,14.23c-0.209,0.942-0.314,2.392-0.314,3.755l-0.105,2.2c0,1.57,0.436,4.104,0.645,5.465
		c0.944,0.21,7.773,0.026,9.03,0.235l-0.155,2.816c-1.228-0.089-9.9-0.068-14.855-0.068c-2.515,0-10.601,0.277-13.084,0.202
		l0.469-2.678c1.362-0.106,7.002,0.243,8.242-1.065c0.616-0.649,0.419-1.346,0.419-5.116v-1.781c0-0.838,0-2.41-0.21-3.878
		c-0.523-1.571-13.166-17.357-16.414-19.871c-0.944-0.313-6.853-0.904-8.32-1.22l-0.073-2.413c0.731-0.367,7.303,0.089,13.68-0.146
		c4.191-0.155,13.753,0,14.933,0.141l-0.302,2.126c-1.257,0.314-7.312,0.432-8.884,0.85c4.086,6.077,10.547,13.9,12.643,16.938
		c1.153-1.676,11.281-8.644,11.595-11.054c-1.572-0.315-6.776-1.064-7.614-1.064l-0.498-2.743c1.426-0.224,8.927,0,12.656,0
		c3.218,0,10.095,0,12.049,0.16L279.407,509.971"/>
	<path id="path2219" fill="#7B0099" d="M283.786,517.891l-0.065-0.416c-1.188,2.774-3.207,7.133-3.603,8.188l6.503-0.003
		C285.828,523.613,284.381,519.608,283.786,517.891 M301.057,538.897c-0.461-0.066-5.711-0.065-7.626-0.065
		c-1.123,0-6.841-0.033-7.833-0.033l0.297-2.454c1.322-0.065,3.778-0.601,4.902-0.732c-0.726-1.649-3.123-6.891-3.651-7.881
		c-1.387,0-6.375,0.156-7.761,0.42c-0.264,0.463-2.157,2.319-2.486,4.828c0.925,0.198,2.698,0.579,3.754,0.711l-0.391,2.508
		c-1.122-0.066-5.6,0.065-6.656,0c-0.992,0-5.592,0.011-6.451,0.143l0.818-2.65c1.056-0.132,3.491-0.889,4.414-1.085
		c1.387-1.98,7.81-14.535,8.338-15.725c-0.859-0.198-2.317-0.889-3.243-1.021l-0.127-1.813c1.123,0.066,6.704,0.234,7.296,0.204
		c1.328-0.064,6.256-0.04,7.379-0.105l-0.417,1.782c-0.99,0.064-2.601,0.548-3.526,0.745c0.462,1.387,2.301,5.857,3.688,9.159
		c1.057,2.378,2.81,7.037,4.461,9.745c1.122,0.197,3.697,0.953,4.886,1.02l0.067,0.661L301.057,538.897z"/>
	<path id="path2221" fill="#7B0099" d="M339.738,532.101c-0.911-0.069-5.293-0.063-7.534,0c-1.797,0.051-6.066-0.163-8.099-0.075
		l-0.155-2.489c0.7-0.071,5.072-0.368,5.913-0.51c0.28-1.33,0.146-3.218,0.146-4.827l-0.108-2.932c-2.241,0-17.06,0.771-17.691,0.84
		l-1.083,0.142c0,3.994,0.21,5.256,0.491,6.728c1.191,0.208,5.466,0.488,6.376,0.63l-0.055,2.714c-1.052-0.07-7.625,0-9.657,0
		c-2.452,0-8.415-0.053-9.816,0.018l0.19-2.802c1.121-0.071,5.359-0.488,6.27-0.628c0.141-1.823,0.21-4.694,0.21-7.708v-3.713
		c0-1.262-0.07-4.904-0.141-6.167c-0.911-0.138-5.149-0.422-6.41-0.492l-0.224-2.121c0.84,0.071,6.691-0.09,9.773-0.09
		c2.873,0,9.387,0.058,10.158-0.014l-0.229,2.225c-1.331,0.07-5.746,0.42-6.516,0.561c-0.211,1.052-0.421,1.963-0.421,5.325
		l-0.104,1.753c1.261,0,16.893-0.062,18.839-0.339v-2.414c0-3.083,0.479-6.416,0.128-7.327c-0.771-0.21-4.947-0.798-6.279-0.868
		l0.187-2.237c0.841,0.071,4.778,0.047,7.72,0.117c3.083,0,7.562,0.127,8.472-0.013l-0.207,1.842
		c-0.91,0.07-4.973,1.098-4.973,1.098s-0.277,1.92-0.073,4.682c0.168,2.293,0.219,6.804,0.219,6.804
		c0.116,5.021,0.426,9.08,0.146,9.291c-0.337,0.252,3.217,0.468,4.197,0.609l0.383,0.665L339.738,532.101"/>
	<path id="path2223" fill="#7B0099" d="M370.245,520.982c0.253-7.082-5.289-8.967-12.291-8.486
		c-3.664,0.252-11.119,2.188-11.119,8.486c0,6.224,5.719,9.594,13.35,8.928c5.906-0.514,9.005-2.688,9.766-5.71L370.245,520.982
		 M375.878,520.396c0.333,8.558-7.481,12.802-17.63,12.802c-4.224,0-9.365-0.805-13.754-3.438c-3.424-2.056-3.991-4.721-3.991-8.054
		c0-6.892,7.501-12.604,18.986-12.529c4.371,0,8.584,0.667,11.99,3.322c3.039,2.37,3.552,3.548,4.106,6.141L375.878,520.396z"/>
	<path id="path2225" fill="#7B0099" d="M423.964,534.81l-2.431-0.209l-0.025-5.266l3.077,0.384l2.759,0.128l-0.766,5.156
		L423.964,534.81 M427.096,525.508l-4.537-0.439c0.477-2.294,0.063-19.905,0.025-21.783l-0.234-3.7
		c1.264,0.25,1.072,0.119,6.406,0.68c3.244,0.341,3.668,0.486,4.736,0.528l-1.395,4.387
		C430.909,508.689,427.461,524.336,427.096,525.508z"/>
	<path id="path2227" fill="#7B0099" d="M412.381,518.056c0.482-7.695-6.931-10.498-14.923-9.95
		c-4.183,0.287-11.998,2.76-11.998,9.95c0,7.104,6.54,10.685,15.255,9.926c6.74-0.587,9.545-3.123,11.082-6.561
		C411.797,521.421,412.236,520.396,412.381,518.056 M418.427,516.919c0.599,8.013-8.649,14.669-20.237,14.669
		c-4.821,0-8.925-0.585-13.68-3.729c-3.912-2.588-5.779-4.829-6.268-9.243c-0.865-7.818,8.564-14.389,21.675-14.304
		c4.991,0,9.8,0.759,13.689,3.793c3.468,2.704,4.075,5.271,4.708,8.234L418.427,516.919z"/>
	<path id="text3342" sodipodi:nodetypes="cccccccccccccccccccccccccccccccccccccc" fill="#4D4D4D" d="M449.661,533.21v-21.64h4.632
		l6.732,8.708l6.76-8.708h4.633v21.64h-5.156v-13.396l-6.236,7.92l-6.178-7.92v13.396H449.661z M484.953,525.29h6.191l-2.939-8.229
		L484.953,525.29z M476.168,533.21l9.145-21.64h6.057l8.17,21.64h-5.563l-1.498-4.208h-9.04l-1.679,4.208H476.168z M503.615,533.21
		v-21.64h5.412v21.64H503.615z M514.768,533.21v-21.64h5.246v17.463h10.535v4.177H514.768z"/>
</g>
</svg>
